<?xml version="1.0" standalone="no"?>
<!DOCTYPE svg PUBLIC "-//W3C//DTD SVG 1.1//EN" "http://www.w3.org/Graphics/SVG/1.1/DTD/svg11.dtd" >
<svg xmlns="http://www.w3.org/2000/svg">
<metadata>Generated by IcoMoon</metadata>
<defs>
<font id="icomoon" horiz-adv-x="1024">
<font-face units-per-em="1024" ascent="870.850439882698" descent="-153.14956011730206" />
<missing-glyph horiz-adv-x="1024" />
<glyph unicode="&#x20;" d="" />
<glyph unicode="&#xe700;" glyph-name="valhalla" d="M161.762-13.789h713.985v44.072h-713.985v-44.072zM485.724 134.088l0.428-4.546 1.24-4.181 1.977-3.743 2.641-3.227 3.227-2.641 3.743-1.977 4.181-1.24 4.546-0.428 4.546 0.428 4.181 1.24 3.743 1.977 3.227 2.641 2.641 3.227 1.977 3.743 1.24 4.181 0.428 4.546-0.428 4.575-1.24 4.195-1.977 3.745-2.641 3.221-3.227 2.63-3.743 1.965-4.181 1.23-4.546 0.424-3.656-0.428-3.764-1.24-3.689-1.977-3.427-2.641-2.986-3.227-2.359-3.743-1.553-4.181-0.559-4.546zM485.724 209.582l0.428-4.546 1.24-4.181 1.977-3.743 2.641-3.227 3.227-2.641 3.743-1.977 4.181-1.24 4.546-0.428 4.546 0.428 4.181 1.24 3.743 1.977 3.227 2.641 2.641 3.227 1.977 3.743 1.24 4.181 0.428 4.546-0.428 4.546-1.24 4.181-1.977 3.743-2.641 3.227-3.227 2.641-3.743 1.977-4.181 1.24-4.546 0.428-3.525-0.428-3.451-1.24-3.303-1.977-3.082-2.641-2.786-3.227-2.413-3.743-1.97-4.181-1.449-4.546zM485.724 285.077l0.428-4.546 1.24-4.181 1.977-3.743 2.641-3.227 3.227-2.641 3.743-1.977 4.181-1.24 4.546-0.428 4.546 0.428 4.181 1.24 3.743 1.977 3.227 2.641 2.641 3.227 1.977 3.743 1.24 4.181 0.428 4.546-0.428 4.546-1.24 4.181-1.977 3.743-2.641 3.227-3.227 2.641-3.743 1.977-4.181 1.24-4.546 0.428-3.525-0.428-3.451-1.24-3.303-1.977-3.082-2.641-2.786-3.227-2.413-3.743-1.97-4.181-1.449-4.546zM485.724 363.683l0.428-4.546 1.24-4.181 1.977-3.743 2.641-3.227 3.227-2.641 3.743-1.977 4.181-1.24 4.546-0.428 4.546 0.428 4.181 1.24 3.743 1.977 3.227 2.641 2.641 3.227 1.977 3.743 1.24 4.181 0.428 4.546-0.428 4.546-1.24 4.181-1.977 3.743-2.641 3.227-3.227 2.641-3.743 1.977-4.181 1.24-4.546 0.428-3.525-0.428-3.451-1.24-3.303-1.977-3.082-2.641-2.786-3.227-2.413-3.743-1.97-4.181-1.449-4.546zM558.106 58.593h311.415l-0.959 16.99-1.682 16.75-2.385 16.499-3.077 16.232-3.753 15.95-4.41 15.648-5.055 15.335-5.685 15.006-6.295 14.658-6.894 14.299-7.473 13.924-8.041 13.529-8.589 13.123-9.126 12.698-9.643 12.261-10.149 11.807-10.635 11.336-11.11 10.853-11.565 10.35-12.009 9.836-12.434 9.302-12.847 8.757-13.24 8.192-13.618 7.612-13.984 7.020-14.331 6.409-14.663 5.787-14.982 5.145-15.283 4.487-15.568 3.818-15.837 3.13-16.095 2.426v-349.162zM158.549 61.706h305.090v346.050h-3.212l-15.501-2.711-15.266-3.392-15.016-4.061-14.746-4.715-14.465-5.348-14.168-5.969-13.855-6.57-13.524-7.159-13.181-7.732-12.82-8.285-12.444-8.826-12.054-9.346-11.644-9.855-11.223-10.344-10.787-10.821-10.331-11.277-9.863-11.718-9.376-12.146-8.877-12.555-8.359-12.952-7.829-13.328-7.28-13.688-6.719-14.037-6.139-14.365-5.543-14.677-4.936-14.978-4.309-15.258-3.671-15.522-3.013-15.77-2.339-16.006-1.655-16.222-0.95-16.422zM734.194 382.557l20.632-17.221 19.381-18.63 18.055-19.963 16.65-21.224 7.778-11.060 7.396-11.344 7.010-11.62 6.61-11.889 6.204-12.145 5.789-12.392 5.361-12.629 4.927-12.86 12.366 8.614 11.742 8.743 11.136 8.86 10.539 8.968 9.96 9.068 9.391 9.159 8.839 9.243 8.297 9.317 7.773 9.384 7.258 9.442 6.76 9.492 6.273 9.534 5.803 9.567 5.343 9.592 4.9 9.609 4.467 9.617 4.051 9.617 3.649 9.609 3.257 9.592 2.883 9.567 4.692 19.031 3.349 18.827 2.12 18.561 0.999 18.229-0.013 17.826-0.915 17.36-1.709 16.823-2.389 16.225-2.965 15.555-3.427 14.819-3.785 14.021-4.029 13.151-4.164 12.216-4.191 11.214-4.108 10.145-3.916 9.009-3.615 7.808-3.201 6.535-2.682 5.2-2.050 3.798-0.756 1.35-0.558 0.976-0.342 0.593-0.117 0.198 2.922-15.952 1.706-15.423 0.546-14.905-0.562-14.389-1.611-13.885-2.604-13.383-3.537-12.892-4.419-12.404-5.245-11.927-6.016-11.453-6.73-10.99-7.385-10.529-7.989-10.079-8.533-9.633-9.025-9.197-9.457-8.768-9.838-8.342-10.159-7.926-10.424-7.514-10.634-7.112-10.792-6.718-10.891-6.326-10.933-5.945-10.921-5.567-21.576-10.039-20.852-8.616-10.017-3.795-9.666-3.458-9.264-3.132-8.806-2.813zM167.986 209.582l4.413 12.86 4.982 12.629 5.524 12.392 6.047 12.145 6.544 11.889 7.021 11.62 7.471 11.344 7.903 11.060 8.307 10.764 8.688 10.458 18.436 19.963 19.689 18.63 20.759 17.221-9.078 2.813-9.501 3.132-20.064 7.253-21.113 8.616-21.727 10.039-10.961 5.567-10.953 5.945-10.891 6.326-10.773 6.718-10.601 7.112-10.377 7.514-10.099 7.926-9.768 8.342-9.378 8.768-8.939 9.197-8.441 9.633-7.894 10.079-7.289 10.529-6.63 10.99-5.921 11.453-5.154 11.927-4.333 12.404-3.458 12.892-2.53 13.383-1.551 13.885-0.511 14.389 0.58 14.905 1.724 15.423 2.922 15.952-0.117-0.198-0.342-0.593-0.557-0.976-0.755-1.35-2.049-3.798-2.681-5.2-3.199-6.535-3.613-7.808-3.913-9.009-4.105-10.145-4.188-11.214-4.161-12.216-4.026-13.151-3.782-14.021-3.424-14.819-2.962-15.555-2.387-16.225-1.706-16.823-0.913-17.36-0.011-17.826 1-18.229 2.121-18.561 3.35-18.827 4.692-19.031 2.882-9.567 3.257-9.592 3.649-9.609 4.050-9.617 4.466-9.617 4.899-9.609 5.341-9.592 5.801-9.567 6.271-9.534 6.759-9.492 7.256-9.442 7.77-9.384 8.294-9.317 8.836-9.243 9.388-9.159 9.957-9.068 10.536-8.968 11.132-8.86 11.738-8.743 12.362-8.614z" />
<glyph unicode="&#xe800;" glyph-name="radio" horiz-adv-x="882" d="M881.005 325.937q0-120.276-58.596-221.022t-160.369-160.369-221.022-59.624-222.050 59.624-159.341 160.369-59.624 221.022 59.624 221.022 159.341 160.369 222.050 59.624 221.022-59.624 160.369-160.369 58.596-221.022z" />
<glyph unicode="&#xe801;" glyph-name="radio-checked" horiz-adv-x="882" d="M737.083 418.457q0 16.448-11.308 26.728l-51.4 51.4q-11.308 11.308-25.7 11.308t-26.728-11.308l-233.358-233.358-129.528 129.528q-11.308 11.308-25.7 11.308t-26.728-11.308l-51.4-51.4q-10.28-10.28-10.28-26.728 0-15.42 10.28-25.7l207.658-207.658q10.28-10.28 25.7-10.28t25.7 10.28l311.487 311.487q11.308 10.28 11.308 25.7zM881.005 325.937q0-120.276-58.596-221.022t-160.369-160.369-221.022-59.624-222.050 59.624-159.341 160.369-59.624 221.022 59.624 221.022 159.341 160.369 222.050 59.624 221.022-59.624 160.369-160.369 58.596-221.022z" />
<glyph unicode="&#xe802;" glyph-name="cancel-circled" horiz-adv-x="882" d="M658.955 196.408q0 14.392-10.28 25.7l-103.828 103.828 103.828 103.828q10.28 11.308 10.28 25.7 0 15.42-10.28 26.728l-52.428 51.4q-10.28 11.308-25.7 11.308t-25.7-11.308l-103.828-103.828-103.828 103.828q-11.308 11.308-26.728 11.308t-25.7-11.308l-51.4-51.4q-11.308-11.308-11.308-26.728 0-14.392 11.308-25.7l103.828-103.828-103.828-103.828q-11.308-11.308-11.308-25.7 0-15.42 11.308-26.728l51.4-51.4q10.28-11.308 25.7-11.308t26.728 11.308l103.828 103.828 103.828-103.828q10.28-11.308 25.7-11.308t25.7 11.308l52.428 51.4q10.28 11.308 10.28 26.728zM881.005 325.937q0-120.276-58.596-221.022t-160.369-160.369-221.022-59.624-222.050 59.624-159.341 160.369-59.624 221.022 59.624 221.022 159.341 160.369 222.050 59.624 221.022-59.624 160.369-160.369 58.596-221.022z" />
<glyph unicode="&#xe803;" glyph-name="checkbox" horiz-adv-x="882" d="M881.005 601.444v-551.014q0-67.848-48.316-116.164t-117.192-49.344h-549.986q-68.876 0-117.192 49.344t-48.316 116.164v551.014q0 67.848 48.316 116.164t117.192 49.344h549.986q68.876 0 117.192-49.344t48.316-116.164z" />
<glyph unicode="&#xe804;" glyph-name="checkbox-checked" horiz-adv-x="882" d="M392.699 94.634l352.607 352.607q10.28 10.28 10.28 25.7t-10.28 25.7l-58.596 58.596q-11.308 10.28-25.7 10.28t-25.7-10.28l-268.311-268.311-121.304 121.304q-10.28 11.308-25.7 11.308t-25.7-11.308l-58.596-58.596q-10.28-11.308-10.28-25.7t10.28-25.7l205.602-205.602q11.308-11.308 25.7-11.308t25.7 11.308zM881.005 601.444v-551.014q0-67.848-48.316-116.164t-117.192-49.344h-549.986q-68.876 0-117.192 49.344t-48.316 116.164v551.014q0 67.848 48.316 116.164t117.192 49.344h549.986q68.876 0 117.192-49.344t48.316-116.164z" />
<glyph unicode="&#xe805;" glyph-name="checkbox-half" horiz-adv-x="882" d="M733.999 288.928v74.016q0 14.392-10.28 25.7t-25.7 10.28h-514.004q-15.42 0-26.728-10.28t-10.28-25.7v-74.016q0-14.392 10.28-25.7t26.728-10.28h514.004q14.392 0 25.7 10.28t10.28 25.7zM881.005 601.444v-551.014q0-67.848-48.316-116.164t-117.192-49.344h-549.986q-68.876 0-117.192 49.344t-48.316 116.164v551.014q0 67.848 48.316 116.164t117.192 49.344h549.986q68.876 0 117.192-49.344t48.316-116.164z" />
<glyph unicode="&#xe806;" glyph-name="heart" d="M955.022 497.614q0 47.288-12.336 82.24t-31.868 56.54-47.288 33.924-53.456 18.504-56.54 4.112-63.736-14.392-63.736-37.008-49.344-41.12-34.952-34.952q-10.28-13.364-27.756-13.364t-27.756 13.364q-14.392 15.42-34.952 34.952t-49.344 41.12-63.736 37.008-63.736 14.392-56.54-4.112-53.456-18.504-47.288-33.924-31.868-56.54-12.336-82.24q0-95.604 107.94-203.546l333.075-320.739 333.075 320.739q107.94 107.94 107.94 203.546zM1028.010 497.614q0-126.444-131.585-258.030l-356.719-344.383q-10.28-10.28-25.7-10.28t-25.7 10.28l-357.747 345.411q-5.14 5.14-15.42 15.42t-31.868 37.008-39.064 56.54-30.84 68.876-13.364 79.156q0 126.444 72.988 197.378t201.49 71.96q34.952 0 71.96-12.336t68.876-33.924 55.512-39.064 43.176-39.064q20.56 20.56 43.176 39.064t55.512 39.064 68.876 33.924 71.96 12.336q128.5 0 201.49-71.96t72.988-197.378z" />
<glyph unicode="&#xe807;" glyph-name="heart-full" d="M514.004-115.080q-14.392 0-25.7 10.28l-357.747 345.411q-5.14 5.14-15.42 15.42t-31.868 37.008-39.064 56.54-30.84 68.876-13.364 79.156q0 126.444 72.988 197.378t201.49 71.96q34.952 0 71.96-12.336t68.876-33.924 55.512-39.064 43.176-39.064q20.56 20.56 43.176 39.064t55.512 39.064 68.876 33.924 71.96 12.336q128.5 0 201.49-71.96t72.988-197.378q0-126.444-131.585-258.030l-356.719-344.383q-10.28-10.28-25.7-10.28z" />
<glyph unicode="&#xe808;" glyph-name="star" horiz-adv-x="954" d="M651.758 264.256l175.79 169.621-241.582 35.98-108.968 218.966-107.94-218.966-242.61-35.98 175.79-169.621-42.148-241.582 216.91 114.108 216.91-114.108zM955.022 468.83q0-12.336-15.42-27.756l-208.686-202.518 49.344-286.815q1.028-4.112 1.028-12.336 0-28.784-23.644-28.784-10.28 0-22.616 7.196l-258.030 135.697-257.002-135.697q-13.364-7.196-23.644-7.196-11.308 0-17.476 9.252t-6.168 19.532q0 4.112 1.028 12.336l49.344 286.815-208.686 202.518q-14.392 15.42-14.392 27.756 0 21.588 31.868 26.728l287.843 41.12 129.528 261.114q11.308 23.644 27.756 23.644t28.784-23.644l128.5-261.114 287.843-41.12q32.896-5.14 32.896-26.728z" />
<glyph unicode="&#xe809;" glyph-name="star-half" horiz-adv-x="954" d="M680.543 290.984l147.005 142.893-203.546 29.812-38.036 6.168-17.476 34.952-91.492 184.014v-552.042l33.924-17.476 182.986-96.632-34.952 203.546-7.196 38.036zM939.602 441.074l-207.658-202.518 48.316-286.815q3.084-19.532-3.084-29.812t-19.532-11.308q-9.252 0-22.616 7.196l-258.030 135.697-257.002-135.697q-13.364-7.196-23.644-7.196-12.336 0-19.532 11.308t-3.084 29.812l49.344 286.815-208.686 202.518q-18.504 18.504-13.364 33.924t30.84 20.56l287.843 41.12 129.528 261.114q11.308 23.644 27.756 23.644t28.784-23.644l128.5-261.114 287.843-41.12q25.7-4.112 30.84-20.56t-13.364-33.924z" />
<glyph unicode="&#xe80a;" glyph-name="star-full" horiz-adv-x="954" d="M955.022 468.83q0-12.336-15.42-27.756l-208.686-202.518 49.344-286.815q1.028-4.112 1.028-12.336 0-11.308-6.168-19.532t-17.476-9.252q-10.28 0-22.616 7.196l-258.030 135.697-257.002-135.697q-13.364-7.196-23.644-7.196-11.308 0-17.476 9.252t-6.168 19.532q0 4.112 1.028 12.336l49.344 286.815-208.686 202.518q-14.392 15.42-14.392 27.756 0 21.588 31.868 26.728l287.843 41.12 129.528 261.114q11.308 23.644 27.756 23.644t28.784-23.644l128.5-261.114 287.843-41.12q32.896-5.14 32.896-26.728z" />
<glyph unicode="&#xe80b;" glyph-name="up" d="M965.302 76.13l-94.576-94.576q-11.308-10.28-26.728-10.28t-25.7 10.28l-304.291 305.319-304.291-305.319q-11.308-10.28-25.7-10.28t-26.728 10.28l-94.576 94.576q-11.308 11.308-11.308 26.728t11.308 25.7l425.596 425.596q11.308 10.28 25.7 10.28t25.7-10.28l425.596-425.596q11.308-11.308 11.308-25.7t-11.308-26.728z" />
<glyph unicode="&#xe80c;" glyph-name="down" d="M965.302 376.309l-425.596-424.568q-10.28-11.308-25.7-11.308t-25.7 11.308l-425.596 424.568q-11.308 11.308-11.308 26.728t11.308 25.7l94.576 94.576q11.308 11.308 26.728 11.308t25.7-11.308l304.291-304.291 304.291 304.291q11.308 11.308 25.7 11.308t26.728-11.308l94.576-94.576q11.308-11.308 11.308-25.7t-11.308-26.728z" />
<glyph unicode="&#xe80d;" glyph-name="left" horiz-adv-x="735" d="M671.291 667.236l-304.291-304.291 304.291-305.319q11.308-10.28 11.308-25.7t-11.308-25.7l-94.576-95.604q-11.308-10.28-25.7-10.28t-25.7 10.28l-425.596 426.624q-11.308 10.28-11.308 25.7t11.308 25.7l425.596 425.596q10.28 10.28 25.7 10.28t25.7-10.28l94.576-95.604q11.308-10.28 11.308-25.7t-11.308-25.7z" />
<glyph unicode="&#xe80e;" glyph-name="right" horiz-adv-x="735" d="M635.31 337.245l-425.596-426.624q-11.308-10.28-25.7-10.28t-26.728 10.28l-94.576 95.604q-11.308 11.308-11.308 25.7t11.308 25.7l304.291 305.319-304.291 304.291q-11.308 11.308-11.308 25.7t11.308 25.7l94.576 95.604q11.308 10.28 26.728 10.28t25.7-10.28l425.596-425.596q10.28-11.308 10.28-25.7t-10.28-25.7z" />
<glyph unicode="&#xe80f;" glyph-name="sun" horiz-adv-x="1008" d="M557.182 753.588l-52.428-156.257-54.484 156.257q-7.196 22.616 3.084 43.176t31.868 28.784q30.84 10.28 57.568-11.308t14.392-60.652zM75.044 380.421l157.285-54.484-157.285-53.456q-21.588-8.224-43.176 3.084t-28.784 32.896q-10.28 30.84 12.336 57.568t59.624 14.392zM450.268-101.716l54.484 156.257 52.428-156.257q7.196-21.588-3.084-43.176t-31.868-28.784q-30.84-10.28-57.568 12.336t-14.392 59.624zM932.406 272.48l-157.285 53.456 157.285 54.484q21.588 7.196 43.176-3.084t28.784-32.896q10.28-30.84-12.336-58.596t-59.624-13.364zM238.498 666.208l72.988-149.061-149.061 74.016q-21.588 10.28-28.784 31.868t3.084 43.176q16.448 32.896 51.4 30.84t50.372-30.84zM162.425 61.738l149.061 72.988-72.988-149.061q-10.28-21.588-31.868-28.784t-44.204 3.084q-31.868 16.448-30.84 51.4t30.84 50.372zM768.951-14.335l-72.988 149.061 149.061-72.988q21.588-10.28 28.784-32.896t-3.084-43.176q-16.448-31.868-51.4-30.84t-50.372 30.84zM845.024 591.164l-149.061-74.016 72.988 149.061q10.28 22.616 31.868 29.812t44.204-4.112q31.868-16.448 30.84-51.4t-30.84-49.344zM504.752 84.354q-99.716 0-170.649 71.96t-70.932 169.621 70.932 170.649 170.649 70.932 169.621-70.932 69.904-170.649-69.904-169.621-169.621-71.96zM504.752 459.578q-55.512 0-95.604-39.064t-40.092-94.576 40.092-94.576 95.604-39.064 94.576 39.064 39.064 94.576-39.064 94.576-94.576 39.064z" />
<glyph unicode="&#xe810;" glyph-name="cloud" horiz-adv-x="1070" d="M802.876-49.287h-588.022q-88.408 0-152.145 62.708t-62.708 152.145q0 74.016 45.232 131.585t115.136 75.044v8.224q0 133.641 94.576 227.19t227.19 93.548q102.8 0 185.042-59.624t117.192-156.257q118.22 9.252 201.49-69.904t84.296-196.35q0-109.996-78.128-189.154t-189.154-79.156zM209.714 273.508q-41.12 0-71.96-31.868t-30.84-76.072 30.84-75.044 77.1-31.868h588.022q66.82 0 114.108 47.288t47.288 113.080-47.288 114.108-114.108 47.288q-18.504 0-43.176-8.224l-57.568-16.448-9.252 58.596q-14.392 77.1-72.988 128.5t-137.753 50.372q-88.408 0-152.145-62.708t-62.708-150.089q0-15.42 5.14-44.204l13.364-63.736z" />
<glyph unicode="&#xe811;" glyph-name="rain" horiz-adv-x="1070" d="M802.876 42.205q-21.588 0-38.036 16.448t-15.42 38.036 15.42 37.008 38.036 15.42q66.82 0 114.108 47.288t47.288 113.080-47.288 114.108-114.108 47.288q-22.616 0-43.176-7.196l-57.568-16.448-9.252 59.624q-14.392 77.1-72.988 127.472t-137.753 50.372q-88.408 0-152.145-62.708t-62.708-151.117q0-14.392 5.14-43.176l13.364-63.736h-76.072q-41.12 0-71.96-31.868t-30.84-75.044q0-45.232 30.84-76.072t77.1-31.868q21.588 0 37.008-15.42t15.42-37.008-15.42-38.036-37.008-16.448q-88.408 0-152.145 63.736t-62.708 151.117q0 75.044 45.232 131.585t115.136 75.044v7.196q0 131.585 94.576 226.162t227.19 94.576q103.828 0 186.070-58.596t116.164-156.257q116.164 9.252 201.49-69.904t84.296-197.378q0-109.996-78.128-188.126t-189.154-79.156zM455.408 42.205l53.456 161.397 54.484-161.397q7.196-21.588-4.112-43.176t-31.868-28.784q-29.812-10.28-56.54 13.364t-15.42 58.596zM615.778-64.707l53.456 161.397 53.456-161.397q7.196-21.588-3.084-42.148t-31.868-29.812q-29.812-10.28-56.54 13.364t-15.42 58.596zM294.011-64.707l54.484 161.397 52.428-161.397q8.224-21.588-2.056-42.148t-32.896-29.812q-28.784-10.28-56.54 13.364t-15.42 58.596z" />
<glyph unicode="&#xe812;" glyph-name="snow" horiz-adv-x="887" d="M840.912 157.342q22.616-5.14 35.98-23.644t7.196-41.12q-6.168-33.924-41.12-43.176t-56.54 15.42l-88.408 100.744 21.588-78.128q6.168-24.672-9.252-46.26t-43.176-22.616q-18.504 0-31.868 11.308t-19.532 28.784l-21.588 81.212q-33.924-26.728-65.792-39.064l58.596-58.596q15.42-15.42 15.42-37.008t-15.42-38.036q-16.448-16.448-37.008-16.448-21.588 0-38.036 16.448l-38.036 38.036h-12.336l34.952-106.912q7.196-21.588-3.084-43.176t-32.896-28.784q-29.812-10.28-56.54 12.336t-14.392 59.624l35.98 106.912h-14.392l-37.008-38.036q-15.42-15.42-38.036-15.42t-38.036 15.42-15.42 38.036 15.42 37.008l59.624 58.596q-32.896 12.336-65.792 39.064l-21.588-81.212q-5.14-17.476-19.532-28.784t-31.868-11.308q-28.784 0-43.176 22.616t-8.224 46.26l20.56 79.156-89.436-101.772q-15.42-16.448-39.064-17.476t-40.092 14.392q-18.504 15.42-19.532 38.036t14.392 41.12q12.336 13.364 30.84 16.448l130.556 27.756-78.128 21.588q-21.588 6.168-32.896 25.7t-5.14 40.092 23.644 31.868 41.12 5.14l81.212-20.56q-4.112 19.532-4.112 37.008t4.112 37.008l-81.212-20.56q-10.28-2.056-13.364-2.056-18.504 0-32.896 11.308t-18.504 28.784q-5.14 20.56 5.14 39.064t32.896 25.7l78.128 22.616-130.556 26.728q-23.644 5.14-35.98 23.644t-8.224 42.148q7.196 32.896 41.12 43.176t56.54-16.448l89.436-101.772-20.56 80.184q-7.196 21.588 5.14 41.12t31.868 23.644q21.588 7.196 41.12-5.14t24.672-31.868l21.588-81.212q32.896 27.756 65.792 39.064l-59.624 58.596q-15.42 15.42-15.42 38.036t15.42 37.008 38.036 15.42 38.036-15.42l57.568-57.568-42.148 126.444q-8.224 22.616 3.084 43.176t32.896 28.784q29.812 10.28 55.512-12.336t15.42-59.624l-43.176-126.444 58.596 57.568q15.42 15.42 38.036 15.42t37.008-15.42 15.42-37.008-15.42-38.036l-58.596-58.596q31.868-11.308 65.792-39.064l21.588 81.212q5.14 20.56 24.672 31.868t41.12 5.14 32.896-25.7 5.14-39.064l-21.588-79.156 88.408 100.744q15.42 16.448 39.064 17.476t41.12-13.364q17.476-15.42 18.504-39.064t-13.364-41.12q-13.364-12.336-30.84-16.448l-131.585-26.728 80.184-22.616q20.56-5.14 31.868-23.644t5.14-41.12q-5.14-18.504-19.532-29.812t-31.868-10.28q-4.112 0-14.392 2.056l-81.212 20.56q4.112-18.504 4.112-37.008t-4.112-37.008l81.212 20.56q21.588 6.168 41.12-5.14t24.672-31.868q6.168-22.616-5.14-41.12t-31.868-24.672l-80.184-21.588zM443.072 192.296q55.512 0 94.576 39.064t39.064 94.576-39.064 94.576-94.576 39.064-94.576-39.064-40.092-94.576 40.092-94.576 94.576-39.064z" />
<glyph unicode="&#xe813;" glyph-name="thunder" horiz-adv-x="1070" d="M802.876 85.382q-21.588 0-38.036 15.42t-15.42 38.036 15.42 38.036 38.036 15.42q66.82 0 114.108 46.26t47.288 114.108-47.288 113.080-114.108 47.288q-22.616 0-43.176-6.168l-57.568-16.448-9.252 58.596q-14.392 77.1-72.988 127.472t-137.753 51.4q-88.408 0-152.145-63.736t-62.708-151.117q0-14.392 5.14-42.148l14.392-66.82-77.1 2.056q-41.12 0-71.96-30.84t-30.84-76.072q0-44.204 30.84-76.072t77.1-31.868q21.588 0 37.008-15.42t15.42-37.008-15.42-38.036-37.008-15.42q-88.408 0-152.145 62.708t-62.708 151.117q0 75.044 45.232 132.613t115.136 75.044v6.168q0 132.613 94.576 227.19t227.19 93.548q103.828 0 186.070-58.596t116.164-155.229q116.164 8.224 201.49-70.932t84.296-196.35q0-111.024-78.128-189.154t-189.154-78.128zM569.518 300.236l-80.184-188.126 161.397-78.128-241.582-215.882 80.184 187.098-160.369 77.1z" />
<glyph unicode="&#xe814;" glyph-name="firefox" d="M518.116-174.705c-222.050 0-397.84 129.528-479.052 314.571-89.436 205.602-17.476 535.594 142.893 681.571l-6.168-160.369c8.224 9.252 69.904 12.336 80.184-1.028 32.896 63.736 139.809 112.052 226.162 113.080-32.896-26.728-108.968-127.472-101.772-178.874 41.12-13.364 105.884-13.364 139.809-15.42 10.28-6.168 8.224-41.12-12.336-69.904-27.756-38.036-99.716-50.372-99.716-50.372l8.224-108.968-79.156 39.064c-26.728-65.792 35.98-123.36 99.716-113.080 70.932 12.336 96.632 58.596 145.977 55.512 50.372-2.056 69.904-29.812 62.708-55.512-7.196-30.84-60.652-25.7-60.652-25.7-45.232-71.96-105.884-103.828-203.546-95.604 148.033-122.332 347.467-10.28 397.84 89.436 51.4 99.716 7.196 247.75-44.204 290.927 60.652-25.7 101.772-52.428 123.36-111.024 11.308 128.5-47.288 274.479-153.173 359.803 198.406-57.568 319.711-211.77 322.795-457.464s-216.91-500.64-509.892-500.64z" />
<glyph unicode="&#xe815;" glyph-name="chrome" d="M511.948 839.941c-151.117-1.028-299.151-68.876-397.84-191.21l158.313-243.638c40.092 114.108 154.201 187.098 274.479 174.761l425.596-22.616c-43.176 86.352-111.024 161.397-201.49 213.826-81.212 47.288-170.649 68.876-259.058 68.876zM84.296 607.612c-53.456-81.212-84.296-177.846-84.296-281.675 0-257.002 188.126-469.8 434.848-507.836l131.585 259.058c-119.248-22.616-239.526 40.092-288.871 150.089l-193.266 380.363zM994.086 510.978l-289.899-15.42c78.128-91.492 84.296-227.19 13.364-325.879l-232.33-356.719c96.632-6.168 195.322 15.42 285.787 67.848 222.050 128.5 312.515 397.84 223.078 630.17zM514.004 499.67c-95.604 0-173.733-78.128-173.733-173.733s78.128-173.733 173.733-173.733 173.733 78.128 173.733 173.733-78.128 173.733-173.733 173.733z" />
<glyph unicode="&#xe816;" glyph-name="opera" horiz-adv-x="875" d="M437.932-188.069c-583.91 0-583.91 1028.010 0 1028.010s582.882-1028.010 0-1028.010zM437.932-93.492c243.638 0 243.638 838.856 0 838.856s-244.666-838.856 0-838.856z" />
<glyph unicode="&#xe817;" glyph-name="ie" horiz-adv-x="971" d="M867.64 839.941c-83.268-1.028-186.070-47.288-288.871-108.968-245.694 35.98-511.948-105.884-523.256-396.812 61.68 95.604 230.274 264.199 377.279 309.431v-13.364c-184.014-92.52-586.994-629.142-370.083-794.652 92.52-70.932 318.683 38.036 353.635 78.128 29.812-5.14 60.652-8.224 91.492-8.224 206.63 0 381.391 126.444 435.876 300.179h-309.431c-13.364-57.568-57.568-94.576-124.388-94.576-104.856 0-129.528 69.904-129.528 155.229h576.714c29.812 209.714-117.192 394.756-314.571 451.296 178.874 118.22 373.167 165.509 307.375-106.912h20.56c35.98 112.052 21.588 196.35-39.064 218.966-18.504 7.196-38.036 10.28-59.624 10.28-1.028 0-3.084 0-4.112 0zM505.78 528.454c81.212 0 131.585-49.344 131.585-132.613h-259.058c0 79.156 47.288 132.613 127.472 132.613zM128.5 94.634c59.624-85.324 153.173-149.061 263.171-175.79-79.156-59.624-232.33-86.352-273.451-53.456-49.344 41.12-37.008 127.472 10.28 229.246z" />
<glyph unicode="&#xe818;" glyph-name="renren" horiz-adv-x="882" d="M649.702-60.595q-97.66-54.484-210.742-54.484-112.052 0-210.742 54.484 79.156 49.344 135.697 121.304t75.044 153.173q19.532-82.24 76.072-153.173t134.669-121.304zM365.971 758.728v-278.591q0-143.921-72.988-263.171t-189.154-175.79q-103.828 123.36-103.828 283.731 0 106.912 48.316 200.462t131.585 154.201 186.070 79.156zM881.005 324.909q0-160.369-103.828-283.731-117.192 56.54-189.154 175.79t-72.988 263.171v278.591q102.8-17.476 186.070-79.156t132.613-154.201 47.288-200.462z" />
<glyph unicode="&#xe819;" glyph-name="qq" d="M155.229 377.337q-5.14 11.308-5.14 29.812 0 11.308 6.168 28.784t14.392 25.7q-1.028 12.336 4.112 29.812t13.364 24.672q0 80.184 52.428 165.509t124.388 120.276q80.184 38.036 186.070 38.036 77.1 0 153.173-31.868 27.756-12.336 51.4-27.756t41.12-31.868 30.84-39.064 24.672-42.148 18.504-48.316 14.392-51.4 12.336-56.54l1.028-3.084q31.868-47.288 31.868-85.324 0-8.224-5.14-23.644t-5.14-21.588q0 0 0-2.056t2.056-3.084 1.028-2.056q44.204-64.764 69.904-122.332t24.672-120.276q0-24.672-11.308-56.54t-31.868-32.896q-5.14 0-11.308 4.112t-10.28 10.28-11.308 14.392-9.252 15.42-7.196 15.42-5.14 9.252q-1.028 1.028-2.056 1.028l-3.084-2.056q-33.924-88.408-76.072-128.5 12.336-11.308 35.98-21.588t39.064-23.644 20.56-38.036q-1.028-2.056-2.056-9.252t-4.112-10.28q-37.008-55.512-173.733-55.512-29.812 0-62.708 5.14t-56.54 11.308-59.624 17.476q-9.252 3.084-13.364 4.112-8.224 2.056-26.728 3.084t-22.616 0q-23.644-25.7-72.988-37.008t-96.632-11.308q-20.56 0-40.092 1.028t-53.456 5.14-57.568 11.308-43.176 23.644-18.504 35.98q0 23.644 6.168 33.924t23.644 28.784q6.168 1.028 22.616 7.196t28.784 6.168q2.056 0 8.224 2.056 1.028 1.028 1.028 2.056l-1.028 2.056q-27.756 6.168-61.68 59.624t-42.148 90.464l-3.084 1.028q-2.056 0-7.196-11.308-10.28-23.644-30.84-42.148t-44.204-21.588h-1.028q-2.056 0-3.084 2.056t-3.084 3.084q-13.364 30.84-13.364 57.568 0 158.313 144.949 267.283z" />
<glyph unicode="&#xe81a;" glyph-name="wechat" horiz-adv-x="1173" d="M333.075 575.743q0 23.644-14.392 38.036t-38.036 14.392q-24.672 0-43.176-15.42t-19.532-37.008q0-22.616 19.532-37.008t43.176-14.392 38.036 13.364 14.392 38.036zM758.671 284.816q0 15.42-14.392 28.784t-37.008 12.336q-16.448 0-28.784-13.364t-13.364-27.756q0-16.448 13.364-28.784t28.784-13.364q22.616 0 37.008 12.336t14.392 29.812zM624.002 575.743q0 23.644-14.392 38.036t-38.036 14.392q-24.672 0-43.176-15.42t-18.504-37.008q0-22.616 18.504-37.008t43.176-14.392q23.644 0 38.036 13.364t14.392 38.036zM987.918 284.816q0 15.42-15.42 28.784t-37.008 12.336q-15.42 0-27.756-13.364t-13.364-27.756q0-16.448 13.364-28.784t27.756-13.364q22.616 0 37.008 12.336t15.42 29.812zM834.744 512.006q-17.476 3.084-40.092 3.084-96.632 0-177.846-44.204t-128.5-120.276-46.26-164.481q0-45.232 13.364-87.38-20.56-2.056-39.064-2.056-15.42 0-28.784 1.028t-31.868 4.112-25.7 4.112-30.84 6.168-28.784 5.14l-144.949-71.96 41.12 124.388q-166.537 117.192-166.537 281.675 0 96.632 55.512 177.846t152.145 128.5 208.686 46.26q100.744 0 190.182-37.008t150.089-104.856 78.128-150.089zM1175.014 190.24q0-66.82-39.064-127.472t-106.912-111.024l31.868-103.828-114.108 61.68q-86.352-20.56-125.416-20.56-96.632 0-177.846 40.092t-128.5 109.996-47.288 151.117 47.288 152.145 128.5 108.968 177.846 41.12q92.52 0 173.733-41.12t130.556-109.996 49.344-151.117z" />
<glyph unicode="&#xe81b;" glyph-name="weibo" d="M387.559 103.886q11.308 18.504 6.168 39.064t-25.7 28.784q-19.532 8.224-42.148 0t-33.924-25.7q-13.364-19.532-8.224-39.064t24.672-29.812 43.176-1.028 35.98 27.756zM441.016 172.763q5.14 7.196 2.056 15.42t-10.28 10.28q-7.196 3.084-16.448 0t-12.336-10.28q-9.252-18.504 8.224-26.728 8.224-2.056 16.448 1.028t12.336 10.28zM540.734 111.082q-25.7-58.596-90.464-85.324t-128.5-7.196q-61.68 19.532-84.296 72.988t3.084 106.912q27.756 53.456 87.38 80.184t120.276 10.28q63.736-16.448 91.492-67.848t1.028-109.996zM719.607 203.604q-5.14 54.484-50.372 96.632t-120.276 62.708-157.285 12.336q-127.472-13.364-211.77-81.212t-76.072-152.145q5.14-54.484 51.4-96.632t119.248-62.708 157.285-12.336q128.5 13.364 211.77 81.212t76.072 152.145zM896.425 200.52q0-39.064-20.56-79.156t-62.708-79.156-96.632-66.82-129.528-48.316-155.229-17.476-158.313 19.532-137.753 52.428-98.688 87.38-37.008 114.108q0 65.792 40.092 140.837t113.080 148.033q96.632 96.632 196.35 134.669t140.837-3.084q37.008-37.008 11.308-120.276-2.056-8.224 0-11.308t5.14-4.112 8.224 0 8.224 2.056l3.084 1.028q80.184 33.924 141.865 33.924t87.38-34.952q25.7-35.98 0-101.772-1.028-8.224-3.084-11.308t3.084-7.196 7.196-5.14 9.252-3.084q32.896-10.28 59.624-26.728t45.232-47.288 19.532-66.82zM854.276 559.295q23.644-27.756 30.84-62.708t-3.084-67.848q-5.14-12.336-17.476-19.532t-25.7-2.056q-12.336 5.14-19.532 17.476t-2.056 25.7q11.308 35.98-13.364 62.708t-61.68 20.56q-13.364-3.084-25.7 4.112t-14.392 21.588q-3.084 14.392 5.14 25.7t20.56 14.392q34.952 7.196 68.876-3.084t57.568-38.036zM958.106 652.844q49.344-55.512 64.764-128.5t-8.224-137.753q-5.14-16.448-19.532-23.644t-29.812-2.056-22.616 19.532-3.084 29.812q16.448 47.288 6.168 98.688t-46.26 90.464q-35.98 40.092-85.324 54.484t-98.688 5.14q-16.448-3.084-29.812 6.168t-17.476 24.672 5.14 29.812 25.7 16.448q69.904 14.392 139.809-6.168t119.248-77.1z" />
<glyph unicode="&#xe81c;" glyph-name="github" horiz-adv-x="882" d="M881.005 325.937q0-143.921-84.296-259.058t-216.91-159.341q-15.42-3.084-22.616 4.112t-7.196 17.476v121.304q0 55.512-29.812 81.212 32.896 3.084 58.596 10.28t54.484 22.616 46.26 38.036 30.84 59.624 11.308 86.352q0 69.904-45.232 118.22 21.588 52.428-5.14 117.192-15.42 5.14-46.26-6.168t-52.428-25.7l-21.588-13.364q-53.456 15.42-109.996 15.42t-111.024-15.42q-8.224 6.168-23.644 15.42t-48.316 22.616-49.344 7.196q-24.672-64.764-4.112-117.192-45.232-48.316-45.232-118.22 0-48.316 12.336-85.324t29.812-60.652 46.26-38.036 53.456-22.616 58.596-10.28q-22.616-20.56-27.756-59.624-12.336-5.14-25.7-8.224t-32.896-3.084-37.008 12.336-31.868 35.98q-11.308 18.504-27.756 29.812t-28.784 14.392l-11.308 1.028q-12.336 0-16.448-2.056t-3.084-7.196 5.14-8.224 7.196-6.168l4.112-3.084q12.336-6.168 24.672-21.588t18.504-29.812l5.14-13.364q8.224-21.588 25.7-34.952t38.036-17.476 40.092-4.112 31.868 2.056l13.364 3.084q0-22.616 0-51.4t1.028-30.84q0-10.28-8.224-17.476t-22.616-4.112q-132.613 44.204-216.91 159.341t-84.296 259.058q0 120.276 59.624 221.022t159.341 160.369 222.050 59.624 221.022-59.624 160.369-160.369 58.596-221.022z" />
<glyph unicode="&#xe81d;" glyph-name="html5" horiz-adv-x="808" d="M648.674 497.614l9.252 100.744h-507.836l26.728-306.347h351.579l-12.336-131.585-113.080-29.812-113.080 29.812-7.196 80.184h-100.744l13.364-159.341 207.658-56.54h2.056l205.602 56.54 28.784 312.515h-369.055l-9.252 103.828h387.559zM0 766.952h808.016l-74.016-825.492-331.019-92.52-329.991 92.52z" />
<glyph unicode="&#xe81e;" glyph-name="css3" d="M157.285 766.952h863.528l-152.145-764.839-461.576-153.173-399.896 153.173 40.092 203.546h170.649l-16.448-84.296 241.582-91.492 279.619 91.492 39.064 195.322h-693.907l33.924 169.621h692.879l22.616 109.996h-692.879z" />
<glyph unicode="&#xe81f;" glyph-name="male" horiz-adv-x="1020" d="M0 180.988q0 153.173 107.94 261.114t261.114 108.968q108.968 0 201.49-58.596l204.574 204.574h-156.257v142.893h400.924v-401.952h-143.921v155.229l-201.49-203.546q64.764-93.548 64.764-208.686 0-152.145-108.968-261.114t-262.142-107.94-260.086 107.94-107.94 261.114zM149.061 182.016q0-90.464 63.736-156.257t155.229-64.764 157.285 64.764 64.764 156.257-64.764 156.257-157.285 63.736-155.229-63.736-63.736-156.257z" />
<glyph unicode="&#xe820;" glyph-name="female" horiz-adv-x="662" d="M0 508.922q0 136.725 96.632 233.358t232.33 97.66 234.386-97.66 97.66-233.358q0-119.248-77.1-209.714t-190.182-114.108v-105.884h140.837v-126.444h-140.837v-140.837h-126.444v140.837h-142.893v126.444h142.893v105.884q-115.136 22.616-191.21 114.108t-76.072 209.714zM130.556 508.922q0-82.24 58.596-140.837t139.809-58.596 140.837 58.596 58.596 140.837-58.596 140.837-140.837 57.568-139.809-57.568-58.596-140.837z" />
<glyph unicode="&#xe821;" glyph-name="plus" horiz-adv-x="808" d="M808.016 417.429v-109.996q0-22.616-16.448-39.064t-39.064-15.42h-238.498v-239.526q0-22.616-16.448-38.036t-39.064-16.448h-109.996q-22.616 0-39.064 16.448t-15.42 38.036v239.526h-238.498q-23.644 0-39.064 15.42t-16.448 39.064v109.996q0 23.644 16.448 39.064t39.064 16.448h238.498v238.498q0 22.616 15.42 39.064t39.064 16.448h109.996q23.644 0 39.064-16.448t16.448-39.064v-238.498h238.498q22.616 0 39.064-16.448t16.448-39.064z" />
<glyph unicode="&#xe822;" glyph-name="minus" horiz-adv-x="808" d="M808.016 417.429v-109.996q0-22.616-16.448-39.064t-39.064-15.42h-696.991q-23.644 0-39.064 15.42t-16.448 39.064v109.996q0 23.644 16.448 39.064t39.064 16.448h696.991q22.616 0 39.064-16.448t16.448-39.064z" />
<glyph unicode="&#xe823;" glyph-name="ok" d="M958.106 515.090q0-22.616-15.42-39.064l-493.444-493.444q-16.448-15.42-39.064-15.42t-39.064 15.42l-285.787 285.787q-15.42 16.448-15.42 39.064t15.42 39.064l78.128 78.128q16.448 16.448 39.064 16.448t39.064-16.448l168.593-169.621 376.251 377.279q16.448 16.448 39.064 16.448t39.064-16.448l78.128-78.128q15.42-16.448 15.42-39.064z" />
<glyph unicode="&#xe824;" glyph-name="cancel" horiz-adv-x="808" d="M744.279 81.27q0-22.616-15.42-39.064l-78.128-78.128q-16.448-15.42-39.064-15.42t-39.064 15.42l-168.593 169.621-168.593-169.621q-16.448-15.42-39.064-15.42t-39.064 15.42l-78.128 78.128q-16.448 16.448-16.448 39.064t16.448 39.064l168.593 168.593-168.593 168.593q-16.448 16.448-16.448 39.064t16.448 39.064l78.128 78.128q16.448 16.448 39.064 16.448t39.064-16.448l168.593-168.593 168.593 168.593q16.448 16.448 39.064 16.448t39.064-16.448l78.128-78.128q15.42-15.42 15.42-39.064t-15.42-39.064l-168.593-168.593 168.593-168.593q15.42-15.42 15.42-39.064z" />
<glyph unicode="&#xe825;" glyph-name="yen" horiz-adv-x="591" d="M346.439-41.063h-98.688q-8.224 0-13.364 5.14t-5.14 13.364v189.154h-165.509q-7.196 0-13.364 5.14t-5.14 13.364v58.596q0 7.196 5.14 13.364t13.364 5.14h165.509v49.344h-165.509q-7.196 0-13.364 5.14t-5.14 12.336v59.624q0 8.224 5.14 13.364t13.364 5.14h122.332l-184.014 332.047q-4.112 9.252 0 18.504 6.168 9.252 16.448 9.252h111.024q11.308 0 16.448-10.28l123.36-244.666q11.308-21.588 32.896-70.932 5.14 13.364 17.476 38.036t15.42 35.98l109.996 240.554q4.112 11.308 16.448 11.308h108.968q10.28 0 15.42-9.252 5.14-8.224 1.028-18.504l-179.902-332.047h123.36q7.196 0 13.364-5.14t5.14-13.364v-59.624q0-7.196-5.14-12.336t-13.364-5.14h-166.537v-49.344h166.537q7.196 0 13.364-5.14t5.14-13.364v-58.596q0-8.224-5.14-13.364t-13.364-5.14h-166.537v-189.154q0-8.224-5.14-13.364t-12.336-5.14z" />
<glyph unicode="&#xe826;" glyph-name="window" horiz-adv-x="1121" d="M1121.558 839.941v-653.814h-280.647v-374.195h-840.912v653.814h280.647v374.195h840.912zM840.912 279.676h187.098v373.167h-653.814v-187.098h466.716v-186.070zM93.548-94.52h653.814v374.195h-653.814v-374.195z" />
<glyph unicode="&#xe827;" glyph-name="play" horiz-adv-x="808" d="M793.624 308.46l-761.755-423.54q-13.364-7.196-22.616-2.056t-9.252 20.56v845.024q0 14.392 9.252 20.56t22.616-2.056l761.755-423.54q13.364-7.196 13.364-17.476t-13.364-17.476z" />
<glyph unicode="&#xe828;" glyph-name="skin" d="M1004.366 633.312l-161.397 128.5q-17.476 14.392-40.092 14.392h-585.966l-6.168-2.056q-4.112 0-7.196-2.056t-7.196-3.084-5.14-3.084l-6.168-4.112-161.397-128.5q-15.42-13.364-21.588-31.868t1.028-38.036l63.736-193.266q3.084-7.196 7.196-13.364t9.252-11.308 11.308-9.252 13.364-7.196q10.28-3.084 20.56-3.084 17.476 0 31.868 9.252v-394.756q0-25.7 19.532-45.232t45.232-19.532h577.742q26.728 0 45.232 19.532t19.532 45.232v394.756q14.392-9.252 31.868-9.252 11.308 0 21.588 3.084 29.812 11.308 40.092 41.12l63.736 193.266q6.168 18.504 1.028 38.036t-21.588 31.868zM634.282 711.44q-12.336-27.756-46.26-46.26t-74.016-17.476-74.016 17.476-46.26 46.26h240.554zM899.509 390.701l-96.632 63.736v-514.004h-577.742v514.004l-96.632-63.736-63.736 192.238 160.369 128.5h134.669q12.336-42.148 55.512-68.876t98.688-27.756q26.728 0 52.428 8.224t46.26 19.532 34.952 29.812 20.56 39.064h134.669l161.397-128.5z" />
<glyph unicode="&#xe829;" glyph-name="layout" d="M0-111.996l951.938 951.938 76.072-76.072-951.938-951.938zM0 309.488v241.582h240.554v-241.582h-240.554zM0 597.332v240.554h240.554v-240.554h-240.554zM282.703 309.488v241.582h241.582zM282.703 597.332v240.554h241.582v-240.554h-241.582zM526.342-186.013v134.669h501.668v-134.669h-501.668zM526.342-13.307v134.669h501.668v-134.669h-501.668zM558.21 159.398l149.061 134.669h320.739v-134.669h-469.8z" />
<glyph unicode="&#xe82a;" glyph-name="row4" d="M1028.010 839.941v-164.481h-1028.010v164.481h1028.010zM1028.010 552.099v-164.481h-1028.010v164.481h1028.010zM1028.010 264.256v-164.481h-1028.010v164.481h1028.010zM1028.010-23.587v-164.481h-1028.010v164.481h1028.010z" />
<glyph unicode="&#xe82b;" glyph-name="col4" d="M1028.010 839.941h-164.481v-1028.010h164.481v1028.010zM740.167 839.941h-164.481v-1028.010h164.481v1028.010zM452.324 839.941h-164.481v-1028.010h164.481v1028.010zM164.481 839.941h-164.481v-1028.010h164.481v1028.010z" />
<glyph unicode="&#xe82c;" glyph-name="cor4" d="M1028.010 839.941v-452.324h-452.324v452.324h452.324zM699.047 510.978h205.602v205.602h-205.602v-205.602zM452.324 839.941v-452.324h-452.324v452.324h452.324zM123.36 510.978h205.602v205.602h-205.602v-205.602zM1028.010 264.256v-452.324h-452.324v452.324h452.324zM699.047-64.707h205.602v205.602h-205.602v-205.602zM452.324 264.256v-452.324h-452.324v452.324h452.324zM123.36-64.707h205.602v205.602h-205.602v-205.602z" />
<glyph unicode="&#xe82d;" glyph-name="lib" horiz-adv-x="659" d="M534.566 89.494q51.4 0 87.38-35.98t35.98-87.38-35.98-87.38-87.38-35.98q-82.24 0-113.080 76.072h-168.593q-90.464 0-134.669 55.512t-44.204 121.304v476.996q-74.016 34.952-74.016 113.080 0 51.4 35.98 87.38t87.38 35.98 87.38-35.98 35.98-87.38q0-78.128-74.016-113.080v-117.192q0-80.184 80.184-80.184h168.593q30.84 74.016 113.080 74.016 51.4 0 87.38-35.98t35.98-87.38-35.98-87.38-87.38-35.98q-82.24 0-113.080 76.072h-168.593q-43.176 0-80.184 16.448v-199.434q0-80.184 80.184-80.184h168.593q30.84 74.016 113.080 74.016zM534.566 397.897q-28.784 0-50.372-20.56t-21.588-51.4q0-28.784 21.588-49.344t50.372-20.56 50.372 20.56 21.588 49.344q0 30.84-21.588 51.4t-50.372 20.56zM51.4 685.74q0-28.784 21.588-49.344t50.372-20.56 50.372 20.56 21.588 49.344q0 30.84-21.588 51.4t-50.372 20.56-50.372-20.56-21.588-51.4zM534.566-103.772q28.784 0 50.372 20.56t21.588 49.344q0 30.84-21.588 51.4t-50.372 20.56-50.372-20.56-21.588-51.4q0-28.784 21.588-49.344t50.372-20.56z" />
<glyph unicode="&#xe82e;" glyph-name="auto" horiz-adv-x="882" d="M866.612 234.444q0-3.084 0-4.112-37.008-154.201-154.201-249.806t-274.479-95.604q-83.268 0-161.397 31.868t-139.809 90.464l-74.016-74.016q-11.308-11.308-25.7-11.308t-25.7 11.308-11.308 25.7v257.002q0 14.392 11.308 25.7t25.7 11.308h257.002q14.392 0 25.7-11.308t10.28-25.7-10.28-25.7l-79.156-79.156q41.12-38.036 92.52-58.596t107.94-20.56q76.072 0 142.893 38.036t106.912 101.772q6.168 10.28 29.812 67.848 5.14 13.364 17.476 13.364h109.996q8.224 0 13.364-6.168t5.14-12.336zM881.005 692.936v-257.002q0-14.392-10.28-25.7t-26.728-11.308h-257.002q-14.392 0-25.7 11.308t-10.28 25.7 10.28 25.7l79.156 79.156q-84.296 79.156-199.434 79.156-77.1 0-143.921-38.036t-106.912-101.772q-6.168-10.28-29.812-67.848-5.14-13.364-17.476-13.364h-114.108q-7.196 0-13.364 6.168t-5.14 12.336v4.112q37.008 154.201 155.229 249.806t275.507 95.604q83.268 0 162.425-31.868t140.837-90.464l74.016 74.016q11.308 11.308 25.7 11.308t26.728-11.308 10.28-25.7z" />
<glyph unicode="&#xe82f;" glyph-name="save" horiz-adv-x="882" d="M219.994-41.063h441.016v219.994h-441.016v-219.994zM733.999-41.063h74.016v514.004q0 8.224-6.168 21.588t-11.308 20.56l-161.397 160.369q-5.14 6.168-19.532 12.336t-22.616 5.14v-238.498q0-22.616-15.42-39.064t-39.064-16.448h-331.019q-22.616 0-38.036 16.448t-16.448 39.064v238.498h-74.016v-733.999h74.016v238.498q0 22.616 16.448 39.064t38.036 16.448h478.024q22.616 0 39.064-16.448t15.42-39.064v-238.498zM514.004 491.446v182.986q0 8.224-5.14 13.364t-13.364 5.14h-109.996q-7.196 0-13.364-5.14t-5.14-13.364v-182.986q0-8.224 5.14-13.364t13.364-5.14h109.996q7.196 0 13.364 5.14t5.14 13.364zM881.005 472.942v-532.51q0-22.616-15.42-39.064t-39.064-16.448h-771.007q-23.644 0-39.064 16.448t-16.448 39.064v771.007q0 22.616 16.448 39.064t39.064 16.448h531.482q23.644 0 51.4-12.336t43.176-26.728l160.369-161.397q16.448-15.42 27.756-43.176t11.308-50.372z" />
<glyph unicode="&#xe830;" glyph-name="file-code" horiz-adv-x="882" d="M841.94 622.004q16.448-16.448 27.756-43.176t11.308-51.4v-659.983q0-23.644-15.42-39.064t-39.064-16.448h-771.007q-23.644 0-39.064 16.448t-16.448 39.064v916.985q0 23.644 16.448 39.064t39.064 16.448h514.004q22.616 0 50.372-11.308t43.176-27.756zM586.994 761.812v-215.882h215.882q-5.14 16.448-12.336 23.644l-179.902 179.902q-6.168 7.196-23.644 12.336zM808.016-115.080v588.022h-238.498q-23.644 0-39.064 15.42t-16.448 39.064v239.526h-441.016v-882.033h735.027zM275.507 398.925q4.112 7.196 12.336 7.196t13.364-3.084l28.784-21.588q7.196-5.14 7.196-12.336t-3.084-14.392l-104.856-138.781 104.856-139.809q4.112-6.168 3.084-13.364t-7.196-12.336l-28.784-21.588q-6.168-4.112-13.364-4.112t-12.336 7.196l-129.528 172.705q-8.224 11.308 0 21.588zM735.027 226.22q8.224-10.28 0-21.588l-129.528-172.705q-4.112-6.168-11.308-7.196t-14.392 4.112l-28.784 21.588q-6.168 5.14-7.196 12.336t3.084 13.364l104.856 139.809-104.856 138.781q-4.112 7.196-3.084 14.392t7.196 12.336l28.784 21.588q6.168 4.112 14.392 3.084t11.308-7.196zM379.335-37.979q-7.196 1.028-11.308 7.196t-3.084 14.392l79.156 476.996q1.028 7.196 7.196 11.308t14.392 3.084l35.98-5.14q7.196-2.056 11.308-8.224t3.084-13.364l-79.156-476.996q-1.028-7.196-7.196-11.308t-13.364-3.084z" />
<glyph unicode="&#xe831;" glyph-name="code" horiz-adv-x="1101" d="M353.635 37.065l-28.784-28.784q-5.14-5.14-12.336-5.14t-13.364 5.14l-267.283 267.283q-6.168 6.168-6.168 13.364t6.168 13.364l267.283 267.283q5.14 6.168 13.364 6.168t12.336-6.168l28.784-28.784q6.168-5.14 6.168-13.364t-6.168-12.336l-225.134-226.162 225.134-225.134q6.168-6.168 6.168-13.364t-6.168-13.364zM692.879 649.76l-213.826-741.195q-2.056-7.196-9.252-11.308t-13.364-1.028l-34.952 9.252q-8.224 3.084-11.308 9.252t-2.056 14.392l213.826 740.167q3.084 8.224 9.252 11.308t13.364 2.056l35.98-10.28q7.196-2.056 11.308-9.252t1.028-13.364zM1070.158 275.564l-267.283-267.283q-6.168-5.14-13.364-5.14t-13.364 5.14l-28.784 28.784q-5.14 6.168-5.14 13.364t5.14 13.364l225.134 225.134-225.134 226.162q-5.14 5.14-5.14 12.336t5.14 13.364l28.784 28.784q6.168 6.168 13.364 6.168t13.364-6.168l267.283-267.283q5.14-5.14 5.14-13.364t-5.14-13.364z" />
<glyph unicode="&#xe832;" glyph-name="search" horiz-adv-x="954" d="M661.011 362.945q0 105.884-76.072 180.93t-180.93 76.072-181.958-76.072-75.044-180.93 75.044-181.958 181.958-75.044 180.93 75.044 76.072 181.958zM955.022-115.080q0-29.812-22.616-51.4t-51.4-21.588q-30.84 0-51.4 21.588l-196.35 196.35q-102.8-70.932-229.246-70.932-82.24 0-157.285 31.868t-128.5 86.352-86.352 128.5-31.868 157.285 31.868 156.257 86.352 129.528 128.5 86.352 157.285 31.868 156.257-31.868 129.528-86.352 86.352-129.528 31.868-156.257q0-126.444-70.932-229.246l196.35-196.35q21.588-21.588 21.588-52.428z" />
<glyph unicode="&#xe833;" glyph-name="filter" horiz-adv-x="808" d="M804.932 670.32q9.252-23.644-8.224-40.092l-282.703-282.703v-425.596q0-23.644-22.616-33.924-7.196-3.084-14.392-3.084-15.42 0-25.7 11.308l-147.005 147.005q-10.28 10.28-10.28 25.7v278.591l-282.703 282.703q-18.504 16.448-8.224 40.092 9.252 22.616 33.924 22.616h733.999q23.644 0 33.924-22.616z" />
<glyph unicode="&#xe834;" glyph-name="edit" d="M509.892 160.426l65.792 66.82-87.38 87.38-65.792-66.82v-31.868h54.484v-55.512h32.896zM761.755 573.687q-9.252 9.252-18.504 0l-201.49-201.49q-9.252-9.252 0-18.504t18.504 0l201.49 201.49q9.252 9.252 0 18.504zM808.016 233.416v-108.968q0-68.876-48.316-117.192t-117.192-48.316h-476.996q-68.876 0-117.192 48.316t-48.316 117.192v476.996q0 67.848 48.316 116.164t117.192 49.344h476.996q35.98 0 66.82-14.392 9.252-4.112 10.28-13.364 2.056-10.28-5.14-16.448l-27.756-28.784q-8.224-8.224-18.504-4.112-13.364 3.084-25.7 3.084h-476.996q-38.036 0-64.764-26.728t-27.756-64.764v-476.996q0-38.036 27.756-64.764t64.764-27.756h476.996q38.036 0 64.764 27.756t26.728 64.764v71.96q0 7.196 5.14 12.336l37.008 37.008q8.224 8.224 20.56 4.112t11.308-16.448zM752.503 655.928l165.509-164.481-385.503-385.503h-165.509v164.481zM1007.45 580.884l-52.428-53.456-165.509 165.509 52.428 52.428q16.448 16.448 39.064 16.448t39.064-16.448l87.38-86.352q16.448-16.448 16.448-39.064t-16.448-39.064z" />
<glyph unicode="&#xe835;" glyph-name="folder" horiz-adv-x="1101" d="M1021.842 305.376q0 20.56-30.84 20.56h-624.002q-22.616 0-49.344-12.336t-40.092-29.812l-168.593-208.686q-11.308-13.364-11.308-22.616 0-20.56 30.84-20.56h624.002q22.616 0 49.344 13.364t41.12 29.812l168.593 208.686q10.28 12.336 10.28 21.588zM366.999 398.925h441.016v92.52q0 22.616-16.448 39.064t-39.064 15.42h-329.991q-23.644 0-39.064 16.448t-16.448 39.064v37.008q0 22.616-15.42 39.064t-39.064 15.42h-184.014q-22.616 0-39.064-15.42t-16.448-39.064v-489.332l147.005 179.902q25.7 30.84 66.82 50.372t80.184 19.532zM1094.83 305.376q0-34.952-25.7-67.848l-169.621-208.686q-24.672-30.84-66.82-50.372t-80.184-19.532h-624.002q-52.428 0-90.464 38.036t-38.036 90.464v551.014q0 52.428 38.036 90.464t90.464 38.036h184.014q52.428 0 90.464-38.036t38.036-90.464v-18.504h311.487q52.428 0 90.464-38.036t38.036-90.464v-92.52h109.996q30.84 0 57.568-13.364t38.036-41.12q8.224-17.476 8.224-39.064z" />
<glyph unicode="&#xe836;" glyph-name="tags" horiz-adv-x="1101" d="M257.002 582.94q0 30.84-21.588 52.428t-51.4 20.56-52.428-20.56-21.588-52.428 21.588-51.4 52.428-21.588 51.4 21.588 21.588 51.4zM868.668 252.948q0-30.84-20.56-52.428l-281.675-281.675q-22.616-21.588-52.428-21.588-30.84 0-51.4 21.588l-410.176 410.176q-21.588 21.588-37.008 58.596t-15.42 66.82v238.498q0 29.812 21.588 51.4t51.4 22.616h239.526q29.812 0 66.82-15.42t58.596-37.008l410.176-410.176q20.56-21.588 20.56-51.4zM1089.69 252.948q0-30.84-21.588-52.428l-281.675-281.675q-22.616-21.588-52.428-21.588-20.56 0-33.924 8.224t-29.812 25.7l269.339 269.339q21.588 21.588 21.588 52.428 0 29.812-21.588 51.4l-410.176 410.176q-21.588 21.588-58.596 37.008t-66.82 15.42h128.5q29.812 0 66.82-15.42t58.596-37.008l410.176-410.176q21.588-21.588 21.588-51.4z" />
<glyph unicode="&#xe837;" glyph-name="settle" horiz-adv-x="882" d="M586.994 325.937q0 60.652-42.148 103.828t-103.828 43.176-103.828-43.176-43.176-103.828 43.176-103.828 103.828-43.176 103.828 43.176 42.148 103.828zM881.005 388.645v-127.472q0-7.196-4.112-13.364t-11.308-7.196l-106.912-16.448q-10.28-30.84-21.588-52.428 19.532-27.756 60.652-79.156 6.168-6.168 6.168-13.364t-5.14-13.364q-15.42-21.588-56.54-62.708t-54.484-40.092q-7.196 0-14.392 5.14l-79.156 61.68q-25.7-13.364-52.428-21.588-9.252-78.128-16.448-106.912-4.112-16.448-20.56-16.448h-127.472q-8.224 0-14.392 5.14t-6.168 12.336l-16.448 105.884q-27.756 9.252-51.4 21.588l-81.212-61.68q-6.168-5.14-14.392-5.14t-14.392 6.168q-71.96 65.792-94.576 96.632-4.112 5.14-4.112 13.364 0 6.168 5.14 12.336 8.224 12.336 28.784 38.036t30.84 41.12q-15.42 28.784-23.644 56.54l-104.856 15.42q-7.196 1.028-11.308 7.196t-5.14 13.364v127.472q0 7.196 5.14 13.364t10.28 7.196l106.912 16.448q8.224 25.7 22.616 52.428-23.644 32.896-61.68 79.156-6.168 7.196-6.168 14.392 0 5.14 5.14 12.336 15.42 20.56 56.54 61.68t54.484 41.12q7.196 0 15.42-5.14l79.156-61.68q24.672 13.364 51.4 21.588 9.252 78.128 17.476 106.912 3.084 15.42 20.56 15.42h127.472q7.196 0 13.364-4.112t7.196-12.336l15.42-105.884q28.784-9.252 51.4-21.588l82.24 61.68q5.14 5.14 13.364 5.14 7.196 0 14.392-5.14 74.016-68.876 94.576-97.66 4.112-5.14 4.112-13.364 0-6.168-4.112-12.336-9.252-12.336-29.812-39.064t-30.84-40.092q14.392-28.784 23.644-56.54l104.856-15.42q7.196-1.028 12.336-7.196t4.112-13.364z" />
<glyph unicode="&#xe838;" glyph-name="warming" d="M586.994 51.458v108.968q0 8.224-5.14 13.364t-12.336 5.14h-111.024q-7.196 0-12.336-5.14t-5.14-13.364v-108.968q0-8.224 5.14-13.364t12.336-6.168h111.024q7.196 0 12.336 6.168t5.14 13.364zM585.966 265.284l10.28 264.199q0 6.168-5.14 10.28-7.196 6.168-14.392 6.168h-125.416q-7.196 0-14.392-6.168-5.14-4.112-5.14-12.336l9.252-262.142q0-5.14 6.168-9.252t13.364-3.084h105.884q8.224 0 13.364 3.084t6.168 9.252zM578.77 801.904l439.988-808.016q20.56-35.98-1.028-71.96-10.28-17.476-26.728-26.728t-35.98-10.28h-882.033q-18.504 0-35.98 10.28t-26.728 26.728q-21.588 35.98-1.028 71.96l441.016 808.016q9.252 17.476 26.728 27.756t37.008 10.28 37.008-10.28 27.756-27.756z" />
<glyph unicode="&#xe839;" glyph-name="home" horiz-adv-x="954" d="M808.016 270.424v-274.479q0-15.42-11.308-26.728t-25.7-10.28h-219.994v219.994h-147.005v-219.994h-219.994q-15.42 0-25.7 10.28t-11.308 26.728v274.479q0 1.028 0 2.056t0 2.056l329.991 271.395 329.991-271.395q1.028-1.028 1.028-4.112zM935.49 310.516l-34.952-42.148q-5.14-5.14-12.336-6.168h-2.056q-7.196 0-12.336 3.084l-396.812 331.019-396.812-331.019q-7.196-4.112-13.364-4.112-7.196 2.056-12.336 7.196l-35.98 42.148q-4.112 5.14-3.084 13.364t6.168 12.336l412.232 343.355q18.504 15.42 43.176 15.42t44.204-15.42l139.809-117.192v112.052q0 8.224 5.14 13.364t13.364 5.14h109.996q8.224 0 13.364-5.14t5.14-13.364v-233.358l125.416-104.856q5.14-5.14 6.168-12.336t-4.112-13.364z" />
<glyph unicode="&#xe83a;" glyph-name="user" horiz-adv-x="808" d="M808.016 33.981q0-68.876-42.148-108.968t-111.024-40.092h-501.668q-68.876 0-111.024 40.092t-42.148 108.968q0 30.84 2.056 59.624t8.224 62.708 15.42 61.68 24.672 56.54 34.952 46.26 49.344 30.84 63.736 11.308q5.14 0 24.672-12.336t42.148-27.756 61.68-27.756 77.1-12.336 76.072 12.336 62.708 27.756 42.148 27.756 24.672 12.336q34.952 0 63.736-11.308t49.344-30.84 34.952-46.26 24.672-56.54 15.42-61.68 8.224-62.708 2.056-59.624zM624.002 545.931q0-90.464-64.764-155.229t-155.229-64.764-156.257 64.764-63.736 155.229 63.736 156.257 156.257 64.764 155.229-64.764 64.764-156.257z" />
<glyph unicode="&#xe83b;" glyph-name="group" horiz-adv-x="1101" d="M340.271 325.937q-92.52-3.084-152.145-72.988h-77.1q-46.26 0-79.156 22.616t-31.868 67.848q0 202.518 70.932 202.518 4.112 0 25.7-11.308t55.512-24.672 67.848-12.336q39.064 0 77.1 13.364-3.084-21.588-3.084-38.036 0-80.184 46.26-147.005zM955.022-40.035q0-67.848-42.148-107.94t-111.024-40.092h-501.668q-69.904 0-111.024 40.092t-42.148 107.94q0 30.84 2.056 59.624t8.224 62.708 14.392 62.708 24.672 55.512 35.98 46.26 49.344 30.84 63.736 11.308q6.168 0 24.672-12.336t42.148-26.728 60.652-27.756 78.128-12.336 77.1 12.336 61.68 27.756 42.148 26.728 23.644 12.336q35.98 0 64.764-11.308t48.316-30.84 35.98-46.26 24.672-55.512 15.42-62.708 8.224-62.708 2.056-59.624zM366.999 692.936q0-60.652-43.176-103.828t-103.828-43.176-103.828 43.176-43.176 103.828 43.176 103.828 103.828 43.176 103.828-43.176 43.176-103.828zM771.007 472.942q0-91.492-64.764-156.257t-155.229-63.736-156.257 63.736-64.764 156.257 64.764 155.229 156.257 64.764 155.229-64.764 64.764-155.229zM1100.998 343.413q0-44.204-31.868-67.848t-79.156-22.616h-77.1q-58.596 69.904-151.117 72.988 46.26 66.82 46.26 147.005 0 16.448-3.084 38.036 38.036-13.364 76.072-13.364 33.924 0 68.876 12.336t55.512 24.672 24.672 11.308q70.932 0 70.932-202.518zM1028.010 692.936q0-60.652-43.176-103.828t-103.828-43.176-103.828 43.176-43.176 103.828 43.176 103.828 103.828 43.176 103.828-43.176 43.176-103.828z" />
<glyph unicode="&#xe83c;" glyph-name="copyright" horiz-adv-x="882" d="M659.983 224.164v-62.708q0-28.784-21.588-51.4t-53.456-34.952-67.848-18.504-66.82-6.168q-118.22 0-197.378 80.184t-78.128 198.406q0 116.164 78.128 194.294t194.294 78.128q19.532 0 43.176-3.084t53.456-10.28 52.428-19.532 40.092-31.868 15.42-46.26v-62.708q0-9.252-8.224-9.252h-67.848q-9.252 0-9.252 9.252v40.092q0 24.672-38.036 39.064t-78.128 13.364q-81.212 0-131.585-52.428t-50.372-135.697q0-87.38 52.428-143.921t133.641-56.54q39.064 0 79.156 14.392t40.092 38.036v40.092q0 4.112 3.084 6.168t5.14 3.084h68.876q3.084 0 6.168-3.084t3.084-6.168zM441.016 692.936q-75.044 0-142.893-28.784t-117.192-78.128-78.128-117.192-29.812-142.893 29.812-142.893 78.128-116.164 117.192-79.156 142.893-28.784 141.865 28.784 117.192 79.156 78.128 116.164 29.812 142.893-29.812 142.893-78.128 117.192-117.192 78.128-141.865 28.784zM881.005 325.937q0-120.276-58.596-221.022t-160.369-160.369-221.022-59.624-222.050 59.624-159.341 160.369-59.624 221.022 59.624 221.022 159.341 160.369 222.050 59.624 221.022-59.624 160.369-160.369 58.596-221.022z" />
<glyph unicode="&#xe83d;" glyph-name="talk" d="M404.008 619.948q-87.38 0-164.481-29.812t-121.304-81.212-45.232-109.996q0-46.26 30.84-90.464t85.324-75.044l55.512-32.896-19.532-47.288q19.532 11.308 34.952 21.588l25.7 18.504 30.84-6.168q44.204-8.224 87.38-8.224 87.38 0 163.453 29.812t121.304 81.212 45.232 108.968-45.232 109.996-121.304 81.212-163.453 29.812zM404.008 692.936q108.968 0 202.518-39.064t147.005-106.912 54.484-148.033-54.484-147.005-147.005-106.912-202.518-39.064q-49.344 0-100.744 9.252-71.96-50.372-159.341-74.016-21.588-5.14-49.344-9.252h-2.056q-6.168 0-12.336 5.14t-6.168 12.336q-1.028 1.028-1.028 3.084t1.028 4.112 1.028 3.084l1.028 3.084t2.056 3.084 2.056 3.084 3.084 3.084 2.056 2.056q3.084 3.084 13.364 14.392t15.42 16.448 12.336 17.476 14.392 21.588 11.308 25.7q-70.932 41.12-111.024 100.744t-41.12 128.5q0 80.184 54.484 148.033t147.005 106.912 202.518 39.064zM875.865 22.673q5.14-14.392 11.308-25.7t14.392-21.588 13.364-16.448 14.392-17.476 13.364-14.392q0 0 2.056-2.056t3.084-3.084 2.056-3.084 2.056-3.084l1.028-3.084t1.028-3.084 1.028-4.112-1.028-3.084q-2.056-8.224-7.196-13.364t-13.364-4.112q-27.756 4.112-49.344 9.252-87.38 23.644-159.341 74.016-51.4-9.252-100.744-9.252-155.229 0-270.367 76.072 32.896-3.084 50.372-3.084 92.52 0 176.818 25.7t152.145 74.016q70.932 53.456 109.996 122.332t38.036 144.949q0 44.204-13.364 87.38 74.016-40.092 117.192-101.772t43.176-131.585q0-68.876-41.12-129.528t-111.024-100.744z" />
<glyph unicode="&#xe83e;" glyph-name="calendar" horiz-adv-x="954" d="M72.988-115.080h808.016v588.022h-808.016v-588.022zM294.011 582.94v165.509q0 8.224-5.14 13.364t-13.364 5.14h-37.008q-8.224 0-13.364-5.14t-5.14-13.364v-165.509q0-8.224 5.14-13.364t13.364-5.14h37.008q8.224 0 13.364 5.14t5.14 13.364zM733.999 582.94v165.509q0 8.224-5.14 13.364t-13.364 5.14h-35.98q-8.224 0-13.364-5.14t-5.14-13.364v-165.509q0-8.224 5.14-13.364t13.364-5.14h35.98q8.224 0 13.364 5.14t5.14 13.364zM955.022 619.948v-735.027q0-29.812-22.616-51.4t-51.4-21.588h-808.016q-29.812 0-51.4 21.588t-21.588 51.4v735.027q0 29.812 21.588 51.4t51.4 21.588h74.016v55.512q0 37.008 26.728 64.764t64.764 26.728h37.008q38.036 0 64.764-26.728t26.728-64.764v-55.512h219.994v55.512q0 37.008 27.756 64.764t64.764 26.728h35.98q38.036 0 64.764-26.728t27.756-64.764v-55.512h72.988q29.812 0 51.4-21.588t22.616-51.4z" />
<glyph unicode="&#xe83f;" glyph-name="document" horiz-adv-x="882" d="M841.94 622.004q16.448-16.448 27.756-43.176t11.308-51.4v-659.983q0-23.644-15.42-39.064t-39.064-16.448h-771.007q-23.644 0-39.064 16.448t-16.448 39.064v916.985q0 23.644 16.448 39.064t39.064 16.448h514.004q22.616 0 50.372-11.308t43.176-27.756zM586.994 761.812v-215.882h215.882q-5.14 16.448-12.336 23.644l-179.902 179.902q-6.168 7.196-23.644 12.336zM808.016-115.080v588.022h-238.498q-23.644 0-39.064 15.42t-16.448 39.064v239.526h-441.016v-882.033h735.027zM219.994 381.449q0 7.196 5.14 12.336t13.364 5.14h404.008q8.224 0 13.364-5.14t5.14-12.336v-37.008q0-8.224-5.14-13.364t-13.364-5.14h-404.008q-8.224 0-13.364 5.14t-5.14 13.364v37.008zM642.506 252.948q8.224 0 13.364-5.14t5.14-13.364v-37.008q0-8.224-5.14-13.364t-13.364-5.14h-404.008q-8.224 0-13.364 5.14t-5.14 13.364v37.008q0 8.224 5.14 13.364t13.364 5.14h404.008zM642.506 105.942q8.224 0 13.364-5.14t5.14-13.364v-37.008q0-8.224-5.14-13.364t-13.364-5.14h-404.008q-8.224 0-13.364 5.14t-5.14 13.364v37.008q0 8.224 5.14 13.364t13.364 5.14h404.008z" />
<glyph unicode="&#xe840;" glyph-name="editor" horiz-adv-x="1101" d="M219.994 169.678v-54.484q0-9.252-9.252-9.252h-54.484q-9.252 0-9.252 9.252v54.484q0 9.252 9.252 9.252h54.484q9.252 0 9.252-9.252zM294.011 316.685v-54.484q0-9.252-9.252-9.252h-128.5q-9.252 0-9.252 9.252v54.484q0 9.252 9.252 9.252h128.5q9.252 0 9.252-9.252zM219.994 463.69v-55.512q0-9.252-9.252-9.252h-54.484q-9.252 0-9.252 9.252v55.512q0 9.252 9.252 9.252h54.484q9.252 0 9.252-9.252zM808.016 169.678v-54.484q0-9.252-9.252-9.252h-495.5q-9.252 0-9.252 9.252v54.484q0 9.252 9.252 9.252h495.5q9.252 0 9.252-9.252zM441.016 316.685v-54.484q0-9.252-9.252-9.252h-55.512q-9.252 0-9.252 9.252v54.484q0 9.252 9.252 9.252h55.512q9.252 0 9.252-9.252zM366.999 463.69v-55.512q0-9.252-9.252-9.252h-54.484q-9.252 0-9.252 9.252v55.512q0 9.252 9.252 9.252h54.484q9.252 0 9.252-9.252zM586.994 316.685v-54.484q0-9.252-8.224-9.252h-55.512q-9.252 0-9.252 9.252v54.484q0 9.252 9.252 9.252h55.512q8.224 0 8.224-9.252zM514.004 463.69v-55.512q0-9.252-9.252-9.252h-54.484q-9.252 0-9.252 9.252v55.512q0 9.252 9.252 9.252h54.484q9.252 0 9.252-9.252zM733.999 316.685v-54.484q0-9.252-9.252-9.252h-54.484q-9.252 0-9.252 9.252v54.484q0 9.252 9.252 9.252h54.484q9.252 0 9.252-9.252zM955.022 169.678v-54.484q0-9.252-9.252-9.252h-55.512q-9.252 0-9.252 9.252v54.484q0 9.252 9.252 9.252h55.512q9.252 0 9.252-9.252zM661.011 463.69v-55.512q0-9.252-9.252-9.252h-55.512q-9.252 0-9.252 9.252v55.512q0 9.252 9.252 9.252h55.512q9.252 0 9.252-9.252zM808.016 463.69v-55.512q0-9.252-9.252-9.252h-55.512q-9.252 0-9.252 9.252v55.512q0 9.252 9.252 9.252h55.512q9.252 0 9.252-9.252zM955.022 463.69v-201.49q0-9.252-9.252-9.252h-128.5q-9.252 0-9.252 9.252v54.484q0 9.252 9.252 9.252h63.736v137.753q0 9.252 9.252 9.252h55.512q9.252 0 9.252-9.252zM1028.010 31.925v514.004h-955.022v-514.004h955.022zM1100.998 545.931v-514.004q0-29.812-21.588-51.4t-51.4-21.588h-955.022q-29.812 0-51.4 21.588t-21.588 51.4v514.004q0 30.84 21.588 52.428t51.4 21.588h955.022q30.84 0 51.4-21.588t21.588-52.428z" />
<glyph unicode="&#xe841;" glyph-name="bookmark" horiz-adv-x="735" d="M661.011 692.936h-588.022v-712.411l294.011 281.675 51.4-48.316 242.61-233.358v712.411zM668.207 766.952q12.336 0 24.672-5.14 19.532-8.224 29.812-23.644t11.308-35.98v-739.139q0-19.532-11.308-35.98t-29.812-23.644q-10.28-4.112-24.672-4.112-27.756 0-48.316 18.504l-252.89 242.61-252.89-242.61q-20.56-19.532-47.288-19.532-13.364 0-25.7 5.14-18.504 7.196-29.812 23.644t-11.308 35.98v739.139q0 19.532 11.308 35.98t29.812 23.644q12.336 5.14 25.7 5.14h601.386z" />
<glyph unicode="&#xe842;" glyph-name="bookmark-full" horiz-adv-x="735" d="M668.207 766.952q12.336 0 24.672-5.14 19.532-8.224 29.812-23.644t11.308-35.98v-739.139q0-19.532-11.308-35.98t-29.812-23.644q-10.28-4.112-24.672-4.112-27.756 0-48.316 18.504l-252.89 242.61-252.89-242.61q-20.56-19.532-47.288-19.532-13.364 0-25.7 5.14-18.504 7.196-29.812 23.644t-11.308 35.98v739.139q0 19.532 11.308 35.98t29.812 23.644q12.336 5.14 25.7 5.14h601.386z" />
<glyph unicode="&#xe843;" glyph-name="rss" horiz-adv-x="808" d="M219.994 68.934q0-46.26-31.868-78.128t-78.128-31.868-78.128 31.868-31.868 78.128 31.868 78.128 78.128 31.868 78.128-31.868 31.868-78.128zM514.004-1.999q1.028-15.42-9.252-26.728-11.308-12.336-27.756-12.336h-77.1q-14.392 0-24.672 9.252t-11.308 23.644q-12.336 131.585-105.884 225.134t-225.134 105.884q-14.392 1.028-23.644 11.308t-9.252 24.672v77.1q0 16.448 12.336 26.728 9.252 10.28 24.672 10.28h3.084q91.492-7.196 174.761-46.26t149.061-103.828q64.764-64.764 103.828-149.061t46.26-175.79zM808.016-3.027q1.028-15.42-10.28-26.728-10.28-11.308-26.728-11.308h-82.24q-14.392 0-25.7 10.28t-11.308 23.644q-6.168 123.36-57.568 234.386t-132.613 193.266-193.266 132.613-233.358 58.596q-14.392 0-24.672 11.308t-10.28 24.672v82.24q0 15.42 11.308 26.728 10.28 10.28 25.7 10.28h1.028q151.117-8.224 287.843-68.876t244.666-168.593q106.912-106.912 168.593-244.666t68.876-287.843z" />
<glyph unicode="&#xe844;" glyph-name="mail" d="M955.022-22.559v439.988q-18.504-20.56-40.092-38.036-153.173-117.192-244.666-193.266-28.784-24.672-47.288-39.064t-49.344-27.756-58.596-13.364h-2.056q-26.728 0-58.596 13.364t-49.344 27.756-47.288 39.064q-90.464 76.072-244.666 193.266-21.588 17.476-40.092 38.036v-439.988q0-8.224 6.168-13.364t12.336-5.14h845.024q7.196 0 12.336 5.14t6.168 13.364zM955.022 579.856v14.392t-1.028 7.196-1.028 7.196-3.084 5.14-5.14 4.112-8.224 2.056h-845.024q-7.196 0-12.336-6.168t-6.168-12.336q0-96.632 84.296-163.453 111.024-87.38 230.274-181.958 4.112-2.056 20.56-16.448t25.7-21.588 25.7-18.504 28.784-15.42 24.672-5.14h2.056q11.308 0 24.672 5.14t28.784 15.42 25.7 18.504 25.7 21.588 20.56 16.448q119.248 94.576 230.274 181.958 30.84 24.672 57.568 66.82t26.728 75.044zM1028.010 601.444v-624.002q0-38.036-26.728-64.764t-64.764-27.756h-845.024q-37.008 0-64.764 27.756t-26.728 64.764v624.002q0 38.036 26.728 64.764t64.764 26.728h845.024q38.036 0 64.764-26.728t26.728-64.764z" />
<glyph unicode="&#xe845;" glyph-name="picture" horiz-adv-x="1101" d="M366.999 509.95q0-46.26-31.868-78.128t-78.128-32.896-78.128 32.896-31.868 78.128 31.868 77.1 78.128 32.896 78.128-32.896 31.868-77.1zM955.022 288.928v-257.002h-808.016v109.996l182.986 184.014 92.52-91.492 292.983 292.983zM1009.506 692.936h-918.013q-7.196 0-12.336-5.14t-6.168-13.364v-696.991q0-8.224 6.168-13.364t12.336-5.14h918.013q7.196 0 13.364 5.14t5.14 13.364v696.991q0 7.196-5.14 13.364t-13.364 5.14zM1100.998 674.432v-696.991q0-38.036-26.728-64.764t-64.764-27.756h-918.013q-37.008 0-64.764 27.756t-26.728 64.764v696.991q0 38.036 26.728 64.764t64.764 27.756h918.013q38.036 0 64.764-27.756t26.728-64.764z" />
<glyph unicode="&#xe846;" glyph-name="video" horiz-adv-x="1101" d="M219.994-78.071v74.016q0 14.392-10.28 25.7t-25.7 10.28h-74.016q-14.392 0-25.7-10.28t-11.308-25.7v-74.016q0-14.392 11.308-25.7t25.7-11.308h74.016q14.392 0 25.7 11.308t10.28 25.7zM219.994 141.922v74.016q0 14.392-10.28 25.7t-25.7 11.308h-74.016q-14.392 0-25.7-11.308t-11.308-25.7v-74.016q0-14.392 11.308-25.7t25.7-10.28h74.016q14.392 0 25.7 10.28t10.28 25.7zM219.994 362.945v72.988q0 15.42-10.28 25.7t-25.7 11.308h-74.016q-14.392 0-25.7-11.308t-11.308-25.7v-72.988q0-15.42 11.308-25.7t25.7-11.308h74.016q14.392 0 25.7 11.308t10.28 25.7zM808.016-78.071v294.011q0 14.392-11.308 25.7t-25.7 11.308h-441.016q-14.392 0-25.7-11.308t-10.28-25.7v-294.011q0-14.392 10.28-25.7t25.7-11.308h441.016q15.42 0 25.7 11.308t11.308 25.7zM219.994 582.94v72.988q0 15.42-10.28 26.728t-25.7 10.28h-74.016q-14.392 0-25.7-10.28t-11.308-26.728v-72.988q0-15.42 11.308-25.7t25.7-11.308h74.016q14.392 0 25.7 11.308t10.28 25.7zM1028.010-78.071v74.016q0 14.392-11.308 25.7t-25.7 10.28h-72.988q-15.42 0-25.7-10.28t-11.308-25.7v-74.016q0-14.392 11.308-25.7t25.7-11.308h72.988q15.42 0 25.7 11.308t11.308 25.7zM808.016 362.945v292.983q0 15.42-11.308 26.728t-25.7 10.28h-441.016q-14.392 0-25.7-10.28t-10.28-26.728v-292.983q0-15.42 10.28-25.7t25.7-11.308h441.016q15.42 0 25.7 11.308t11.308 25.7zM1028.010 141.922v74.016q0 14.392-11.308 25.7t-25.7 11.308h-72.988q-15.42 0-25.7-11.308t-11.308-25.7v-74.016q0-14.392 11.308-25.7t25.7-10.28h72.988q15.42 0 25.7 10.28t11.308 25.7zM1028.010 362.945v72.988q0 15.42-11.308 25.7t-25.7 11.308h-72.988q-15.42 0-25.7-11.308t-11.308-25.7v-72.988q0-15.42 11.308-25.7t25.7-11.308h72.988q15.42 0 25.7 11.308t11.308 25.7zM1028.010 582.94v72.988q0 15.42-11.308 26.728t-25.7 10.28h-72.988q-15.42 0-25.7-10.28t-11.308-26.728v-72.988q0-15.42 11.308-25.7t25.7-11.308h72.988q15.42 0 25.7 11.308t11.308 25.7zM1100.998 674.432v-771.007q0-38.036-26.728-64.764t-64.764-26.728h-918.013q-37.008 0-64.764 26.728t-26.728 64.764v771.007q0 38.036 26.728 64.764t64.764 27.756h918.013q38.036 0 64.764-27.756t26.728-64.764z" />
<glyph unicode="&#xe847;" glyph-name="tasks" d="M586.994 31.925h368.027v74.016h-368.027v-74.016zM366.999 325.937h588.022v72.988h-588.022v-72.988zM733.999 619.948h221.022v72.988h-221.022v-72.988zM1028.010 141.922v-145.977q0-15.42-11.308-25.7t-25.7-11.308h-953.994q-15.42 0-25.7 11.308t-11.308 25.7v145.977q0 15.42 11.308 26.728t25.7 10.28h953.994q15.42 0 25.7-10.28t11.308-26.728zM1028.010 435.933v-147.005q0-14.392-11.308-25.7t-25.7-10.28h-953.994q-15.42 0-25.7 10.28t-11.308 25.7v147.005q0 15.42 11.308 25.7t25.7 11.308h953.994q15.42 0 25.7-11.308t11.308-25.7zM1028.010 729.944v-147.005q0-15.42-11.308-25.7t-25.7-11.308h-953.994q-15.42 0-25.7 11.308t-11.308 25.7v147.005q0 14.392 11.308 25.7t25.7 11.308h953.994q15.42 0 25.7-11.308t11.308-25.7z" />
<glyph unicode="&#xe90e;" glyph-name="images" horiz-adv-x="1156" d="M1092.262 743.564h-64.252v64.252c0 35.337-28.912 64.252-64.252 64.252h-899.509c-35.337 0-64.252-28.912-64.252-64.252v-771.007c0-35.337 28.912-64.252 64.252-64.252h64.252v-64.252c0-35.337 28.912-64.252 64.252-64.252h899.509c35.337 0 64.252 28.912 64.252 64.252v771.007c0 35.337-28.912 64.252-64.252 64.252zM128.5 679.316v-642.506h-64.137c-0.040 0.034-0.082 0.076-0.114 0.116v770.777c0.034 0.040 0.076 0.082 0.114 0.114h899.277c0.040-0.034 0.082-0.076 0.116-0.116v-64.135h-771.007c-35.337 0-64.252-28.912-64.252-64.252v0zM1092.262-91.576c-0.034-0.040-0.076-0.082-0.116-0.116h-899.277c-0.040 0.034-0.082 0.076-0.114 0.116v770.777c0.034 0.040 0.076 0.082 0.114 0.114h899.277c0.040-0.034 0.082-0.076 0.116-0.116v-770.775zM963.758 518.688c0-53.228-43.148-96.376-96.376-96.376s-96.376 43.148-96.376 96.376 43.148 96.376 96.376 96.376 96.376-43.148 96.376-96.376zM1028.010-27.442h-771.007v128.5l224.877 385.503 257.002-321.253h64.252l224.877 192.752z" />
<glyph unicode="&#xf023;" glyph-name="lock" horiz-adv-x="659" d="M183.036 432.436h292.857v109.821c0 80.65-65.778 146.429-146.429 146.429s-146.429-65.778-146.429-146.429v-109.821zM658.929 377.525v-329.465c0-30.316-24.595-54.911-54.911-54.911h-549.107c-30.316 0-54.911 24.595-54.911 54.911v329.465c0 30.316 24.595 54.911 54.911 54.911h18.304v109.821c0 140.708 115.542 256.25 256.25 256.25s256.25-115.542 256.25-256.25v-109.821h18.304c30.316 0 54.911-24.595 54.911-54.911z" />
<glyph unicode="&#xf0c1;" glyph-name="chain" horiz-adv-x="954" d="M834.442 162.822c0 14.902-5.732 28.655-16.048 38.971l-119.205 119.205c-10.316 10.316-24.643 16.048-38.971 16.048-16.619 0-29.801-6.304-41.263-18.34 18.911-18.911 41.263-34.959 41.263-64.189 0-30.376-24.643-55.019-55.019-55.019-29.229 0-45.275 22.352-64.189 41.263-12.036-11.462-18.911-24.643-18.911-41.837 0-14.328 5.732-28.655 16.048-38.971l118.059-118.634c10.316-10.316 24.643-15.474 38.971-15.474s28.655 5.158 38.971 14.902l84.246 83.675c10.316 10.316 16.048 24.070 16.048 38.397zM431.549 566.862c0 14.328-5.732 28.655-16.048 38.971l-118.059 118.634c-10.316 10.316-24.643 16.048-38.971 16.048s-28.655-5.732-38.971-15.474l-84.246-83.675c-10.316-10.316-16.048-24.070-16.048-38.397 0-14.902 5.732-28.655 16.048-38.971l119.205-119.205c10.316-10.316 24.643-15.474 38.971-15.474 16.619 0 29.801 5.732 41.263 17.765-18.911 18.911-41.263 34.959-41.263 64.189 0 30.376 24.643 55.019 55.019 55.019 29.229 0 45.275-22.352 64.189-41.263 12.036 11.462 18.911 24.643 18.911 41.837zM944.478 162.822c0-43.556-17.765-85.966-48.714-116.341l-84.246-83.675c-30.947-30.947-72.784-47.567-116.341-47.567-44.129 0-85.966 17.194-116.913 48.714l-118.059 118.634c-30.947 30.947-47.567 72.784-47.567 116.341 0 45.275 18.34 88.258 50.433 119.78l-50.433 50.433c-31.522-32.093-73.93-50.433-119.205-50.433-43.556 0-85.966 17.194-116.913 48.141l-119.205 119.205c-31.522 31.522-48.141 72.784-48.141 116.913 0 43.556 17.765 85.966 48.714 116.341l84.246 83.675c30.947 30.947 72.784 47.567 116.341 47.567 44.129 0 85.966-17.194 116.913-48.714l118.059-118.634c30.947-30.947 47.567-72.784 47.567-116.341 0-45.275-18.34-88.258-50.433-119.78l50.433-50.433c31.522 32.093 73.93 50.433 119.205 50.433 43.556 0 85.966-17.194 116.913-48.141l119.205-119.205c31.522-31.522 48.141-72.784 48.141-116.913z" />
<glyph unicode="&#xf14b;" glyph-name="pencil-square" horiz-adv-x="878" d="M230.857 244.571l86.857-86.857-29.714-29.714h-32v54.857h-54.857v32zM467.429 467.428c4.571-4 3.429-12-1.714-17.143l-166.286-166.286c-5.143-5.143-13.143-6.286-17.143-1.714-4.571 4-3.429 12 1.714 17.143l166.286 166.286c5.143 5.143 13.143 6.286 17.143 1.714zM310.857 73.143l310.857 310.857-164.571 164.571-310.857-310.857v-164.571h164.571zM658.286 420.571l52.571 52.571c21.143 21.143 21.143 56.571 0 77.714l-86.857 86.857c-21.143 21.143-56.571 21.143-77.714 0l-52.571-52.571zM877.714 640v-548.571c0-90.857-73.714-164.571-164.571-164.571h-548.571c-90.857 0-164.571 73.714-164.571 164.571v548.571c0 90.857 73.714 164.571 164.571 164.571h548.571c90.857 0 164.571-73.714 164.571-164.571z" />
<glyph unicode="&#xf179;" glyph-name="apple" horiz-adv-x="808" d="M798.764 142.95q-21.588-71.96-69.904-142.893-74.016-113.080-148.033-113.080-27.756 0-80.184 18.504-49.344 18.504-86.352 18.504-34.952 0-81.212-19.532t-76.072-19.532q-87.38 0-172.705 149.061-84.296 150.089-84.296 288.871 0 130.556 64.764 213.826t163.453 83.268q41.12 0 100.744-17.476t79.156-17.476q25.7 0 82.24 19.532 58.596 19.532 99.716 19.532 67.848 0 122.332-37.008 29.812-20.56 59.624-57.568-45.232-38.036-65.792-67.848-37.008-53.456-37.008-118.22 0-70.932 39.064-128.5t90.464-71.96zM583.91 816.296q0-34.952-17.476-78.128-16.448-43.176-53.456-79.156-30.84-30.84-61.68-41.12-20.56-7.196-59.624-10.28 2.056 85.324 45.232 147.005 42.148 61.68 142.893 85.324 1.028-2.056 2.056-6.168t1.028-6.168 0-6.168 1.028-5.14z" />
<glyph unicode="&#xf17a;" glyph-name="windows" horiz-adv-x="954" d="M391.671 263.228v-374.195l-391.671 54.484v319.711h391.671zM391.671 688.824v-377.279h-391.671v323.823zM955.022 263.228v-451.296l-521.2 71.96v379.335h521.2zM955.022 766.952v-455.408h-521.2v383.447z" />
<glyph unicode="&#xf17b;" glyph-name="android" horiz-adv-x="808" d="M282.703 563.407q9.252 0 16.448 6.168t6.168 15.42-6.168 16.448-16.448 6.168-15.42-6.168-6.168-16.448 6.168-15.42 15.42-6.168zM525.312 563.407q9.252 0 15.42 6.168t6.168 15.42-6.168 16.448-15.42 6.168-16.448-6.168-6.168-16.448 6.168-15.42 16.448-6.168zM59.624 457.522q23.644 0 41.12-17.476t16.448-41.12v-246.722q0-24.672-16.448-42.148t-41.12-17.476-42.148 17.476-17.476 42.148v246.722q0 23.644 17.476 41.12t42.148 17.476zM667.179 446.214v-381.391q0-26.728-18.504-45.232t-44.204-18.504h-43.176v-130.556q0-24.672-16.448-41.12t-42.148-17.476-42.148 17.476-17.476 41.12v130.556h-79.156v-130.556q0-24.672-16.448-41.12t-42.148-17.476q-24.672 0-41.12 17.476t-17.476 41.12l-1.028 130.556h-42.148q-26.728 0-44.204 18.504t-18.504 45.232v381.391h526.342zM534.566 678.544q60.652-30.84 97.66-87.38t37.008-124.388h-530.454q0 67.848 35.98 124.388t98.688 87.38l-40.092 75.044q-4.112 8.224 2.056 12.336 8.224 3.084 12.336-4.112l41.12-76.072q54.484 24.672 115.136 24.672t115.136-24.672l41.12 76.072q4.112 7.196 11.308 4.112 7.196-4.112 3.084-12.336zM808.016 398.925v-246.722q0-24.672-17.476-42.148t-42.148-17.476q-23.644 0-41.12 17.476t-17.476 42.148v246.722q0 24.672 17.476 41.12t41.12 17.476q24.672 0 42.148-17.476t17.476-41.12z" />
<glyph unicode="&#xf1b7;" glyph-name="steam" horiz-adv-x="882" d="M712.493 482.547c0 60.807-49.91 110.718-111.291 110.718-60.807 0-110.718-49.91-110.718-110.718 0-61.383 49.91-110.718 110.718-110.718 61.383 0 111.291 49.335 111.291 110.718zM362.557 145.232c0-63.104-50.482-113.587-113.587-113.587-43.599 0-81.46 24.667-100.392 60.807 18.929-7.457 37.287-14.917 56.22-22.945 45.894-18.358 98.67 4.016 117.603 50.482 18.358 45.894-4.016 98.67-50.482 117.027l-47.041 18.929c7.457 1.722 16.064 2.869 24.094 2.869 63.104 0 113.587-50.482 113.587-113.587zM881.151 615.064v-550.719c0-91.213-74.002-165.215-165.215-165.215h-550.719c-91.213 0-165.215 74.002-165.215 165.215v87.772l98.67-39.585c14.917-69.415 76.871-121.618 150.3-121.618 80.312 0 146.285 61.383 153.743 139.401l197.915 144.564c114.734 0 207.094 92.934 207.094 206.519 0 114.734-92.36 207.094-207.094 207.094-113.011 0-205.372-91.787-206.519-204.799l-129.075-184.72c-5.163 0.575-10.326 0.575-16.064 0.575-28.683 0-55.645-7.457-78.594-21.227l-170.378 68.267v268.476c0 91.213 74.002 165.215 165.215 165.215h550.719c91.213 0 165.215-74.002 165.215-165.215zM739.455 481.4c0-76.297-61.955-138.254-138.827-138.254-76.297 0-138.254 61.955-138.254 138.254 0 76.871 61.955 138.827 138.254 138.827 76.871 0 138.827-61.955 138.827-138.827z" />
<glyph unicode="&#xf1e1;" glyph-name="share-alt-square" horiz-adv-x="880" d="M732.86 181.531c0 67.561-54.965 122.526-121.952 122.526-32.062 0-61.263-12.595-83.019-33.207l-137.984 68.705c0.573 4.579 1.145 8.587 1.145 13.169s-0.573 8.587-1.145 13.169l137.984 68.705c21.756-20.611 50.957-33.207 83.019-33.207 66.987 0 121.952 54.965 121.952 122.526 0 66.987-54.965 121.952-121.952 121.952-67.561 0-122.526-54.965-122.526-121.952 0-4.579 0.573-8.587 1.145-13.169l-137.984-68.705c-21.756 20.040-50.957 32.635-83.019 32.635-66.987 0-121.952-54.392-121.952-121.952s54.965-121.952 121.952-121.952c32.062 0 61.263 12.595 83.019 32.635l137.984-68.705c-0.573-4.579-1.145-8.587-1.145-13.169 0-66.987 54.965-121.952 122.526-121.952 66.987 0 121.952 54.965 121.952 121.952zM879.431 627.544v-549.644c0-91.035-73.858-164.893-164.893-164.893h-549.644c-91.035 0-164.893 73.858-164.893 164.893v549.644c0 91.035 73.858 164.893 164.893 164.893h549.644c91.035 0 164.893-73.858 164.893-164.893z" />
<glyph unicode="&#xf267;" glyph-name="safari" d="M544.846 327.993q0-15.42-10.28-25.7t-23.644-11.308q-14.392 0-25.7 9.252t-10.28 23.644q0 15.42 9.252 25.7t23.644 11.308 25.7-9.252 11.308-23.644zM553.070 294.068l200.462 334.103q-5.14-5.14-38.036-35.98t-71.96-66.82-79.156-72.988-66.82-63.736-28.784-29.812l-200.462-332.047q4.112 4.112 39.064 34.952t71.96 66.82 78.128 72.988 66.82 63.736 28.784 28.784zM924.182 325.937q0-115.136-59.624-212.798-2.056 1.028-9.252 6.168t-15.42 9.252-9.252 5.14q-8.224 0-8.224-8.224 0-5.14 33.924-24.672-42.148-64.764-105.884-109.996t-138.781-62.708l-8.224 38.036q-1.028 6.168-9.252 6.168-3.084 0-4.112-3.084t-1.028-6.168l9.252-39.064q-42.148-8.224-84.296-8.224-114.108 0-213.826 60.652 1.028 1.028 8.224 11.308t12.336 19.532 5.14 10.28q0 8.224-7.196 8.224-4.112 0-10.28-8.224t-12.336-20.56-8.224-13.364q-64.764 43.176-109.996 107.94t-62.708 140.837l39.064 8.224q6.168 2.056 6.168 8.224 0 3.084-3.084 5.14t-6.168 1.028l-39.064-9.252q-8.224 42.148-8.224 80.184 0 118.22 62.708 217.938 1.028-1.028 10.28-7.196t17.476-11.308 10.28-4.112q7.196 0 7.196 6.168 0 4.112-7.196 9.252t-18.504 12.336l-11.308 7.196q44.204 63.736 107.94 107.94t139.809 61.68l9.252-38.036q1.028-6.168 8.224-6.168 3.084 0 5.14 3.084t1.028 6.168l-9.252 38.036q41.12 7.196 77.1 7.196 117.192 0 217.938-62.708-22.616-31.868-22.616-37.008 0-7.196 6.168-7.196 7.196 0 27.756 35.98 63.736-42.148 107.94-105.884t61.68-138.781l-31.868-7.196q-6.168-1.028-6.168-8.224 0-3.084 3.084-5.14t5.14-1.028l32.896 7.196q8.224-41.12 8.224-80.184zM972.498 325.937q0 93.548-35.98 178.874t-97.66 145.977-145.977 97.66-178.874 35.98-177.846-35.98-147.005-97.66-97.66-145.977-35.98-178.874 35.98-177.846 97.66-147.005 147.005-97.66 177.846-35.98 178.874 35.98 145.977 97.66 97.66 147.005 35.98 177.846zM1028.010 325.937q0-104.856-41.12-199.434t-108.968-164.481-164.481-108.968-199.434-41.12-199.434 41.12-164.481 108.968-108.968 164.481-41.12 199.434 41.12 199.434 108.968 164.481 164.481 108.968 199.434 41.12 199.434-41.12 164.481-108.968 108.968-164.481 41.12-199.434z" />
</font>
</defs>
</svg>
