<?xml version="1.0" standalone="no"?>
<!DOCTYPE svg PUBLIC "-//W3C//DTD SVG 1.1//EN" "http://www.w3.org/Graphics/SVG/1.1/DTD/svg11.dtd" >
<svg xmlns="http://www.w3.org/2000/svg">
<metadata>Generated by IcoMoon</metadata>
<defs>
<font id="icomoon" horiz-adv-x="1024">
<font-face units-per-em="1024" ascent="870.850439882698" descent="-153.14956011730206" />
<missing-glyph horiz-adv-x="1024" />
<glyph unicode="&#x20;" d="" />
<glyph unicode="&#xe700;" glyph-name="valhalla" d="M161.604-6.932h713.288v44.029h-713.288v-44.029zM485.25 140.801l0.428-4.542 1.239-4.177 1.975-3.739 2.638-3.224 3.224-2.638 3.739-1.975 4.177-1.239 4.542-0.428 4.542 0.428 4.177 1.239 3.739 1.975 3.224 2.638 2.638 3.224 1.975 3.739 1.239 4.177 0.428 4.542-0.428 4.571-1.239 4.191-1.975 3.741-2.638 3.218-3.224 2.627-3.739 1.963-4.177 1.229-4.542 0.424-3.652-0.428-3.76-1.239-3.685-1.975-3.424-2.638-2.983-3.224-2.357-3.739-1.551-4.177-0.558-4.542zM485.25 216.221l0.428-4.542 1.239-4.177 1.975-3.739 2.638-3.224 3.224-2.638 3.739-1.975 4.177-1.239 4.542-0.428 4.542 0.428 4.177 1.239 3.739 1.975 3.224 2.638 2.638 3.224 1.975 3.739 1.239 4.177 0.428 4.542-0.428 4.542-1.239 4.177-1.975 3.739-2.638 3.224-3.224 2.638-3.739 1.975-4.177 1.239-4.542 0.428-3.522-0.428-3.448-1.239-3.3-1.975-3.079-2.638-2.783-3.224-2.411-3.739-1.968-4.177-1.448-4.542zM485.25 291.642l0.428-4.542 1.239-4.177 1.975-3.739 2.638-3.224 3.224-2.638 3.739-1.975 4.177-1.239 4.542-0.428 4.542 0.428 4.177 1.239 3.739 1.975 3.224 2.638 2.638 3.224 1.975 3.739 1.239 4.177 0.428 4.542-0.428 4.542-1.239 4.177-1.975 3.739-2.638 3.224-3.224 2.638-3.739 1.975-4.177 1.239-4.542 0.428-3.522-0.428-3.448-1.239-3.3-1.975-3.079-2.638-2.783-3.224-2.411-3.739-1.968-4.177-1.448-4.542zM485.25 370.172l0.428-4.542 1.239-4.177 1.975-3.739 2.638-3.224 3.224-2.638 3.739-1.975 4.177-1.239 4.542-0.428 4.542 0.428 4.177 1.239 3.739 1.975 3.224 2.638 2.638 3.224 1.975 3.739 1.239 4.177 0.428 4.542-0.428 4.542-1.239 4.177-1.975 3.739-2.638 3.224-3.224 2.638-3.739 1.975-4.177 1.239-4.542 0.428-3.522-0.428-3.448-1.239-3.3-1.975-3.079-2.638-2.783-3.224-2.411-3.739-1.968-4.177-1.448-4.542zM557.561 65.38h311.111l-0.958 16.973-1.68 16.734-2.383 16.483-3.074 16.216-3.749 15.934-4.406 15.633-5.050 15.32-5.679 14.991-6.289 14.644-6.887 14.285-7.466 13.91-8.033 13.516-8.581 13.11-9.117 12.686-9.634 12.249-10.139 11.795-10.625 11.325-11.099 10.842-11.554 10.34-11.997 9.826-12.422 9.293-12.834 8.748-13.227 8.184-13.605 7.605-13.97 7.013-14.317 6.403-14.649 5.781-14.967 5.14-15.268 4.483-15.553 3.814-15.822 3.127-16.079 2.424v-348.821zM158.394 68.489h304.792v345.712h-3.209l-15.486-2.708-15.251-3.389-15.001-4.057-14.732-4.71-14.451-5.343-14.154-5.963-13.841-6.564-13.511-7.152-13.168-7.724-12.807-8.277-12.432-8.817-12.042-9.337-11.633-9.845-11.212-10.334-10.776-10.81-10.321-11.266-9.853-11.707-9.367-12.134-8.868-12.543-8.351-12.939-7.821-13.315-7.273-13.675-6.712-14.023-6.133-14.351-5.538-14.663-4.931-14.963-4.305-15.243-3.667-15.507-3.010-15.755-2.337-15.99-1.653-16.206-0.949-16.406zM733.477 389.027l20.612-17.204 19.362-18.612 18.037-19.944 16.634-21.203 7.77-11.049 7.389-11.333 7.003-11.609 6.604-11.877 6.198-12.133 5.783-12.38 5.356-12.617 4.922-12.847 12.354 8.606 11.731 8.734 11.125 8.851 10.529 8.959 9.95 9.059 9.382 9.15 8.83 9.234 8.289 9.308 7.765 9.375 7.251 9.433 6.753 9.483 6.267 9.525 5.797 9.558 5.338 9.583 4.895 9.6 4.463 9.608 4.047 9.608 3.645 9.6 3.254 9.583 2.88 9.558 4.687 19.012 3.346 18.809 2.118 18.543 0.998 18.211-0.013 17.809-0.914 17.343-1.707 16.807-2.387 16.209-2.962 15.54-3.424 14.805-3.781 14.007-4.025 13.138-4.16 12.204-4.187 11.203-4.104 10.135-3.912 9-3.611 7.8-3.198 6.529-2.679 5.195-2.048 3.794-0.755 1.349-0.557 0.975-0.342 0.592-0.117 0.198 2.919-15.936 1.704-15.408 0.545-14.89-0.561-14.375-1.609-13.871-2.601-13.37-3.534-12.879-4.415-12.392-5.24-11.915-6.010-11.442-6.723-10.979-7.378-10.519-7.981-10.069-8.525-9.624-9.016-9.188-9.448-8.759-9.828-8.334-10.149-7.918-10.414-7.507-10.624-7.105-10.781-6.711-10.88-6.32-10.922-5.939-10.91-5.562-21.555-10.029-20.832-8.608-10.007-3.791-9.657-3.455-9.255-3.129-8.797-2.81zM167.822 216.221l4.409 12.847 4.977 12.617 5.519 12.38 6.041 12.133 6.538 11.877 7.014 11.609 7.464 11.333 7.895 11.049 8.299 10.753 8.68 10.448 18.418 19.944 19.67 18.612 20.739 17.204-9.069 2.81-9.492 3.129-20.044 7.246-21.092 8.608-21.706 10.029-10.95 5.562-10.942 5.939-10.88 6.32-10.762 6.711-10.591 7.105-10.367 7.507-10.089 7.918-9.758 8.334-9.369 8.759-8.93 9.188-8.433 9.624-7.886 10.069-7.282 10.519-6.624 10.979-5.915 11.442-5.149 11.915-4.329 12.392-3.455 12.879-2.528 13.37-1.549 13.871-0.511 14.375 0.579 14.89 1.722 15.408 2.919 15.936-0.117-0.198-0.342-0.592-0.556-0.975-0.754-1.349-2.047-3.794-2.678-5.195-3.196-6.529-3.609-7.8-3.909-9-4.101-10.135-4.184-11.203-4.157-12.204-4.022-13.138-3.778-14.007-3.421-14.805-2.959-15.54-2.385-16.209-1.704-16.807-0.912-17.343-0.011-17.809 0.999-18.211 2.119-18.543 3.347-18.809 4.687-19.012 2.879-9.558 3.254-9.583 3.645-9.6 4.046-9.608 4.462-9.608 4.894-9.6 5.336-9.583 5.795-9.558 6.265-9.525 6.752-9.483 7.249-9.433 7.762-9.375 8.286-9.308 8.827-9.234 9.379-9.15 9.947-9.059 10.526-8.959 11.121-8.851 11.727-8.734 12.35-8.606z" />
<glyph unicode="&#xe800;" glyph-name="radio" horiz-adv-x="881" d="M880.145 332.462q0-120.159-58.539-220.806t-160.212-160.212-220.806-59.566-221.833 59.566-159.185 160.212-59.566 220.806 59.566 220.806 159.185 160.212 221.833 59.566 220.806-59.566 160.212-160.212 58.539-220.806z" />
<glyph unicode="&#xe801;" glyph-name="radio-checked" horiz-adv-x="881" d="M736.363 424.892q0 16.432-11.297 26.702l-51.35 51.35q-11.297 11.297-25.675 11.297t-26.702-11.297l-233.13-233.13-129.402 129.402q-11.297 11.297-25.675 11.297t-26.702-11.297l-51.35-51.35q-10.27-10.27-10.27-26.702 0-15.405 10.27-25.675l207.455-207.455q10.27-10.27 25.675-10.27t25.675 10.27l311.183 311.183q11.297 10.27 11.297 25.675zM880.145 332.462q0-120.159-58.539-220.806t-160.212-160.212-220.806-59.566-221.833 59.566-159.185 160.212-59.566 220.806 59.566 220.806 159.185 160.212 221.833 59.566 220.806-59.566 160.212-160.212 58.539-220.806z" />
<glyph unicode="&#xe802;" glyph-name="cancel-circled" horiz-adv-x="881" d="M658.311 203.060q0 14.378-10.27 25.675l-103.727 103.727 103.727 103.727q10.27 11.297 10.27 25.675 0 15.405-10.27 26.702l-52.377 51.35q-10.27 11.297-25.675 11.297t-25.675-11.297l-103.727-103.727-103.727 103.727q-11.297 11.297-26.702 11.297t-25.675-11.297l-51.35-51.35q-11.297-11.297-11.297-26.702 0-14.378 11.297-25.675l103.727-103.727-103.727-103.727q-11.297-11.297-11.297-25.675 0-15.405 11.297-26.702l51.35-51.35q10.27-11.297 25.675-11.297t26.702 11.297l103.727 103.727 103.727-103.727q10.27-11.297 25.675-11.297t25.675 11.297l52.377 51.35q10.27 11.297 10.27 26.702zM880.145 332.462q0-120.159-58.539-220.806t-160.212-160.212-220.806-59.566-221.833 59.566-159.185 160.212-59.566 220.806 59.566 220.806 159.185 160.212 221.833 59.566 220.806-59.566 160.212-160.212 58.539-220.806z" />
<glyph unicode="&#xe803;" glyph-name="checkbox" horiz-adv-x="881" d="M880.145 607.7v-550.476q0-67.782-48.269-116.051t-117.078-49.296h-549.449q-68.809 0-117.078 49.296t-48.269 116.051v550.476q0 67.782 48.269 116.051t117.078 49.296h549.449q68.809 0 117.078-49.296t48.269-116.051z" />
<glyph unicode="&#xe804;" glyph-name="checkbox-checked" horiz-adv-x="881" d="M392.316 101.385l352.263 352.263q10.27 10.27 10.27 25.675t-10.27 25.675l-58.539 58.539q-11.297 10.27-25.675 10.27t-25.675-10.27l-268.049-268.049-121.186 121.186q-10.27 11.297-25.675 11.297t-25.675-11.297l-58.539-58.539q-10.27-11.297-10.27-25.675t10.27-25.675l205.401-205.401q11.297-11.297 25.675-11.297t25.675 11.297zM880.145 607.7v-550.476q0-67.782-48.269-116.051t-117.078-49.296h-549.449q-68.809 0-117.078 49.296t-48.269 116.051v550.476q0 67.782 48.269 116.051t117.078 49.296h549.449q68.809 0 117.078-49.296t48.269-116.051z" />
<glyph unicode="&#xe805;" glyph-name="checkbox-half" horiz-adv-x="881" d="M733.282 295.49v73.944q0 14.378-10.27 25.675t-25.675 10.27h-513.502q-15.405 0-26.702-10.27t-10.27-25.675v-73.944q0-14.378 10.27-25.675t26.702-10.27h513.502q14.378 0 25.675 10.27t10.27 25.675zM880.145 607.7v-550.476q0-67.782-48.269-116.051t-117.078-49.296h-549.449q-68.809 0-117.078 49.296t-48.269 116.051v550.476q0 67.782 48.269 116.051t117.078 49.296h549.449q68.809 0 117.078-49.296t48.269-116.051z" />
<glyph unicode="&#xe806;" glyph-name="heart" d="M954.089 503.972q0 47.242-12.324 82.16t-31.837 56.485-47.242 33.891-53.404 18.486-56.485 4.108-63.674-14.378-63.674-36.972-49.296-41.080-34.918-34.918q-10.27-13.351-27.729-13.351t-27.729 13.351q-14.378 15.405-34.918 34.918t-49.296 41.080-63.674 36.972-63.674 14.378-56.485-4.108-53.404-18.486-47.242-33.891-31.837-56.485-12.324-82.16q0-95.511 107.835-203.347l332.75-320.426 332.75 320.426q107.835 107.835 107.835 203.347zM1027.006 503.972q0-126.321-131.456-257.778l-356.371-344.047q-10.27-10.27-25.675-10.27t-25.675 10.27l-357.398 345.074q-5.135 5.135-15.405 15.405t-31.837 36.972-39.026 56.485-30.81 68.809-13.351 79.079q0 126.321 72.917 197.185t201.293 71.89q34.918 0 71.89-12.324t68.809-33.891 55.458-39.026 43.134-39.026q20.54 20.54 43.134 39.026t55.458 39.026 68.809 33.891 71.89 12.324q128.375 0 201.293-71.89t72.917-197.185z" />
<glyph unicode="&#xe807;" glyph-name="heart-full" d="M513.502-108.124q-14.378 0-25.675 10.27l-357.398 345.074q-5.135 5.135-15.405 15.405t-31.837 36.972-39.026 56.485-30.81 68.809-13.351 79.079q0 126.321 72.917 197.185t201.293 71.89q34.918 0 71.89-12.324t68.809-33.891 55.458-39.026 43.134-39.026q20.54 20.54 43.134 39.026t55.458 39.026 68.809 33.891 71.89 12.324q128.375 0 201.293-71.89t72.917-197.185q0-126.321-131.456-257.778l-356.371-344.047q-10.27-10.27-25.675-10.27z" />
<glyph unicode="&#xe808;" glyph-name="star" horiz-adv-x="953" d="M651.122 270.842l175.618 169.455-241.346 35.945-108.862 218.752-107.835-218.752-242.373-35.945 175.618-169.455-42.107-241.346 216.698 113.997 216.698-113.997zM954.089 475.216q0-12.324-15.405-27.729l-208.482-202.32 49.296-286.535q1.027-4.108 1.027-12.324 0-28.756-23.621-28.756-10.27 0-22.594 7.189l-257.778 135.564-256.751-135.564q-13.351-7.189-23.621-7.189-11.297 0-17.459 9.243t-6.162 19.513q0 4.108 1.027 12.324l49.296 286.535-208.482 202.32q-14.378 15.405-14.378 27.729 0 21.567 31.837 26.702l287.562 41.080 129.402 260.859q11.297 23.621 27.729 23.621t28.756-23.621l128.375-260.859 287.562-41.080q32.864-5.135 32.864-26.702z" />
<glyph unicode="&#xe809;" glyph-name="star-half" horiz-adv-x="953" d="M679.878 297.544l146.861 142.753-203.347 29.783-37.999 6.162-17.459 34.918-91.403 183.834v-551.503l33.891-17.459 182.807-96.538-34.918 203.347-7.189 37.999zM938.684 447.487l-207.455-202.32 48.269-286.535q3.081-19.513-3.081-29.783t-19.513-11.297q-9.243 0-22.594 7.189l-257.778 135.564-256.751-135.564q-13.351-7.189-23.621-7.189-12.324 0-19.513 11.297t-3.081 29.783l49.296 286.535-208.482 202.32q-18.486 18.486-13.351 33.891t30.81 20.54l287.562 41.080 129.402 260.859q11.297 23.621 27.729 23.621t28.756-23.621l128.375-260.859 287.562-41.080q25.675-4.108 30.81-20.54t-13.351-33.891z" />
<glyph unicode="&#xe80a;" glyph-name="star-full" horiz-adv-x="953" d="M954.089 475.216q0-12.324-15.405-27.729l-208.482-202.32 49.296-286.535q1.027-4.108 1.027-12.324 0-11.297-6.162-19.513t-17.459-9.243q-10.27 0-22.594 7.189l-257.778 135.564-256.751-135.564q-13.351-7.189-23.621-7.189-11.297 0-17.459 9.243t-6.162 19.513q0 4.108 1.027 12.324l49.296 286.535-208.482 202.32q-14.378 15.405-14.378 27.729 0 21.567 31.837 26.702l287.562 41.080 129.402 260.859q11.297 23.621 27.729 23.621t28.756-23.621l128.375-260.859 287.562-41.080q32.864-5.135 32.864-26.702z" />
<glyph unicode="&#xe80b;" glyph-name="up" d="M964.359 82.899l-94.484-94.484q-11.297-10.27-26.702-10.27t-25.675 10.27l-303.994 305.021-303.994-305.021q-11.297-10.27-25.675-10.27t-26.702 10.27l-94.484 94.484q-11.297 11.297-11.297 26.702t11.297 25.675l425.18 425.18q11.297 10.27 25.675 10.27t25.675-10.27l425.18-425.18q11.297-11.297 11.297-25.675t-11.297-26.702z" />
<glyph unicode="&#xe80c;" glyph-name="down" d="M964.359 382.785l-425.18-424.153q-10.27-11.297-25.675-11.297t-25.675 11.297l-425.18 424.153q-11.297 11.297-11.297 26.702t11.297 25.675l94.484 94.484q11.297 11.297 26.702 11.297t25.675-11.297l303.994-303.994 303.994 303.994q11.297 11.297 25.675 11.297t26.702-11.297l94.484-94.484q11.297-11.297 11.297-25.675t-11.297-26.702z" />
<glyph unicode="&#xe80d;" glyph-name="left" horiz-adv-x="734" d="M670.635 673.428l-303.994-303.994 303.994-305.021q11.297-10.27 11.297-25.675t-11.297-25.675l-94.484-95.511q-11.297-10.27-25.675-10.27t-25.675 10.27l-425.18 426.207q-11.297 10.27-11.297 25.675t11.297 25.675l425.18 425.18q10.27 10.27 25.675 10.27t25.675-10.27l94.484-95.511q11.297-10.27 11.297-25.675t-11.297-25.675z" />
<glyph unicode="&#xe80e;" glyph-name="right" horiz-adv-x="734" d="M634.69 343.759l-425.18-426.207q-11.297-10.27-25.675-10.27t-26.702 10.27l-94.484 95.511q-11.297 11.297-11.297 25.675t11.297 25.675l303.994 305.021-303.994 303.994q-11.297 11.297-11.297 25.675t11.297 25.675l94.484 95.511q11.297 10.27 26.702 10.27t25.675-10.27l425.18-425.18q10.27-11.297 10.27-25.675t-10.27-25.675z" />
<glyph unicode="&#xe80f;" glyph-name="sun" horiz-adv-x="1007" d="M556.638 759.696l-52.377-156.104-54.431 156.104q-7.189 22.594 3.081 43.134t31.837 28.756q30.81 10.27 57.512-11.297t14.378-60.593zM74.971 386.893l157.131-54.431-157.131-53.404q-21.567-8.216-43.134 3.081t-28.756 32.864q-10.27 30.81 12.324 57.512t59.566 14.378zM449.828-94.773l54.431 156.104 52.377-156.104q7.189-21.567-3.081-43.134t-31.837-28.756q-30.81-10.27-57.512 12.324t-14.378 59.566zM931.495 279.058l-157.131 53.404 157.131 54.431q21.567 7.189 43.134-3.081t28.756-32.864q10.27-30.81-12.324-58.539t-59.566-13.351zM238.265 672.401l72.917-148.915-148.915 73.944q-21.567 10.27-28.756 31.837t3.081 43.134q16.432 32.864 51.35 30.81t50.323-30.81zM162.266 68.521l148.915 72.917-72.917-148.915q-10.27-21.567-31.837-28.756t-44.161 3.081q-31.837 16.432-30.81 51.35t30.81 50.323zM768.2-7.477l-72.917 148.915 148.915-72.917q21.567-10.27 28.756-32.864t-3.081-43.134q-16.432-31.837-51.35-30.81t-50.323 30.81zM844.199 597.43l-148.915-73.944 72.917 148.915q10.27 22.594 31.837 29.783t44.161-4.108q31.837-16.432 30.81-51.35t-30.81-49.296zM504.259 91.115q-99.619 0-170.482 71.89t-70.863 169.455 70.863 170.482 170.482 70.863 169.455-70.863 69.836-170.482-69.836-169.455-169.455-71.89zM504.259 465.973q-55.458 0-95.511-39.026t-40.053-94.484 40.053-94.484 95.511-39.026 94.484 39.026 39.026 94.484-39.026 94.484-94.484 39.026z" />
<glyph unicode="&#xe810;" glyph-name="cloud" horiz-adv-x="1069" d="M802.092-42.395h-587.448q-88.322 0-151.996 62.647t-62.647 151.996q0 73.944 45.188 131.456t115.024 74.971v8.216q0 133.51 94.484 226.968t226.968 93.457q102.7 0 184.861-59.566t117.078-156.104q118.105 9.243 201.293-69.836t84.214-196.158q0-109.889-78.052-188.969t-188.969-79.079zM209.509 280.085q-41.080 0-71.89-31.837t-30.81-75.998 30.81-74.971 77.025-31.837h587.448q66.755 0 113.997 47.242t47.242 112.97-47.242 113.997-113.997 47.242q-18.486 0-43.134-8.216l-57.512-16.432-9.243 58.539q-14.378 77.025-72.917 128.375t-137.618 50.323q-88.322 0-151.996-62.647t-62.647-149.942q0-15.405 5.135-44.161l13.351-63.674z" />
<glyph unicode="&#xe811;" glyph-name="rain" horiz-adv-x="1069" d="M802.092 49.008q-21.567 0-37.999 16.432t-15.405 37.999 15.405 36.972 37.999 15.405q66.755 0 113.997 47.242t47.242 112.97-47.242 113.997-113.997 47.242q-22.594 0-43.134-7.189l-57.512-16.432-9.243 59.566q-14.378 77.025-72.917 127.348t-137.618 50.323q-88.322 0-151.996-62.647t-62.647-150.969q0-14.378 5.135-43.134l13.351-63.674h-75.998q-41.080 0-71.89-31.837t-30.81-74.971q0-45.188 30.81-75.998t77.025-31.837q21.567 0 36.972-15.405t15.405-36.972-15.405-37.999-36.972-16.432q-88.322 0-151.996 63.674t-62.647 150.969q0 74.971 45.188 131.456t115.024 74.971v7.189q0 131.456 94.484 225.941t226.968 94.484q103.727 0 185.888-58.539t116.051-156.104q116.051 9.243 201.293-69.836t84.214-197.185q0-109.889-78.052-187.942t-188.969-79.079zM454.963 49.008l53.404 161.239 54.431-161.239q7.189-21.567-4.108-43.134t-31.837-28.756q-29.783-10.27-56.485 13.351t-15.405 58.539zM615.177-57.8l53.404 161.239 53.404-161.239q7.189-21.567-3.081-42.107t-31.837-29.783q-29.783-10.27-56.485 13.351t-15.405 58.539zM293.724-57.8l54.431 161.239 52.377-161.239q8.216-21.567-2.054-42.107t-32.864-29.783q-28.756-10.27-56.485 13.351t-15.405 58.539z" />
<glyph unicode="&#xe812;" glyph-name="snow" horiz-adv-x="886" d="M840.091 164.032q22.594-5.135 35.945-23.621t7.189-41.080q-6.162-33.891-41.080-43.134t-56.485 15.405l-88.322 100.646 21.567-78.052q6.162-24.648-9.243-46.215t-43.134-22.594q-18.486 0-31.837 11.297t-19.513 28.756l-21.567 81.133q-33.891-26.702-65.728-39.026l58.539-58.539q15.405-15.405 15.405-36.972t-15.405-37.999q-16.432-16.432-36.972-16.432-21.567 0-37.999 16.432l-37.999 37.999h-12.324l34.918-106.808q7.189-21.567-3.081-43.134t-32.864-28.756q-29.783-10.27-56.485 12.324t-14.378 59.566l35.945 106.808h-14.378l-36.972-37.999q-15.405-15.405-37.999-15.405t-37.999 15.405-15.405 37.999 15.405 36.972l59.566 58.539q-32.864 12.324-65.728 39.026l-21.567-81.133q-5.135-17.459-19.513-28.756t-31.837-11.297q-28.756 0-43.134 22.594t-8.216 46.215l20.54 79.079-89.349-101.673q-15.405-16.432-39.026-17.459t-40.053 14.378q-18.486 15.405-19.513 37.999t14.378 41.080q12.324 13.351 30.81 16.432l130.429 27.729-78.052 21.567q-21.567 6.162-32.864 25.675t-5.135 40.053 23.621 31.837 41.080 5.135l81.133-20.54q-4.108 19.513-4.108 36.972t4.108 36.972l-81.133-20.54q-10.27-2.054-13.351-2.054-18.486 0-32.864 11.297t-18.486 28.756q-5.135 20.54 5.135 39.026t32.864 25.675l78.052 22.594-130.429 26.702q-23.621 5.135-35.945 23.621t-8.216 42.107q7.189 32.864 41.080 43.134t56.485-16.432l89.349-101.673-20.54 80.106q-7.189 21.567 5.135 41.080t31.837 23.621q21.567 7.189 41.080-5.135t24.648-31.837l21.567-81.133q32.864 27.729 65.728 39.026l-59.566 58.539q-15.405 15.405-15.405 37.999t15.405 36.972 37.999 15.405 37.999-15.405l57.512-57.512-42.107 126.321q-8.216 22.594 3.081 43.134t32.864 28.756q29.783 10.27 55.458-12.324t15.405-59.566l-43.134-126.321 58.539 57.512q15.405 15.405 37.999 15.405t36.972-15.405 15.405-36.972-15.405-37.999l-58.539-58.539q31.837-11.297 65.728-39.026l21.567 81.133q5.135 20.54 24.648 31.837t41.080 5.135 32.864-25.675 5.135-39.026l-21.567-79.079 88.322 100.646q15.405 16.432 39.026 17.459t41.080-13.351q17.459-15.405 18.486-39.026t-13.351-41.080q-13.351-12.324-30.81-16.432l-131.456-26.702 80.106-22.594q20.54-5.135 31.837-23.621t5.135-41.080q-5.135-18.486-19.513-29.783t-31.837-10.27q-4.108 0-14.378 2.054l-81.133 20.54q4.108-18.486 4.108-36.972t-4.108-36.972l81.133 20.54q21.567 6.162 41.080-5.135t24.648-31.837q6.162-22.594-5.135-41.080t-31.837-24.648l-80.106-21.567zM442.639 198.952q55.458 0 94.484 39.026t39.026 94.484-39.026 94.484-94.484 39.026-94.484-39.026-40.053-94.484 40.053-94.484 94.484-39.026z" />
<glyph unicode="&#xe813;" glyph-name="thunder" horiz-adv-x="1069" d="M802.092 92.142q-21.567 0-37.999 15.405t-15.405 37.999 15.405 37.999 37.999 15.405q66.755 0 113.997 46.215t47.242 113.997-47.242 112.97-113.997 47.242q-22.594 0-43.134-6.162l-57.512-16.432-9.243 58.539q-14.378 77.025-72.917 127.348t-137.618 51.35q-88.322 0-151.996-63.674t-62.647-150.969q0-14.378 5.135-42.107l14.378-66.755-77.025 2.054q-41.080 0-71.89-30.81t-30.81-75.998q0-44.161 30.81-75.998t77.025-31.837q21.567 0 36.972-15.405t15.405-36.972-15.405-37.999-36.972-15.405q-88.322 0-151.996 62.647t-62.647 150.969q0 74.971 45.188 132.483t115.024 74.971v6.162q0 132.483 94.484 226.968t226.968 93.457q103.727 0 185.888-58.539t116.051-155.077q116.051 8.216 201.293-70.863t84.214-196.158q0-110.916-78.052-188.969t-188.969-78.052zM568.962 306.787l-80.106-187.942 161.239-78.052-241.346-215.671 80.106 186.915-160.212 77.025z" />
<glyph unicode="&#xe814;" glyph-name="firefox" d="M517.61-167.691c-221.833 0-397.451 129.402-478.584 314.264-89.349 205.401-17.459 535.071 142.753 680.905l-6.162-160.212c8.216 9.243 69.836 12.324 80.106-1.027 32.864 63.674 139.672 111.943 225.941 112.97-32.864-26.702-108.862-127.348-101.673-178.699 41.080-13.351 105.781-13.351 139.672-15.405 10.27-6.162 8.216-41.080-12.324-69.836-27.729-37.999-99.619-50.323-99.619-50.323l8.216-108.862-79.079 39.026c-26.702-65.728 35.945-123.24 99.619-112.97 70.863 12.324 96.538 58.539 145.834 55.458 50.323-2.054 69.836-29.783 62.647-55.458-7.189-30.81-60.593-25.675-60.593-25.675-45.188-71.89-105.781-103.727-203.347-95.511 147.888-122.213 347.128-10.27 397.451 89.349 51.35 99.619 7.189 247.508-44.161 290.643 60.593-25.675 101.673-52.377 123.24-110.916 11.297 128.375-47.242 274.211-153.023 359.452 198.212-57.512 319.399-211.563 322.48-457.017s-216.698-500.151-509.394-500.151z" />
<glyph unicode="&#xe815;" glyph-name="chrome" d="M511.448 845.964c-150.969-1.027-298.859-68.809-397.451-191.023l158.158-243.4c40.053 113.997 154.050 186.915 274.211 174.59l425.18-22.594c-43.134 86.268-110.916 161.239-201.293 213.617-81.133 47.242-170.482 68.809-258.805 68.809zM84.214 613.862c-53.404-81.133-84.214-177.672-84.214-281.4 0-256.751 187.942-469.341 434.423-507.34l131.456 258.805c-119.132-22.594-239.292 40.053-288.589 149.942l-193.077 379.992zM993.115 517.323l-289.616-15.405c78.052-91.403 84.214-226.968 13.351-325.561l-232.103-356.371c96.538-6.162 195.131 15.405 285.508 67.782 221.833 128.375 312.21 397.451 222.86 629.555zM513.502 506.026c-95.511 0-173.563-78.052-173.563-173.563s78.052-173.563 173.563-173.563 173.563 78.052 173.563 173.563-78.052 173.563-173.563 173.563z" />
<glyph unicode="&#xe816;" glyph-name="opera" horiz-adv-x="874" d="M437.504-181.042c-583.34 0-583.34 1027.006 0 1027.006s582.313-1027.006 0-1027.006zM437.504-86.557c243.4 0 243.4 838.037 0 838.037s-244.427-838.037 0-838.037z" />
<glyph unicode="&#xe817;" glyph-name="ie" horiz-adv-x="970" d="M866.793 845.964c-83.187-1.027-185.888-47.242-288.589-108.862-245.454 35.945-511.448-105.781-522.745-396.424 61.62 95.511 230.049 263.941 376.911 309.129v-13.351c-183.834-92.43-586.421-628.528-369.722-793.876 92.43-70.863 318.372 37.999 353.29 78.052 29.783-5.135 60.593-8.216 91.403-8.216 206.428 0 381.019 126.321 435.45 299.886h-309.129c-13.351-57.512-57.512-94.484-124.267-94.484-104.754 0-129.402 69.836-129.402 155.077h576.151c29.783 209.509-117.078 394.37-314.264 450.855 178.699 118.105 372.803 165.347 307.075-106.808h20.54c35.945 111.943 21.567 196.158-39.026 218.752-18.486 7.189-37.999 10.27-59.566 10.27-1.027 0-3.081 0-4.108 0zM505.286 534.782c81.133 0 131.456-49.296 131.456-132.483h-258.805c0 79.079 47.242 132.483 127.348 132.483zM128.375 101.385c59.566-85.241 153.023-148.915 262.914-175.618-79.079-59.566-232.103-86.268-273.184-53.404-49.296 41.080-36.972 127.348 10.27 229.022z" />
<glyph unicode="&#xe818;" glyph-name="renren" horiz-adv-x="881" d="M649.068-53.692q-97.565-54.431-210.536-54.431-111.943 0-210.536 54.431 79.079 49.296 135.564 121.186t74.971 153.023q19.513-82.16 75.998-153.023t134.537-121.186zM365.614 764.831v-278.319q0-143.78-72.917-262.914t-188.969-175.618q-103.727 123.24-103.727 283.454 0 106.808 48.269 200.266t131.456 154.050 185.888 79.079zM880.145 331.435q0-160.212-103.727-283.454-117.078 56.485-188.969 175.618t-72.917 262.914v278.319q102.7-17.459 185.888-79.079t132.483-154.050 47.242-200.266z" />
<glyph unicode="&#xe819;" glyph-name="qq" d="M155.077 383.812q-5.135 11.297-5.135 29.783 0 11.297 6.162 28.756t14.378 25.675q-1.027 12.324 4.108 29.783t13.351 24.648q0 80.106 52.377 165.347t124.267 120.159q80.106 37.999 185.888 37.999 77.025 0 153.023-31.837 27.729-12.324 51.35-27.729t41.080-31.837 30.81-39.026 24.648-42.107 18.486-48.269 14.378-51.35 12.324-56.485l1.027-3.081q31.837-47.242 31.837-85.241 0-8.216-5.135-23.621t-5.135-21.567q0 0 0-2.054t2.054-3.081 1.027-2.054q44.161-64.701 69.836-122.213t24.648-120.159q0-24.648-11.297-56.485t-31.837-32.864q-5.135 0-11.297 4.108t-10.27 10.27-11.297 14.378-9.243 15.405-7.189 15.405-5.135 9.243q-1.027 1.027-2.054 1.027l-3.081-2.054q-33.891-88.322-75.998-128.375 12.324-11.297 35.945-21.567t39.026-23.621 20.54-37.999q-1.027-2.054-2.054-9.243t-4.108-10.27q-36.972-55.458-173.563-55.458-29.783 0-62.647 5.135t-56.485 11.297-59.566 17.459q-9.243 3.081-13.351 4.108-8.216 2.054-26.702 3.081t-22.594 0q-23.621-25.675-72.917-36.972t-96.538-11.297q-20.54 0-40.053 1.027t-53.404 5.135-57.512 11.297-43.134 23.621-18.486 35.945q0 23.621 6.162 33.891t23.621 28.756q6.162 1.027 22.594 7.189t28.756 6.162q2.054 0 8.216 2.054 1.027 1.027 1.027 2.054l-1.027 2.054q-27.729 6.162-61.62 59.566t-42.107 90.376l-3.081 1.027q-2.054 0-7.189-11.297-10.27-23.621-30.81-42.107t-44.161-21.567h-1.027q-2.054 0-3.081 2.054t-3.081 3.081q-13.351 30.81-13.351 57.512 0 158.158 144.807 267.022z" />
<glyph unicode="&#xe81a;" glyph-name="wechat" horiz-adv-x="1172" d="M332.75 582.025q0 23.621-14.378 37.999t-37.999 14.378q-24.648 0-43.134-15.405t-19.513-36.972q0-22.594 19.513-36.972t43.134-14.378 37.999 13.351 14.378 37.999zM757.93 291.382q0 15.405-14.378 28.756t-36.972 12.324q-16.432 0-28.756-13.351t-13.351-27.729q0-16.432 13.351-28.756t28.756-13.351q22.594 0 36.972 12.324t14.378 29.783zM623.393 582.025q0 23.621-14.378 37.999t-37.999 14.378q-24.648 0-43.134-15.405t-18.486-36.972q0-22.594 18.486-36.972t43.134-14.378q23.621 0 37.999 13.351t14.378 37.999zM986.953 291.382q0 15.405-15.405 28.756t-36.972 12.324q-15.405 0-27.729-13.351t-13.351-27.729q0-16.432 13.351-28.756t27.729-13.351q22.594 0 36.972 12.324t15.405 29.783zM833.929 518.35q-17.459 3.081-40.053 3.081-96.538 0-177.672-44.161t-128.375-120.159-46.215-164.32q0-45.188 13.351-87.295-20.54-2.054-39.026-2.054-15.405 0-28.756 1.027t-31.837 4.108-25.675 4.108-30.81 6.162-28.756 5.135l-144.807-71.89 41.080 124.267q-166.374 117.078-166.374 281.4 0 96.538 55.458 177.672t151.996 128.375 208.482 46.215q100.646 0 189.996-36.972t149.942-104.754 78.052-149.942zM1173.867 196.898q0-66.755-39.026-127.348t-106.808-110.916l31.837-103.727-113.997 61.62q-86.268-20.54-125.294-20.54-96.538 0-177.672 40.053t-128.375 109.889-47.242 150.969 47.242 151.996 128.375 108.862 177.672 41.080q92.43 0 173.563-41.080t130.429-109.889 49.296-150.969z" />
<glyph unicode="&#xe81b;" glyph-name="weibo" d="M387.181 110.628q11.297 18.486 6.162 39.026t-25.675 28.756q-19.513 8.216-42.107 0t-33.891-25.675q-13.351-19.513-8.216-39.026t24.648-29.783 43.134-1.027 35.945 27.729zM440.585 179.438q5.135 7.189 2.054 15.405t-10.27 10.27q-7.189 3.081-16.432 0t-12.324-10.27q-9.243-18.486 8.216-26.702 8.216-2.054 16.432 1.027t12.324 10.27zM540.206 117.817q-25.675-58.539-90.376-85.241t-128.375-7.189q-61.62 19.513-84.214 72.917t3.081 106.808q27.729 53.404 87.295 80.106t120.159 10.27q63.674-16.432 91.403-67.782t1.027-109.889zM718.904 210.249q-5.135 54.431-50.323 96.538t-120.159 62.647-157.131 12.324q-127.348-13.351-211.563-81.133t-75.998-151.996q5.135-54.431 51.35-96.538t119.132-62.647 157.131-12.324q128.375 13.351 211.563 81.133t75.998 151.996zM895.55 207.168q0-39.026-20.54-79.079t-62.647-79.079-96.538-66.755-129.402-48.269-155.077-17.459-158.158 19.513-137.618 52.377-98.592 87.295-36.972 113.997q0 65.728 40.053 140.699t112.97 147.888q96.538 96.538 196.158 134.537t140.699-3.081q36.972-36.972 11.297-120.159-2.054-8.216 0-11.297t5.135-4.108 8.216 0 8.216 2.054l3.081 1.027q80.106 33.891 141.726 33.891t87.295-34.918q25.675-35.945 0-101.673-1.027-8.216-3.081-11.297t3.081-7.189 7.189-5.135 9.243-3.081q32.864-10.27 59.566-26.702t45.188-47.242 19.513-66.755zM853.442 565.593q23.621-27.729 30.81-62.647t-3.081-67.782q-5.135-12.324-17.459-19.513t-25.675-2.054q-12.324 5.135-19.513 17.459t-2.054 25.675q11.297 35.945-13.351 62.647t-61.62 20.54q-13.351-3.081-25.675 4.108t-14.378 21.567q-3.081 14.378 5.135 25.675t20.54 14.378q34.918 7.189 68.809-3.081t57.512-37.999zM957.17 659.050q49.296-55.458 64.701-128.375t-8.216-137.618q-5.135-16.432-19.513-23.621t-29.783-2.054-22.594 19.513-3.081 29.783q16.432 47.242 6.162 98.592t-46.215 90.376q-35.945 40.053-85.241 54.431t-98.592 5.135q-16.432-3.081-29.783 6.162t-17.459 24.648 5.135 29.783 25.675 16.432q69.836 14.378 139.672-6.162t119.132-77.025z" />
<glyph unicode="&#xe81c;" glyph-name="github" horiz-adv-x="881" d="M880.145 332.462q0-143.78-84.214-258.805t-216.698-159.185q-15.405-3.081-22.594 4.108t-7.189 17.459v121.186q0 55.458-29.783 81.133 32.864 3.081 58.539 10.27t54.431 22.594 46.215 37.999 30.81 59.566 11.297 86.268q0 69.836-45.188 118.105 21.567 52.377-5.135 117.078-15.405 5.135-46.215-6.162t-52.377-25.675l-21.567-13.351q-53.404 15.405-109.889 15.405t-110.916-15.405q-8.216 6.162-23.621 15.405t-48.269 22.594-49.296 7.189q-24.648-64.701-4.108-117.078-45.188-48.269-45.188-118.105 0-48.269 12.324-85.241t29.783-60.593 46.215-37.999 53.404-22.594 58.539-10.27q-22.594-20.54-27.729-59.566-12.324-5.135-25.675-8.216t-32.864-3.081-36.972 12.324-31.837 35.945q-11.297 18.486-27.729 29.783t-28.756 14.378l-11.297 1.027q-12.324 0-16.432-2.054t-3.081-7.189 5.135-8.216 7.189-6.162l4.108-3.081q12.324-6.162 24.648-21.567t18.486-29.783l5.135-13.351q8.216-21.567 25.675-34.918t37.999-17.459 40.053-4.108 31.837 2.054l13.351 3.081q0-22.594 0-51.35t1.027-30.81q0-10.27-8.216-17.459t-22.594-4.108q-132.483 44.161-216.698 159.185t-84.214 258.805q0 120.159 59.566 220.806t159.185 160.212 221.833 59.566 220.806-59.566 160.212-160.212 58.539-220.806z" />
<glyph unicode="&#xe81d;" glyph-name="html5" horiz-adv-x="807" d="M648.041 503.972l9.243 100.646h-507.34l26.702-306.048h351.236l-12.324-131.456-112.97-29.783-112.97 29.783-7.189 80.106h-100.646l13.351-159.185 207.455-56.485h2.054l205.401 56.485 28.756 312.21h-368.695l-9.243 103.727h387.181zM0 773.047h807.227l-73.944-824.686-330.696-92.43-329.669 92.43z" />
<glyph unicode="&#xe81e;" glyph-name="css3" d="M157.131 773.047h862.685l-151.996-764.092-461.125-153.023-399.505 153.023 40.053 203.347h170.482l-16.432-84.214 241.346-91.403 279.346 91.403 39.026 195.131h-693.229l33.891 169.455h692.202l22.594 109.889h-692.202z" />
<glyph unicode="&#xe81f;" glyph-name="male" horiz-adv-x="1019" d="M0 187.655q0 153.023 107.835 260.859t260.859 108.862q108.862 0 201.293-58.539l204.374 204.374h-156.104v142.753h400.532v-401.559h-143.78v155.077l-201.293-203.347q64.701-93.457 64.701-208.482 0-151.996-108.862-260.859t-261.886-107.835-259.832 107.835-107.835 260.859zM148.915 188.682q0-90.376 63.674-156.104t155.077-64.701 157.131 64.701 64.701 156.104-64.701 156.104-157.131 63.674-155.077-63.674-63.674-156.104z" />
<glyph unicode="&#xe820;" glyph-name="female" horiz-adv-x="661" d="M0 515.269q0 136.591 96.538 233.13t232.103 97.565 234.157-97.565 97.565-233.13q0-119.132-77.025-209.509t-189.996-113.997v-105.781h140.699v-126.321h-140.699v-140.699h-126.321v140.699h-142.753v126.321h142.753v105.781q-115.024 22.594-191.023 113.997t-75.998 209.509zM130.429 515.269q0-82.16 58.539-140.699t139.672-58.539 140.699 58.539 58.539 140.699-58.539 140.699-140.699 57.512-139.672-57.512-58.539-140.699z" />
<glyph unicode="&#xe821;" glyph-name="plus" horiz-adv-x="807" d="M807.227 423.865v-109.889q0-22.594-16.432-39.026t-39.026-15.405h-238.265v-239.292q0-22.594-16.432-37.999t-39.026-16.432h-109.889q-22.594 0-39.026 16.432t-15.405 37.999v239.292h-238.265q-23.621 0-39.026 15.405t-16.432 39.026v109.889q0 23.621 16.432 39.026t39.026 16.432h238.265v238.265q0 22.594 15.405 39.026t39.026 16.432h109.889q23.621 0 39.026-16.432t16.432-39.026v-238.265h238.265q22.594 0 39.026-16.432t16.432-39.026z" />
<glyph unicode="&#xe822;" glyph-name="minus" horiz-adv-x="807" d="M807.227 423.865v-109.889q0-22.594-16.432-39.026t-39.026-15.405h-696.31q-23.621 0-39.026 15.405t-16.432 39.026v109.889q0 23.621 16.432 39.026t39.026 16.432h696.31q22.594 0 39.026-16.432t16.432-39.026z" />
<glyph unicode="&#xe823;" glyph-name="ok" d="M957.17 521.431q0-22.594-15.405-39.026l-492.962-492.962q-16.432-15.405-39.026-15.405t-39.026 15.405l-285.508 285.508q-15.405 16.432-15.405 39.026t15.405 39.026l78.052 78.052q16.432 16.432 39.026 16.432t39.026-16.432l168.428-169.455 375.884 376.911q16.432 16.432 39.026 16.432t39.026-16.432l78.052-78.052q15.405-16.432 15.405-39.026z" />
<glyph unicode="&#xe824;" glyph-name="cancel" horiz-adv-x="807" d="M743.552 88.034q0-22.594-15.405-39.026l-78.052-78.052q-16.432-15.405-39.026-15.405t-39.026 15.405l-168.428 169.455-168.428-169.455q-16.432-15.405-39.026-15.405t-39.026 15.405l-78.052 78.052q-16.432 16.432-16.432 39.026t16.432 39.026l168.428 168.428-168.428 168.428q-16.432 16.432-16.432 39.026t16.432 39.026l78.052 78.052q16.432 16.432 39.026 16.432t39.026-16.432l168.428-168.428 168.428 168.428q16.432 16.432 39.026 16.432t39.026-16.432l78.052-78.052q15.405-15.405 15.405-39.026t-15.405-39.026l-168.428-168.428 168.428-168.428q15.405-15.405 15.405-39.026z" />
<glyph unicode="&#xe825;" glyph-name="yen" horiz-adv-x="590" d="M346.101-34.179h-98.592q-8.216 0-13.351 5.135t-5.135 13.351v188.969h-165.347q-7.189 0-13.351 5.135t-5.135 13.351v58.539q0 7.189 5.135 13.351t13.351 5.135h165.347v49.296h-165.347q-7.189 0-13.351 5.135t-5.135 12.324v59.566q0 8.216 5.135 13.351t13.351 5.135h122.213l-183.834 331.723q-4.108 9.243 0 18.486 6.162 9.243 16.432 9.243h110.916q11.297 0 16.432-10.27l123.24-244.427q11.297-21.567 32.864-70.863 5.135 13.351 17.459 37.999t15.405 35.945l109.889 240.319q4.108 11.297 16.432 11.297h108.862q10.27 0 15.405-9.243 5.135-8.216 1.027-18.486l-179.726-331.723h123.24q7.189 0 13.351-5.135t5.135-13.351v-59.566q0-7.189-5.135-12.324t-13.351-5.135h-166.374v-49.296h166.374q7.189 0 13.351-5.135t5.135-13.351v-58.539q0-8.216-5.135-13.351t-13.351-5.135h-166.374v-188.969q0-8.216-5.135-13.351t-12.324-5.135z" />
<glyph unicode="&#xe826;" glyph-name="window" horiz-adv-x="1120" d="M1120.463 845.964v-653.176h-280.373v-373.83h-840.091v653.176h280.373v373.83h840.091zM840.091 286.247h186.915v372.803h-653.176v-186.915h466.26v-185.888zM93.457-87.584h653.176v373.83h-653.176v-373.83z" />
<glyph unicode="&#xe827;" glyph-name="play" horiz-adv-x="807" d="M792.849 315.003l-761.011-423.126q-13.351-7.189-22.594-2.054t-9.243 20.54v844.199q0 14.378 9.243 20.54t22.594-2.054l761.011-423.126q13.351-7.189 13.351-17.459t-13.351-17.459z" />
<glyph unicode="&#xe828;" glyph-name="skin" d="M1003.385 639.537l-161.239 128.375q-17.459 14.378-40.053 14.378h-585.394l-6.162-2.054q-4.108 0-7.189-2.054t-7.189-3.081-5.135-3.081l-6.162-4.108-161.239-128.375q-15.405-13.351-21.567-31.837t1.027-37.999l63.674-193.077q3.081-7.189 7.189-13.351t9.243-11.297 11.297-9.243 13.351-7.189q10.27-3.081 20.54-3.081 17.459 0 31.837 9.243v-394.37q0-25.675 19.513-45.188t45.188-19.513h577.178q26.702 0 45.188 19.513t19.513 45.188v394.37q14.378-9.243 31.837-9.243 11.297 0 21.567 3.081 29.783 11.297 40.053 41.080l63.674 193.077q6.162 18.486 1.027 37.999t-21.567 31.837zM633.663 717.589q-12.324-27.729-46.215-46.215t-73.944-17.459-73.944 17.459-46.215 46.215h240.319zM898.631 397.163l-96.538 63.674v-513.502h-577.178v513.502l-96.538-63.674-63.674 192.050 160.212 128.375h134.537q12.324-42.107 55.458-68.809t98.592-27.729q26.702 0 52.377 8.216t46.215 19.513 34.918 29.783 20.54 39.026h134.537l161.239-128.375z" />
<glyph unicode="&#xe829;" glyph-name="layout" d="M0-105.043l951.008 951.008 75.998-75.998-951.008-951.008zM0 316.030v241.346h240.319v-241.346h-240.319zM0 603.592v240.319h240.319v-240.319h-240.319zM282.427 316.030v241.346h241.346zM282.427 603.592v240.319h241.346v-240.319h-241.346zM525.828-178.988v134.537h501.178v-134.537h-501.178zM525.828-6.45v134.537h501.178v-134.537h-501.178zM557.665 166.086l148.915 134.537h320.426v-134.537h-469.341z" />
<glyph unicode="&#xe82a;" glyph-name="row4" d="M1027.006 845.964v-164.32h-1027.006v164.32h1027.006zM1027.006 558.404v-164.32h-1027.006v164.32h1027.006zM1027.006 270.842v-164.32h-1027.006v164.32h1027.006zM1027.006-16.72v-164.32h-1027.006v164.32h1027.006z" />
<glyph unicode="&#xe82b;" glyph-name="col4" d="M1027.006 845.964h-164.32v-1027.006h164.32v1027.006zM739.444 845.964h-164.32v-1027.006h164.32v1027.006zM451.882 845.964h-164.32v-1027.006h164.32v1027.006zM164.32 845.964h-164.32v-1027.006h164.32v1027.006z" />
<glyph unicode="&#xe82c;" glyph-name="cor4" d="M1027.006 845.964v-451.882h-451.882v451.882h451.882zM698.364 517.323h205.401v205.401h-205.401v-205.401zM451.882 845.964v-451.882h-451.882v451.882h451.882zM123.24 517.323h205.401v205.401h-205.401v-205.401zM1027.006 270.842v-451.882h-451.882v451.882h451.882zM698.364-57.8h205.401v205.401h-205.401v-205.401zM451.882 270.842v-451.882h-451.882v451.882h451.882zM123.24-57.8h205.401v205.401h-205.401v-205.401z" />
<glyph unicode="&#xe82d;" glyph-name="lib" horiz-adv-x="658" d="M534.044 96.25q51.35 0 87.295-35.945t35.945-87.295-35.945-87.295-87.295-35.945q-82.16 0-112.97 75.998h-168.428q-90.376 0-134.537 55.458t-44.161 121.186v476.53q-73.944 34.918-73.944 112.97 0 51.35 35.945 87.295t87.295 35.945 87.295-35.945 35.945-87.295q0-78.052-73.944-112.97v-117.078q0-80.106 80.106-80.106h168.428q30.81 73.944 112.97 73.944 51.35 0 87.295-35.945t35.945-87.295-35.945-87.295-87.295-35.945q-82.16 0-112.97 75.998h-168.428q-43.134 0-80.106 16.432v-199.239q0-80.106 80.106-80.106h168.428q30.81 73.944 112.97 73.944zM534.044 404.352q-28.756 0-50.323-20.54t-21.567-51.35q0-28.756 21.567-49.296t50.323-20.54 50.323 20.54 21.567 49.296q0 30.81-21.567 51.35t-50.323 20.54zM51.35 691.914q0-28.756 21.567-49.296t50.323-20.54 50.323 20.54 21.567 49.296q0 30.81-21.567 51.35t-50.323 20.54-50.323-20.54-21.567-51.35zM534.044-96.827q28.756 0 50.323 20.54t21.567 49.296q0 30.81-21.567 51.35t-50.323 20.54-50.323-20.54-21.567-51.35q0-28.756 21.567-49.296t50.323-20.54z" />
<glyph unicode="&#xe82e;" glyph-name="auto" horiz-adv-x="881" d="M865.766 241.059q0-3.081 0-4.108-36.972-154.050-154.050-249.562t-274.211-95.511q-83.187 0-161.239 31.837t-139.672 90.376l-73.944-73.944q-11.297-11.297-25.675-11.297t-25.675 11.297-11.297 25.675v256.751q0 14.378 11.297 25.675t25.675 11.297h256.751q14.378 0 25.675-11.297t10.27-25.675-10.27-25.675l-79.079-79.079q41.080-37.999 92.43-58.539t107.835-20.54q75.998 0 142.753 37.999t106.808 101.673q6.162 10.27 29.783 67.782 5.135 13.351 17.459 13.351h109.889q8.216 0 13.351-6.162t5.135-12.324zM880.145 699.103v-256.751q0-14.378-10.27-25.675t-26.702-11.297h-256.751q-14.378 0-25.675 11.297t-10.27 25.675 10.27 25.675l79.079 79.079q-84.214 79.079-199.239 79.079-77.025 0-143.78-37.999t-106.808-101.673q-6.162-10.27-29.783-67.782-5.135-13.351-17.459-13.351h-113.997q-7.189 0-13.351 6.162t-5.135 12.324v4.108q36.972 154.050 155.077 249.562t275.238 95.511q83.187 0 162.266-31.837t140.699-90.376l73.944 73.944q11.297 11.297 25.675 11.297t26.702-11.297 10.27-25.675z" />
<glyph unicode="&#xe82f;" glyph-name="save" horiz-adv-x="881" d="M219.779-34.179h440.585v219.779h-440.585v-219.779zM733.282-34.179h73.944v513.502q0 8.216-6.162 21.567t-11.297 20.54l-161.239 160.212q-5.135 6.162-19.513 12.324t-22.594 5.135v-238.265q0-22.594-15.405-39.026t-39.026-16.432h-330.696q-22.594 0-37.999 16.432t-16.432 39.026v238.265h-73.944v-733.282h73.944v238.265q0 22.594 16.432 39.026t37.999 16.432h477.557q22.594 0 39.026-16.432t15.405-39.026v-238.265zM513.502 497.81v182.807q0 8.216-5.135 13.351t-13.351 5.135h-109.889q-7.189 0-13.351-5.135t-5.135-13.351v-182.807q0-8.216 5.135-13.351t13.351-5.135h109.889q7.189 0 13.351 5.135t5.135 13.351zM880.145 479.324v-531.99q0-22.594-15.405-39.026t-39.026-16.432h-770.254q-23.621 0-39.026 16.432t-16.432 39.026v770.254q0 22.594 16.432 39.026t39.026 16.432h530.963q23.621 0 51.35-12.324t43.134-26.702l160.212-161.239q16.432-15.405 27.729-43.134t11.297-50.323z" />
<glyph unicode="&#xe830;" glyph-name="file-code" horiz-adv-x="881" d="M841.118 628.24q16.432-16.432 27.729-43.134t11.297-51.35v-659.338q0-23.621-15.405-39.026t-39.026-16.432h-770.254q-23.621 0-39.026 16.432t-16.432 39.026v916.090q0 23.621 16.432 39.026t39.026 16.432h513.502q22.594 0 50.323-11.297t43.134-27.729zM586.421 767.912v-215.671h215.671q-5.135 16.432-12.324 23.621l-179.726 179.726q-6.162 7.189-23.621 12.324zM807.227-108.124v587.448h-238.265q-23.621 0-39.026 15.405t-16.432 39.026v239.292h-440.585v-881.172h734.309zM275.238 405.379q4.108 7.189 12.324 7.189t13.351-3.081l28.756-21.567q7.189-5.135 7.189-12.324t-3.081-14.378l-104.754-138.645 104.754-139.672q4.108-6.162 3.081-13.351t-7.189-12.324l-28.756-21.567q-6.162-4.108-13.351-4.108t-12.324 7.189l-129.402 172.536q-8.216 11.297 0 21.567zM734.309 232.843q8.216-10.27 0-21.567l-129.402-172.536q-4.108-6.162-11.297-7.189t-14.378 4.108l-28.756 21.567q-6.162 5.135-7.189 12.324t3.081 13.351l104.754 139.672-104.754 138.645q-4.108 7.189-3.081 14.378t7.189 12.324l28.756 21.567q6.162 4.108 14.378 3.081t11.297-7.189zM378.965-31.098q-7.189 1.027-11.297 7.189t-3.081 14.378l79.079 476.53q1.027 7.189 7.189 11.297t14.378 3.081l35.945-5.135q7.189-2.054 11.297-8.216t3.081-13.351l-79.079-476.53q-1.027-7.189-7.189-11.297t-13.351-3.081z" />
<glyph unicode="&#xe831;" glyph-name="code" horiz-adv-x="1100" d="M353.29 43.873l-28.756-28.756q-5.135-5.135-12.324-5.135t-13.351 5.135l-267.022 267.022q-6.162 6.162-6.162 13.351t6.162 13.351l267.022 267.022q5.135 6.162 13.351 6.162t12.324-6.162l28.756-28.756q6.162-5.135 6.162-13.351t-6.162-12.324l-224.914-225.941 224.914-224.914q6.162-6.162 6.162-13.351t-6.162-13.351zM692.202 655.969l-213.617-740.471q-2.054-7.189-9.243-11.297t-13.351-1.027l-34.918 9.243q-8.216 3.081-11.297 9.243t-2.054 14.378l213.617 739.444q3.081 8.216 9.243 11.297t13.351 2.054l35.945-10.27q7.189-2.054 11.297-9.243t1.027-13.351zM1069.113 282.139l-267.022-267.022q-6.162-5.135-13.351-5.135t-13.351 5.135l-28.756 28.756q-5.135 6.162-5.135 13.351t5.135 13.351l224.914 224.914-224.914 225.941q-5.135 5.135-5.135 12.324t5.135 13.351l28.756 28.756q6.162 6.162 13.351 6.162t13.351-6.162l267.022-267.022q5.135-5.135 5.135-13.351t-5.135-13.351z" />
<glyph unicode="&#xe832;" glyph-name="search" horiz-adv-x="953" d="M660.365 369.434q0 105.781-75.998 180.753t-180.753 75.998-181.78-75.998-74.971-180.753 74.971-181.78 181.78-74.971 180.753 74.971 75.998 181.78zM954.089-108.124q0-29.783-22.594-51.35t-51.35-21.567q-30.81 0-51.35 21.567l-196.158 196.158q-102.7-70.863-229.022-70.863-82.16 0-157.131 31.837t-128.375 86.268-86.268 128.375-31.837 157.131 31.837 156.104 86.268 129.402 128.375 86.268 157.131 31.837 156.104-31.837 129.402-86.268 86.268-129.402 31.837-156.104q0-126.321-70.863-229.022l196.158-196.158q21.567-21.567 21.567-52.377z" />
<glyph unicode="&#xe833;" glyph-name="filter" horiz-adv-x="807" d="M804.146 676.509q9.243-23.621-8.216-40.053l-282.427-282.427v-425.18q0-23.621-22.594-33.891-7.189-3.081-14.378-3.081-15.405 0-25.675 11.297l-146.861 146.861q-10.27 10.27-10.27 25.675v278.319l-282.427 282.427q-18.486 16.432-8.216 40.053 9.243 22.594 33.891 22.594h733.282q23.621 0 33.891-22.594z" />
<glyph unicode="&#xe834;" glyph-name="edit" d="M509.394 167.113l65.728 66.755-87.295 87.295-65.728-66.755v-31.837h54.431v-55.458h32.864zM761.011 579.971q-9.243 9.243-18.486 0l-201.293-201.293q-9.243-9.243 0-18.486t18.486 0l201.293 201.293q9.243 9.243 0 18.486zM807.227 240.032v-108.862q0-68.809-48.269-117.078t-117.078-48.269h-476.53q-68.809 0-117.078 48.269t-48.269 117.078v476.53q0 67.782 48.269 116.051t117.078 49.296h476.53q35.945 0 66.755-14.378 9.243-4.108 10.27-13.351 2.054-10.27-5.135-16.432l-27.729-28.756q-8.216-8.216-18.486-4.108-13.351 3.081-25.675 3.081h-476.53q-37.999 0-64.701-26.702t-27.729-64.701v-476.53q0-37.999 27.729-64.701t64.701-27.729h476.53q37.999 0 64.701 27.729t26.702 64.701v71.89q0 7.189 5.135 12.324l36.972 36.972q8.216 8.216 20.54 4.108t11.297-16.432zM751.768 662.131l165.347-164.32-385.127-385.127h-165.347v164.32zM1006.466 587.16l-52.377-53.404-165.347 165.347 52.377 52.377q16.432 16.432 39.026 16.432t39.026-16.432l87.295-86.268q16.432-16.432 16.432-39.026t-16.432-39.026z" />
<glyph unicode="&#xe835;" glyph-name="folder" horiz-adv-x="1100" d="M1020.844 311.922q0 20.54-30.81 20.54h-623.393q-22.594 0-49.296-12.324t-40.053-29.783l-168.428-208.482q-11.297-13.351-11.297-22.594 0-20.54 30.81-20.54h623.393q22.594 0 49.296 13.351t41.080 29.783l168.428 208.482q10.27 12.324 10.27 21.567zM366.641 405.379h440.585v92.43q0 22.594-16.432 39.026t-39.026 15.405h-329.669q-23.621 0-39.026 16.432t-16.432 39.026v36.972q0 22.594-15.405 39.026t-39.026 15.405h-183.834q-22.594 0-39.026-15.405t-16.432-39.026v-488.854l146.861 179.726q25.675 30.81 66.755 50.323t80.106 19.513zM1093.761 311.922q0-34.918-25.675-67.782l-169.455-208.482q-24.648-30.81-66.755-50.323t-80.106-19.513h-623.393q-52.377 0-90.376 37.999t-37.999 90.376v550.476q0 52.377 37.999 90.376t90.376 37.999h183.834q52.377 0 90.376-37.999t37.999-90.376v-18.486h311.183q52.377 0 90.376-37.999t37.999-90.376v-92.43h109.889q30.81 0 57.512-13.351t37.999-41.080q8.216-17.459 8.216-39.026z" />
<glyph unicode="&#xe836;" glyph-name="tags" horiz-adv-x="1100" d="M256.751 589.214q0 30.81-21.567 52.377t-51.35 20.54-52.377-20.54-21.567-52.377 21.567-51.35 52.377-21.567 51.35 21.567 21.567 51.35zM867.82 259.545q0-30.81-20.54-52.377l-281.4-281.4q-22.594-21.567-52.377-21.567-30.81 0-51.35 21.567l-409.775 409.775q-21.567 21.567-36.972 58.539t-15.405 66.755v238.265q0 29.783 21.567 51.35t51.35 22.594h239.292q29.783 0 66.755-15.405t58.539-36.972l409.775-409.775q20.54-21.567 20.54-51.35zM1088.626 259.545q0-30.81-21.567-52.377l-281.4-281.4q-22.594-21.567-52.377-21.567-20.54 0-33.891 8.216t-29.783 25.675l269.076 269.076q21.567 21.567 21.567 52.377 0 29.783-21.567 51.35l-409.775 409.775q-21.567 21.567-58.539 36.972t-66.755 15.405h128.375q29.783 0 66.755-15.405t58.539-36.972l409.775-409.775q21.567-21.567 21.567-51.35z" />
<glyph unicode="&#xe837;" glyph-name="settle" horiz-adv-x="881" d="M586.421 332.462q0 60.593-42.107 103.727t-103.727 43.134-103.727-43.134-43.134-103.727 43.134-103.727 103.727-43.134 103.727 43.134 42.107 103.727zM880.145 395.109v-127.348q0-7.189-4.108-13.351t-11.297-7.189l-106.808-16.432q-10.27-30.81-21.567-52.377 19.513-27.729 60.593-79.079 6.162-6.162 6.162-13.351t-5.135-13.351q-15.405-21.567-56.485-62.647t-54.431-40.053q-7.189 0-14.378 5.135l-79.079 61.62q-25.675-13.351-52.377-21.567-9.243-78.052-16.432-106.808-4.108-16.432-20.54-16.432h-127.348q-8.216 0-14.378 5.135t-6.162 12.324l-16.432 105.781q-27.729 9.243-51.35 21.567l-81.133-61.62q-6.162-5.135-14.378-5.135t-14.378 6.162q-71.89 65.728-94.484 96.538-4.108 5.135-4.108 13.351 0 6.162 5.135 12.324 8.216 12.324 28.756 37.999t30.81 41.080q-15.405 28.756-23.621 56.485l-104.754 15.405q-7.189 1.027-11.297 7.189t-5.135 13.351v127.348q0 7.189 5.135 13.351t10.27 7.189l106.808 16.432q8.216 25.675 22.594 52.377-23.621 32.864-61.62 79.079-6.162 7.189-6.162 14.378 0 5.135 5.135 12.324 15.405 20.54 56.485 61.62t54.431 41.080q7.189 0 15.405-5.135l79.079-61.62q24.648 13.351 51.35 21.567 9.243 78.052 17.459 106.808 3.081 15.405 20.54 15.405h127.348q7.189 0 13.351-4.108t7.189-12.324l15.405-105.781q28.756-9.243 51.35-21.567l82.16 61.62q5.135 5.135 13.351 5.135 7.189 0 14.378-5.135 73.944-68.809 94.484-97.565 4.108-5.135 4.108-13.351 0-6.162-4.108-12.324-9.243-12.324-29.783-39.026t-30.81-40.053q14.378-28.756 23.621-56.485l104.754-15.405q7.189-1.027 12.324-7.189t4.108-13.351z" />
<glyph unicode="&#xe838;" glyph-name="warming" d="M586.421 58.251v108.862q0 8.216-5.135 13.351t-12.324 5.135h-110.916q-7.189 0-12.324-5.135t-5.135-13.351v-108.862q0-8.216 5.135-13.351t12.324-6.162h110.916q7.189 0 12.324 6.162t5.135 13.351zM585.394 271.869l10.27 263.941q0 6.162-5.135 10.27-7.189 6.162-14.378 6.162h-125.294q-7.189 0-14.378-6.162-5.135-4.108-5.135-12.324l9.243-261.886q0-5.135 6.162-9.243t13.351-3.081h105.781q8.216 0 13.351 3.081t6.162 9.243zM578.205 807.965l439.558-807.227q20.54-35.945-1.027-71.89-10.27-17.459-26.702-26.702t-35.945-10.27h-881.172q-18.486 0-35.945 10.27t-26.702 26.702q-21.567 35.945-1.027 71.89l440.585 807.227q9.243 17.459 26.702 27.729t36.972 10.27 36.972-10.27 27.729-27.729z" />
<glyph unicode="&#xe839;" glyph-name="home" horiz-adv-x="953" d="M807.227 277.004v-274.211q0-15.405-11.297-26.702t-25.675-10.27h-219.779v219.779h-146.861v-219.779h-219.779q-15.405 0-25.675 10.27t-11.297 26.702v274.211q0 1.027 0 2.054t0 2.054l329.669 271.13 329.669-271.13q1.027-1.027 1.027-4.108zM934.576 317.057l-34.918-42.107q-5.135-5.135-12.324-6.162h-2.054q-7.189 0-12.324 3.081l-396.424 330.696-396.424-330.696q-7.189-4.108-13.351-4.108-7.189 2.054-12.324 7.189l-35.945 42.107q-4.108 5.135-3.081 13.351t6.162 12.324l411.829 343.020q18.486 15.405 43.134 15.405t44.161-15.405l139.672-117.078v111.943q0 8.216 5.135 13.351t13.351 5.135h109.889q8.216 0 13.351-5.135t5.135-13.351v-233.13l125.294-104.754q5.135-5.135 6.162-12.324t-4.108-13.351z" />
<glyph unicode="&#xe83a;" glyph-name="user" horiz-adv-x="807" d="M807.227 40.792q0-68.809-42.107-108.862t-110.916-40.053h-501.178q-68.809 0-110.916 40.053t-42.107 108.862q0 30.81 2.054 59.566t8.216 62.647 15.405 61.62 24.648 56.485 34.918 46.215 49.296 30.81 63.674 11.297q5.135 0 24.648-12.324t42.107-27.729 61.62-27.729 77.025-12.324 75.998 12.324 62.647 27.729 42.107 27.729 24.648 12.324q34.918 0 63.674-11.297t49.296-30.81 34.918-46.215 24.648-56.485 15.405-61.62 8.216-62.647 2.054-59.566zM623.393 552.242q0-90.376-64.701-155.077t-155.077-64.701-156.104 64.701-63.674 155.077 63.674 156.104 156.104 64.701 155.077-64.701 64.701-156.104z" />
<glyph unicode="&#xe83b;" glyph-name="group" horiz-adv-x="1100" d="M339.939 332.462q-92.43-3.081-151.996-72.917h-77.025q-46.215 0-79.079 22.594t-31.837 67.782q0 202.32 70.863 202.32 4.108 0 25.675-11.297t55.458-24.648 67.782-12.324q39.026 0 77.025 13.351-3.081-21.567-3.081-37.999 0-80.106 46.215-146.861zM954.089-33.152q0-67.782-42.107-107.835t-110.916-40.053h-501.178q-69.836 0-110.916 40.053t-42.107 107.835q0 30.81 2.054 59.566t8.216 62.647 14.378 62.647 24.648 55.458 35.945 46.215 49.296 30.81 63.674 11.297q6.162 0 24.648-12.324t42.107-26.702 60.593-27.729 78.052-12.324 77.025 12.324 61.62 27.729 42.107 26.702 23.621 12.324q35.945 0 64.701-11.297t48.269-30.81 35.945-46.215 24.648-55.458 15.405-62.647 8.216-62.647 2.054-59.566zM366.641 699.103q0-60.593-43.134-103.727t-103.727-43.134-103.727 43.134-43.134 103.727 43.134 103.727 103.727 43.134 103.727-43.134 43.134-103.727zM770.254 479.324q0-91.403-64.701-156.104t-155.077-63.674-156.104 63.674-64.701 156.104 64.701 155.077 156.104 64.701 155.077-64.701 64.701-155.077zM1099.923 349.921q0-44.161-31.837-67.782t-79.079-22.594h-77.025q-58.539 69.836-150.969 72.917 46.215 66.755 46.215 146.861 0 16.432-3.081 37.999 37.999-13.351 75.998-13.351 33.891 0 68.809 12.324t55.458 24.648 24.648 11.297q70.863 0 70.863-202.32zM1027.006 699.103q0-60.593-43.134-103.727t-103.727-43.134-103.727 43.134-43.134 103.727 43.134 103.727 103.727 43.134 103.727-43.134 43.134-103.727z" />
<glyph unicode="&#xe83c;" glyph-name="copyright" horiz-adv-x="881" d="M659.338 230.789v-62.647q0-28.756-21.567-51.35t-53.404-34.918-67.782-18.486-66.755-6.162q-118.105 0-197.185 80.106t-78.052 198.212q0 116.051 78.052 194.104t194.104 78.052q19.513 0 43.134-3.081t53.404-10.27 52.377-19.513 40.053-31.837 15.405-46.215v-62.647q0-9.243-8.216-9.243h-67.782q-9.243 0-9.243 9.243v40.053q0 24.648-37.999 39.026t-78.052 13.351q-81.133 0-131.456-52.377t-50.323-135.564q0-87.295 52.377-143.78t133.51-56.485q39.026 0 79.079 14.378t40.053 37.999v40.053q0 4.108 3.081 6.162t5.135 3.081h68.809q3.081 0 6.162-3.081t3.081-6.162zM440.585 699.103q-74.971 0-142.753-28.756t-117.078-78.052-78.052-117.078-29.783-142.753 29.783-142.753 78.052-116.051 117.078-79.079 142.753-28.756 141.726 28.756 117.078 79.079 78.052 116.051 29.783 142.753-29.783 142.753-78.052 117.078-117.078 78.052-141.726 28.756zM880.145 332.462q0-120.159-58.539-220.806t-160.212-160.212-220.806-59.566-221.833 59.566-159.185 160.212-59.566 220.806 59.566 220.806 159.185 160.212 221.833 59.566 220.806-59.566 160.212-160.212 58.539-220.806z" />
<glyph unicode="&#xe83d;" glyph-name="talk" d="M403.613 626.186q-87.295 0-164.32-29.783t-121.186-81.133-45.188-109.889q0-46.215 30.81-90.376t85.241-74.971l55.458-32.864-19.513-47.242q19.513 11.297 34.918 21.567l25.675 18.486 30.81-6.162q44.161-8.216 87.295-8.216 87.295 0 163.293 29.783t121.186 81.133 45.188 108.862-45.188 109.889-121.186 81.133-163.293 29.783zM403.613 699.103q108.862 0 202.32-39.026t146.861-106.808 54.431-147.888-54.431-146.861-146.861-106.808-202.32-39.026q-49.296 0-100.646 9.243-71.89-50.323-159.185-73.944-21.567-5.135-49.296-9.243h-2.054q-6.162 0-12.324 5.135t-6.162 12.324q-1.027 1.027-1.027 3.081t1.027 4.108 1.027 3.081l1.027 3.081t2.054 3.081 2.054 3.081 3.081 3.081 2.054 2.054q3.081 3.081 13.351 14.378t15.405 16.432 12.324 17.459 14.378 21.567 11.297 25.675q-70.863 41.080-110.916 100.646t-41.080 128.375q0 80.106 54.431 147.888t146.861 106.808 202.32 39.026zM875.010 29.495q5.135-14.378 11.297-25.675t14.378-21.567 13.351-16.432 14.378-17.459 13.351-14.378q0 0 2.054-2.054t3.081-3.081 2.054-3.081 2.054-3.081l1.027-3.081t1.027-3.081 1.027-4.108-1.027-3.081q-2.054-8.216-7.189-13.351t-13.351-4.108q-27.729 4.108-49.296 9.243-87.295 23.621-159.185 73.944-51.35-9.243-100.646-9.243-155.077 0-270.103 75.998 32.864-3.081 50.323-3.081 92.43 0 176.645 25.675t151.996 73.944q70.863 53.404 109.889 122.213t37.999 144.807q0 44.161-13.351 87.295 73.944-40.053 117.078-101.673t43.134-131.456q0-68.809-41.080-129.402t-110.916-100.646z" />
<glyph unicode="&#xe83e;" glyph-name="calendar" horiz-adv-x="953" d="M72.917-108.124h807.227v587.448h-807.227v-587.448zM293.724 589.214v165.347q0 8.216-5.135 13.351t-13.351 5.135h-36.972q-8.216 0-13.351-5.135t-5.135-13.351v-165.347q0-8.216 5.135-13.351t13.351-5.135h36.972q8.216 0 13.351 5.135t5.135 13.351zM733.282 589.214v165.347q0 8.216-5.135 13.351t-13.351 5.135h-35.945q-8.216 0-13.351-5.135t-5.135-13.351v-165.347q0-8.216 5.135-13.351t13.351-5.135h35.945q8.216 0 13.351 5.135t5.135 13.351zM954.089 626.186v-734.309q0-29.783-22.594-51.35t-51.35-21.567h-807.227q-29.783 0-51.35 21.567t-21.567 51.35v734.309q0 29.783 21.567 51.35t51.35 21.567h73.944v55.458q0 36.972 26.702 64.701t64.701 26.702h36.972q37.999 0 64.701-26.702t26.702-64.701v-55.458h219.779v55.458q0 36.972 27.729 64.701t64.701 26.702h35.945q37.999 0 64.701-26.702t27.729-64.701v-55.458h72.917q29.783 0 51.35-21.567t22.594-51.35z" />
<glyph unicode="&#xe83f;" glyph-name="document" horiz-adv-x="881" d="M841.118 628.24q16.432-16.432 27.729-43.134t11.297-51.35v-659.338q0-23.621-15.405-39.026t-39.026-16.432h-770.254q-23.621 0-39.026 16.432t-16.432 39.026v916.090q0 23.621 16.432 39.026t39.026 16.432h513.502q22.594 0 50.323-11.297t43.134-27.729zM586.421 767.912v-215.671h215.671q-5.135 16.432-12.324 23.621l-179.726 179.726q-6.162 7.189-23.621 12.324zM807.227-108.124v587.448h-238.265q-23.621 0-39.026 15.405t-16.432 39.026v239.292h-440.585v-881.172h734.309zM219.779 387.92q0 7.189 5.135 12.324t13.351 5.135h403.613q8.216 0 13.351-5.135t5.135-12.324v-36.972q0-8.216-5.135-13.351t-13.351-5.135h-403.613q-8.216 0-13.351 5.135t-5.135 13.351v36.972zM641.879 259.545q8.216 0 13.351-5.135t5.135-13.351v-36.972q0-8.216-5.135-13.351t-13.351-5.135h-403.613q-8.216 0-13.351 5.135t-5.135 13.351v36.972q0 8.216 5.135 13.351t13.351 5.135h403.613zM641.879 112.682q8.216 0 13.351-5.135t5.135-13.351v-36.972q0-8.216-5.135-13.351t-13.351-5.135h-403.613q-8.216 0-13.351 5.135t-5.135 13.351v36.972q0 8.216 5.135 13.351t13.351 5.135h403.613z" />
<glyph unicode="&#xe840;" glyph-name="editor" horiz-adv-x="1100" d="M219.779 176.356v-54.431q0-9.243-9.243-9.243h-54.431q-9.243 0-9.243 9.243v54.431q0 9.243 9.243 9.243h54.431q9.243 0 9.243-9.243zM293.724 323.219v-54.431q0-9.243-9.243-9.243h-128.375q-9.243 0-9.243 9.243v54.431q0 9.243 9.243 9.243h128.375q9.243 0 9.243-9.243zM219.779 470.081v-55.458q0-9.243-9.243-9.243h-54.431q-9.243 0-9.243 9.243v55.458q0 9.243 9.243 9.243h54.431q9.243 0 9.243-9.243zM807.227 176.356v-54.431q0-9.243-9.243-9.243h-495.016q-9.243 0-9.243 9.243v54.431q0 9.243 9.243 9.243h495.016q9.243 0 9.243-9.243zM440.585 323.219v-54.431q0-9.243-9.243-9.243h-55.458q-9.243 0-9.243 9.243v54.431q0 9.243 9.243 9.243h55.458q9.243 0 9.243-9.243zM366.641 470.081v-55.458q0-9.243-9.243-9.243h-54.431q-9.243 0-9.243 9.243v55.458q0 9.243 9.243 9.243h54.431q9.243 0 9.243-9.243zM586.421 323.219v-54.431q0-9.243-8.216-9.243h-55.458q-9.243 0-9.243 9.243v54.431q0 9.243 9.243 9.243h55.458q8.216 0 8.216-9.243zM513.502 470.081v-55.458q0-9.243-9.243-9.243h-54.431q-9.243 0-9.243 9.243v55.458q0 9.243 9.243 9.243h54.431q9.243 0 9.243-9.243zM733.282 323.219v-54.431q0-9.243-9.243-9.243h-54.431q-9.243 0-9.243 9.243v54.431q0 9.243 9.243 9.243h54.431q9.243 0 9.243-9.243zM954.089 176.356v-54.431q0-9.243-9.243-9.243h-55.458q-9.243 0-9.243 9.243v54.431q0 9.243 9.243 9.243h55.458q9.243 0 9.243-9.243zM660.365 470.081v-55.458q0-9.243-9.243-9.243h-55.458q-9.243 0-9.243 9.243v55.458q0 9.243 9.243 9.243h55.458q9.243 0 9.243-9.243zM807.227 470.081v-55.458q0-9.243-9.243-9.243h-55.458q-9.243 0-9.243 9.243v55.458q0 9.243 9.243 9.243h55.458q9.243 0 9.243-9.243zM954.089 470.081v-201.293q0-9.243-9.243-9.243h-128.375q-9.243 0-9.243 9.243v54.431q0 9.243 9.243 9.243h63.674v137.618q0 9.243 9.243 9.243h55.458q9.243 0 9.243-9.243zM1027.006 38.738v513.502h-954.089v-513.502h954.089zM1099.923 552.242v-513.502q0-29.783-21.567-51.35t-51.35-21.567h-954.089q-29.783 0-51.35 21.567t-21.567 51.35v513.502q0 30.81 21.567 52.377t51.35 21.567h954.089q30.81 0 51.35-21.567t21.567-52.377z" />
<glyph unicode="&#xe841;" glyph-name="bookmark" horiz-adv-x="734" d="M660.365 699.103h-587.448v-711.715l293.724 281.4 51.35-48.269 242.373-233.13v711.715zM667.554 773.047q12.324 0 24.648-5.135 19.513-8.216 29.783-23.621t11.297-35.945v-738.417q0-19.513-11.297-35.945t-29.783-23.621q-10.27-4.108-24.648-4.108-27.729 0-48.269 18.486l-252.643 242.373-252.643-242.373q-20.54-19.513-47.242-19.513-13.351 0-25.675 5.135-18.486 7.189-29.783 23.621t-11.297 35.945v738.417q0 19.513 11.297 35.945t29.783 23.621q12.324 5.135 25.675 5.135h600.799z" />
<glyph unicode="&#xe842;" glyph-name="bookmark-full" horiz-adv-x="734" d="M667.554 773.047q12.324 0 24.648-5.135 19.513-8.216 29.783-23.621t11.297-35.945v-738.417q0-19.513-11.297-35.945t-29.783-23.621q-10.27-4.108-24.648-4.108-27.729 0-48.269 18.486l-252.643 242.373-252.643-242.373q-20.54-19.513-47.242-19.513-13.351 0-25.675 5.135-18.486 7.189-29.783 23.621t-11.297 35.945v738.417q0 19.513 11.297 35.945t29.783 23.621q12.324 5.135 25.675 5.135h600.799z" />
<glyph unicode="&#xe843;" glyph-name="rss" horiz-adv-x="807" d="M219.779 75.71q0-46.215-31.837-78.052t-78.052-31.837-78.052 31.837-31.837 78.052 31.837 78.052 78.052 31.837 78.052-31.837 31.837-78.052zM513.502 4.847q1.027-15.405-9.243-26.702-11.297-12.324-27.729-12.324h-77.025q-14.378 0-24.648 9.243t-11.297 23.621q-12.324 131.456-105.781 224.914t-224.914 105.781q-14.378 1.027-23.621 11.297t-9.243 24.648v77.025q0 16.432 12.324 26.702 9.243 10.27 24.648 10.27h3.081q91.403-7.189 174.59-46.215t148.915-103.727q64.701-64.701 103.727-148.915t46.215-175.618zM807.227 3.82q1.027-15.405-10.27-26.702-10.27-11.297-26.702-11.297h-82.16q-14.378 0-25.675 10.27t-11.297 23.621q-6.162 123.24-57.512 234.157t-132.483 193.077-193.077 132.483-233.13 58.539q-14.378 0-24.648 11.297t-10.27 24.648v82.16q0 15.405 11.297 26.702 10.27 10.27 25.675 10.27h1.027q150.969-8.216 287.562-68.809t244.427-168.428q106.808-106.808 168.428-244.427t68.809-287.562z" />
<glyph unicode="&#xe844;" glyph-name="mail" d="M954.089-15.693v439.558q-18.486-20.54-40.053-37.999-153.023-117.078-244.427-193.077-28.756-24.648-47.242-39.026t-49.296-27.729-58.539-13.351h-2.054q-26.702 0-58.539 13.351t-49.296 27.729-47.242 39.026q-90.376 75.998-244.427 193.077-21.567 17.459-40.053 37.999v-439.558q0-8.216 6.162-13.351t12.324-5.135h844.199q7.189 0 12.324 5.135t6.162 13.351zM954.089 586.133v14.378t-1.027 7.189-1.027 7.189-3.081 5.135-5.135 4.108-8.216 2.054h-844.199q-7.189 0-12.324-6.162t-6.162-12.324q0-96.538 84.214-163.293 110.916-87.295 230.049-181.78 4.108-2.054 20.54-16.432t25.675-21.567 25.675-18.486 28.756-15.405 24.648-5.135h2.054q11.297 0 24.648 5.135t28.756 15.405 25.675 18.486 25.675 21.567 20.54 16.432q119.132 94.484 230.049 181.78 30.81 24.648 57.512 66.755t26.702 74.971zM1027.006 607.7v-623.393q0-37.999-26.702-64.701t-64.701-27.729h-844.199q-36.972 0-64.701 27.729t-26.702 64.701v623.393q0 37.999 26.702 64.701t64.701 26.702h844.199q37.999 0 64.701-26.702t26.702-64.701z" />
<glyph unicode="&#xe845;" glyph-name="picture" horiz-adv-x="1100" d="M366.641 516.296q0-46.215-31.837-78.052t-78.052-32.864-78.052 32.864-31.837 78.052 31.837 77.025 78.052 32.864 78.052-32.864 31.837-77.025zM954.089 295.49v-256.751h-807.227v109.889l182.807 183.834 92.43-91.403 292.697 292.697zM1008.52 699.103h-917.117q-7.189 0-12.324-5.135t-6.162-13.351v-696.31q0-8.216 6.162-13.351t12.324-5.135h917.117q7.189 0 13.351 5.135t5.135 13.351v696.31q0 7.189-5.135 13.351t-13.351 5.135zM1099.923 680.617v-696.31q0-37.999-26.702-64.701t-64.701-27.729h-917.117q-36.972 0-64.701 27.729t-26.702 64.701v696.31q0 37.999 26.702 64.701t64.701 27.729h917.117q37.999 0 64.701-27.729t26.702-64.701z" />
<glyph unicode="&#xe846;" glyph-name="video" horiz-adv-x="1100" d="M219.779-71.151v73.944q0 14.378-10.27 25.675t-25.675 10.27h-73.944q-14.378 0-25.675-10.27t-11.297-25.675v-73.944q0-14.378 11.297-25.675t25.675-11.297h73.944q14.378 0 25.675 11.297t10.27 25.675zM219.779 148.627v73.944q0 14.378-10.27 25.675t-25.675 11.297h-73.944q-14.378 0-25.675-11.297t-11.297-25.675v-73.944q0-14.378 11.297-25.675t25.675-10.27h73.944q14.378 0 25.675 10.27t10.27 25.675zM219.779 369.434v72.917q0 15.405-10.27 25.675t-25.675 11.297h-73.944q-14.378 0-25.675-11.297t-11.297-25.675v-72.917q0-15.405 11.297-25.675t25.675-11.297h73.944q14.378 0 25.675 11.297t10.27 25.675zM807.227-71.151v293.724q0 14.378-11.297 25.675t-25.675 11.297h-440.585q-14.378 0-25.675-11.297t-10.27-25.675v-293.724q0-14.378 10.27-25.675t25.675-11.297h440.585q15.405 0 25.675 11.297t11.297 25.675zM219.779 589.214v72.917q0 15.405-10.27 26.702t-25.675 10.27h-73.944q-14.378 0-25.675-10.27t-11.297-26.702v-72.917q0-15.405 11.297-25.675t25.675-11.297h73.944q14.378 0 25.675 11.297t10.27 25.675zM1027.006-71.151v73.944q0 14.378-11.297 25.675t-25.675 10.27h-72.917q-15.405 0-25.675-10.27t-11.297-25.675v-73.944q0-14.378 11.297-25.675t25.675-11.297h72.917q15.405 0 25.675 11.297t11.297 25.675zM807.227 369.434v292.697q0 15.405-11.297 26.702t-25.675 10.27h-440.585q-14.378 0-25.675-10.27t-10.27-26.702v-292.697q0-15.405 10.27-25.675t25.675-11.297h440.585q15.405 0 25.675 11.297t11.297 25.675zM1027.006 148.627v73.944q0 14.378-11.297 25.675t-25.675 11.297h-72.917q-15.405 0-25.675-11.297t-11.297-25.675v-73.944q0-14.378 11.297-25.675t25.675-10.27h72.917q15.405 0 25.675 10.27t11.297 25.675zM1027.006 369.434v72.917q0 15.405-11.297 25.675t-25.675 11.297h-72.917q-15.405 0-25.675-11.297t-11.297-25.675v-72.917q0-15.405 11.297-25.675t25.675-11.297h72.917q15.405 0 25.675 11.297t11.297 25.675zM1027.006 589.214v72.917q0 15.405-11.297 26.702t-25.675 10.27h-72.917q-15.405 0-25.675-10.27t-11.297-26.702v-72.917q0-15.405 11.297-25.675t25.675-11.297h72.917q15.405 0 25.675 11.297t11.297 25.675zM1099.923 680.617v-770.254q0-37.999-26.702-64.701t-64.701-26.702h-917.117q-36.972 0-64.701 26.702t-26.702 64.701v770.254q0 37.999 26.702 64.701t64.701 27.729h917.117q37.999 0 64.701-27.729t26.702-64.701z" />
<glyph unicode="&#xe847;" glyph-name="tasks" d="M586.421 38.738h367.668v73.944h-367.668v-73.944zM366.641 332.462h587.448v72.917h-587.448v-72.917zM733.282 626.186h220.806v72.917h-220.806v-72.917zM1027.006 148.627v-145.834q0-15.405-11.297-25.675t-25.675-11.297h-953.062q-15.405 0-25.675 11.297t-11.297 25.675v145.834q0 15.405 11.297 26.702t25.675 10.27h953.062q15.405 0 25.675-10.27t11.297-26.702zM1027.006 442.351v-146.861q0-14.378-11.297-25.675t-25.675-10.27h-953.062q-15.405 0-25.675 10.27t-11.297 25.675v146.861q0 15.405 11.297 25.675t25.675 11.297h953.062q15.405 0 25.675-11.297t11.297-25.675zM1027.006 736.075v-146.861q0-15.405-11.297-25.675t-25.675-11.297h-953.062q-15.405 0-25.675 11.297t-11.297 25.675v146.861q0 14.378 11.297 25.675t25.675 11.297h953.062q15.405 0 25.675-11.297t11.297-25.675z" />
<glyph unicode="&#xe90e;" glyph-name="images" horiz-adv-x="1155" d="M1091.195 749.682h-64.189v64.189c0 35.302-28.884 64.189-64.189 64.189h-898.631c-35.302 0-64.189-28.884-64.189-64.189v-770.254c0-35.302 28.884-64.189 64.189-64.189h64.189v-64.189c0-35.302 28.884-64.189 64.189-64.189h898.631c35.302 0 64.189 28.884 64.189 64.189v770.254c0 35.302-28.884 64.189-64.189 64.189zM128.375 685.496v-641.879h-64.074c-0.040 0.034-0.082 0.076-0.114 0.116v770.024c0.034 0.040 0.076 0.082 0.114 0.114h898.399c0.040-0.034 0.082-0.076 0.116-0.116v-64.072h-770.254c-35.302 0-64.189-28.884-64.189-64.189v0zM1091.195-84.643c-0.034-0.040-0.076-0.082-0.116-0.116h-898.399c-0.040 0.034-0.082 0.076-0.114 0.116v770.024c0.034 0.040 0.076 0.082 0.114 0.114h898.399c0.040-0.034 0.082-0.076 0.116-0.116v-770.022zM962.817 525.025c0-53.176-43.106-96.282-96.282-96.282s-96.282 43.106-96.282 96.282 43.106 96.282 96.282 96.282 96.282-43.106 96.282-96.282zM1027.006-20.571h-770.254v128.375l224.657 385.127 256.751-320.939h64.189l224.657 192.564z" />
<glyph unicode="&#xf023;" glyph-name="lock" horiz-adv-x="658" d="M182.857 438.857h292.571v109.714c0 80.571-65.714 146.286-146.286 146.286s-146.286-65.714-146.286-146.286v-109.714zM658.286 384v-329.143c0-30.286-24.571-54.857-54.857-54.857h-548.571c-30.286 0-54.857 24.571-54.857 54.857v329.143c0 30.286 24.571 54.857 54.857 54.857h18.286v109.714c0 140.571 115.429 256 256 256s256-115.429 256-256v-109.714h18.286c30.286 0 54.857-24.571 54.857-54.857z" />
<glyph unicode="&#xf0c1;" glyph-name="chain" horiz-adv-x="953" d="M833.627 169.507c0 14.887-5.726 28.627-16.032 38.933l-119.089 119.089c-10.306 10.306-24.619 16.032-38.933 16.032-16.603 0-29.772-6.298-41.223-18.322 18.893-18.893 41.223-34.925 41.223-64.126 0-30.346-24.619-54.965-54.965-54.965-29.2 0-45.231 22.33-64.126 41.223-12.024-11.451-18.893-24.619-18.893-41.796 0-14.314 5.726-28.627 16.032-38.933l117.944-118.518c10.306-10.306 24.619-15.459 38.933-15.459s28.627 5.153 38.933 14.887l84.164 83.593c10.306 10.306 16.032 24.046 16.032 38.36zM431.128 573.152c0 14.314-5.726 28.627-16.032 38.933l-117.944 118.518c-10.306 10.306-24.619 16.032-38.933 16.032s-28.627-5.726-38.933-15.459l-84.164-83.593c-10.306-10.306-16.032-24.046-16.032-38.36 0-14.887 5.726-28.627 16.032-38.933l119.089-119.089c10.306-10.306 24.619-15.459 38.933-15.459 16.603 0 29.772 5.726 41.223 17.748-18.893 18.893-41.223 34.925-41.223 64.126 0 30.346 24.619 54.965 54.965 54.965 29.2 0 45.231-22.33 64.126-41.223 12.024 11.451 18.893 24.619 18.893 41.796zM943.556 169.507c0-43.513-17.748-85.882-48.666-116.227l-84.164-83.593c-30.917-30.917-72.713-47.521-116.227-47.521-44.086 0-85.882 17.177-116.799 48.666l-117.944 118.518c-30.917 30.917-47.521 72.713-47.521 116.227 0 45.231 18.322 88.172 50.384 119.663l-50.384 50.384c-31.491-32.062-73.858-50.384-119.089-50.384-43.513 0-85.882 17.177-116.799 48.094l-119.089 119.089c-31.491 31.491-48.094 72.713-48.094 116.799 0 43.513 17.748 85.882 48.666 116.227l84.164 83.593c30.917 30.917 72.713 47.521 116.227 47.521 44.086 0 85.882-17.177 116.799-48.666l117.944-118.518c30.917-30.917 47.521-72.713 47.521-116.227 0-45.231-18.322-88.172-50.384-119.663l50.384-50.384c31.491 32.062 73.858 50.384 119.089 50.384 43.513 0 85.882-17.177 116.799-48.094l119.089-119.089c31.491-31.491 48.094-72.713 48.094-116.799z" />
<glyph unicode="&#xf179;" glyph-name="apple" horiz-adv-x="807" d="M797.984 149.654q-21.567-71.89-69.836-142.753-73.944-112.97-147.888-112.97-27.729 0-80.106 18.486-49.296 18.486-86.268 18.486-34.918 0-81.133-19.513t-75.998-19.513q-87.295 0-172.536 148.915-84.214 149.942-84.214 288.589 0 130.429 64.701 213.617t163.293 83.187q41.080 0 100.646-17.459t79.079-17.459q25.675 0 82.16 19.513 58.539 19.513 99.619 19.513 67.782 0 122.213-36.972 29.783-20.54 59.566-57.512-45.188-37.999-65.728-67.782-36.972-53.404-36.972-118.105 0-70.863 39.026-128.375t90.376-71.89zM583.34 822.343q0-34.918-17.459-78.052-16.432-43.134-53.404-79.079-30.81-30.81-61.62-41.080-20.54-7.189-59.566-10.27 2.054 85.241 45.188 146.861 42.107 61.62 142.753 85.241 1.027-2.054 2.054-6.162t1.027-6.162 0-6.162 1.027-5.135z" />
<glyph unicode="&#xf17a;" glyph-name="windows" horiz-adv-x="953" d="M391.289 269.815v-373.83l-391.289 54.431v319.399h391.289zM391.289 694.995v-376.911h-391.289v323.507zM954.089 269.815v-450.855l-520.691 71.89v378.965h520.691zM954.089 773.047v-454.963h-520.691v383.073z" />
<glyph unicode="&#xf17b;" glyph-name="android" horiz-adv-x="807" d="M282.427 569.701q9.243 0 16.432 6.162t6.162 15.405-6.162 16.432-16.432 6.162-15.405-6.162-6.162-16.432 6.162-15.405 15.405-6.162zM524.799 569.701q9.243 0 15.405 6.162t6.162 15.405-6.162 16.432-15.405 6.162-16.432-6.162-6.162-16.432 6.162-15.405 16.432-6.162zM59.566 463.919q23.621 0 41.080-17.459t16.432-41.080v-246.481q0-24.648-16.432-42.107t-41.080-17.459-42.107 17.459-17.459 42.107v246.481q0 23.621 17.459 41.080t42.107 17.459zM666.527 452.622v-381.019q0-26.702-18.486-45.188t-44.161-18.486h-43.134v-130.429q0-24.648-16.432-41.080t-42.107-17.459-42.107 17.459-17.459 41.080v130.429h-79.079v-130.429q0-24.648-16.432-41.080t-42.107-17.459q-24.648 0-41.080 17.459t-17.459 41.080l-1.027 130.429h-42.107q-26.702 0-44.161 18.486t-18.486 45.188v381.019h525.828zM534.044 684.725q60.593-30.81 97.565-87.295t36.972-124.267h-529.936q0 67.782 35.945 124.267t98.592 87.295l-40.053 74.971q-4.108 8.216 2.054 12.324 8.216 3.081 12.324-4.108l41.080-75.998q54.431 24.648 115.024 24.648t115.024-24.648l41.080 75.998q4.108 7.189 11.297 4.108 7.189-4.108 3.081-12.324zM807.227 405.379v-246.481q0-24.648-17.459-42.107t-42.107-17.459q-23.621 0-41.080 17.459t-17.459 42.107v246.481q0 24.648 17.459 41.080t41.080 17.459q24.648 0 42.107-17.459t17.459-41.080z" />
<glyph unicode="&#xf1b7;" glyph-name="steam" horiz-adv-x="881" d="M711.797 488.92c0 60.748-49.861 110.61-111.182 110.61-60.748 0-110.61-49.861-110.61-110.61 0-61.323 49.861-110.61 110.61-110.61 61.323 0 111.182 49.287 111.182 110.61zM362.203 151.934c0-63.042-50.433-113.476-113.476-113.476-43.556 0-81.38 24.643-100.294 60.748 18.911-7.45 37.251-14.902 56.165-22.923 45.849-18.34 98.574 4.012 117.488 50.433 18.34 45.849-4.012 98.574-50.433 116.913l-46.995 18.911c7.45 1.72 16.048 2.866 24.070 2.866 63.042 0 113.476-50.433 113.476-113.476zM880.291 621.307v-550.181c0-91.124-73.93-165.054-165.054-165.054h-550.181c-91.124 0-165.054 73.93-165.054 165.054v87.686l98.574-39.546c14.902-69.347 76.796-121.499 150.153-121.499 80.234 0 146.142 61.323 153.593 139.265l197.722 144.423c114.622 0 206.892 92.843 206.892 206.317 0 114.622-92.27 206.892-206.892 206.892-112.901 0-205.171-91.697-206.317-204.599l-128.949-184.54c-5.158 0.574-10.316 0.574-16.048 0.574-28.655 0-55.591-7.45-78.517-21.206l-170.212 68.2v268.214c0 91.124 73.93 165.054 165.054 165.054h550.181c91.124 0 165.054-73.93 165.054-165.054zM738.733 487.774c0-76.222-61.894-138.119-138.691-138.119-76.222 0-138.119 61.894-138.119 138.119 0 76.796 61.894 138.691 138.119 138.691 76.796 0 138.691-61.894 138.691-138.691z" />
<glyph unicode="&#xf1e1;" glyph-name="share-alt-square" horiz-adv-x="879" d="M732.144 188.197c0 67.495-54.911 122.406-121.833 122.406-32.031 0-61.203-12.583-82.938-33.175l-137.849 68.638c0.572 4.575 1.144 8.579 1.144 13.156s-0.572 8.579-1.144 13.156l137.849 68.638c21.735-20.591 50.907-33.175 82.938-33.175 66.922 0 121.833 54.911 121.833 122.406 0 66.922-54.911 121.833-121.833 121.833-67.495 0-122.406-54.911-122.406-121.833 0-4.575 0.572-8.579 1.144-13.156l-137.849-68.638c-21.735 20.020-50.907 32.603-82.938 32.603-66.922 0-121.833-54.339-121.833-121.833s54.911-121.833 121.833-121.833c32.031 0 61.203 12.583 82.938 32.603l137.849-68.638c-0.572-4.575-1.144-8.579-1.144-13.156 0-66.922 54.911-121.833 122.406-121.833 66.922 0 121.833 54.911 121.833 121.833zM878.572 633.775v-549.107c0-90.946-73.786-164.732-164.732-164.732h-549.107c-90.946 0-164.732 73.786-164.732 164.732v549.107c0 90.946 73.786 164.732 164.732 164.732h549.107c90.946 0 164.732-73.786 164.732-164.732z" />
<glyph unicode="&#xf267;" glyph-name="safari" d="M544.314 334.516q0-15.405-10.27-25.675t-23.621-11.297q-14.378 0-25.675 9.243t-10.27 23.621q0 15.405 9.243 25.675t23.621 11.297 25.675-9.243 11.297-23.621zM552.53 300.625l200.266 333.777q-5.135-5.135-37.999-35.945t-71.89-66.755-79.079-72.917-66.755-63.674-28.756-29.783l-200.266-331.723q4.108 4.108 39.026 34.918t71.89 66.755 78.052 72.917 66.755 63.674 28.756 28.756zM923.279 332.462q0-115.024-59.566-212.59-2.054 1.027-9.243 6.162t-15.405 9.243-9.243 5.135q-8.216 0-8.216-8.216 0-5.135 33.891-24.648-42.107-64.701-105.781-109.889t-138.645-62.647l-8.216 37.999q-1.027 6.162-9.243 6.162-3.081 0-4.108-3.081t-1.027-6.162l9.243-39.026q-42.107-8.216-84.214-8.216-113.997 0-213.617 60.593 1.027 1.027 8.216 11.297t12.324 19.513 5.135 10.27q0 8.216-7.189 8.216-4.108 0-10.27-8.216t-12.324-20.54-8.216-13.351q-64.701 43.134-109.889 107.835t-62.647 140.699l39.026 8.216q6.162 2.054 6.162 8.216 0 3.081-3.081 5.135t-6.162 1.027l-39.026-9.243q-8.216 42.107-8.216 80.106 0 118.105 62.647 217.725 1.027-1.027 10.27-7.189t17.459-11.297 10.27-4.108q7.189 0 7.189 6.162 0 4.108-7.189 9.243t-18.486 12.324l-11.297 7.189q44.161 63.674 107.835 107.835t139.672 61.62l9.243-37.999q1.027-6.162 8.216-6.162 3.081 0 5.135 3.081t1.027 6.162l-9.243 37.999q41.080 7.189 77.025 7.189 117.078 0 217.725-62.647-22.594-31.837-22.594-36.972 0-7.189 6.162-7.189 7.189 0 27.729 35.945 63.674-42.107 107.835-105.781t61.62-138.645l-31.837-7.189q-6.162-1.027-6.162-8.216 0-3.081 3.081-5.135t5.135-1.027l32.864 7.189q8.216-41.080 8.216-80.106zM971.548 332.462q0 93.457-35.945 178.699t-97.565 145.834-145.834 97.565-178.699 35.945-177.672-35.945-146.861-97.565-97.565-145.834-35.945-178.699 35.945-177.672 97.565-146.861 146.861-97.565 177.672-35.945 178.699 35.945 145.834 97.565 97.565 146.861 35.945 177.672zM1027.006 332.462q0-104.754-41.080-199.239t-108.862-164.32-164.32-108.862-199.239-41.080-199.239 41.080-164.32 108.862-108.862 164.32-41.080 199.239 41.080 199.239 108.862 164.32 164.32 108.862 199.239 41.080 199.239-41.080 164.32-108.862 108.862-164.32 41.080-199.239z" />
</font>
</defs>
</svg>
