<?xml version="1.0" standalone="no"?>
<!DOCTYPE svg PUBLIC "-//W3C//DTD SVG 1.1//EN" "http://www.w3.org/Graphics/SVG/1.1/DTD/svg11.dtd" >
<svg xmlns="http://www.w3.org/2000/svg">
<metadata>Generated by IcoMoon</metadata>
<defs>
<font id="icomoon" horiz-adv-x="1024">
<font-face units-per-em="1024" ascent="870.850439882698" descent="-153.14956011730206" />
<missing-glyph horiz-adv-x="1024" />
<glyph unicode="&#x20;" d="" />
<glyph unicode="&#xe700;" glyph-name="valhalla" d="M161.92-20.653h714.683v44.115h-714.683v-44.115zM486.199 127.369l0.428-4.55 1.241-4.185 1.979-3.747 2.644-3.23 3.23-2.644 3.747-1.979 4.185-1.241 4.55-0.428 4.55 0.428 4.185 1.241 3.747 1.979 3.23 2.644 2.644 3.23 1.979 3.747 1.241 4.185 0.428 4.55-0.428 4.579-1.241 4.199-1.979 3.749-2.644 3.224-3.23 2.633-3.747 1.967-4.185 1.231-4.55 0.424-3.66-0.428-3.768-1.241-3.693-1.979-3.43-2.644-2.989-3.23-2.361-3.747-1.555-4.185-0.56-4.55zM486.199 202.936l0.428-4.55 1.241-4.185 1.979-3.747 2.644-3.23 3.23-2.644 3.747-1.979 4.185-1.241 4.55-0.428 4.55 0.428 4.185 1.241 3.747 1.979 3.23 2.644 2.644 3.23 1.979 3.747 1.241 4.185 0.428 4.55-0.428 4.55-1.241 4.185-1.979 3.747-2.644 3.23-3.23 2.644-3.747 1.979-4.185 1.241-4.55 0.428-3.528-0.428-3.454-1.241-3.306-1.979-3.085-2.644-2.789-3.23-2.415-3.747-1.972-4.185-1.45-4.55zM486.199 278.505l0.428-4.55 1.241-4.185 1.979-3.747 2.644-3.23 3.23-2.644 3.747-1.979 4.185-1.241 4.55-0.428 4.55 0.428 4.185 1.241 3.747 1.979 3.23 2.644 2.644 3.23 1.979 3.747 1.241 4.185 0.428 4.55-0.428 4.55-1.241 4.185-1.979 3.747-2.644 3.23-3.23 2.644-3.747 1.979-4.185 1.241-4.55 0.428-3.528-0.428-3.454-1.241-3.306-1.979-3.085-2.644-2.789-3.23-2.415-3.747-1.972-4.185-1.45-4.55zM486.199 357.188l0.428-4.55 1.241-4.185 1.979-3.747 2.644-3.23 3.23-2.644 3.747-1.979 4.185-1.241 4.55-0.428 4.55 0.428 4.185 1.241 3.747 1.979 3.23 2.644 2.644 3.23 1.979 3.747 1.241 4.185 0.428 4.55-0.428 4.55-1.241 4.185-1.979 3.747-2.644 3.23-3.23 2.644-3.747 1.979-4.185 1.241-4.55 0.428-3.528-0.428-3.454-1.241-3.306-1.979-3.085-2.644-2.789-3.23-2.415-3.747-1.972-4.185-1.45-4.55zM558.652 51.8h311.719l-0.96 17.007-1.684 16.766-2.387 16.515-3.080 16.248-3.757 15.966-4.414 15.663-5.060 15.35-5.691 15.021-6.301 14.672-6.901 14.313-7.48 13.938-8.049 13.542-8.597 13.136-9.135 12.71-9.652 12.273-10.159 11.819-10.645 11.347-11.121 10.864-11.576 10.36-12.021 9.846-12.446 9.311-12.86 8.766-13.253 8.2-13.631 7.619-13.998 7.027-14.345 6.415-14.677 5.793-14.997 5.15-15.298 4.491-15.583 3.822-15.852 3.133-16.111 2.428v-349.503zM158.704 54.916h305.388v346.388h-3.215l-15.516-2.714-15.281-3.395-15.031-4.065-14.76-4.72-14.479-5.353-14.182-5.975-13.869-6.576-13.537-7.166-13.194-7.74-12.833-8.293-12.456-8.835-12.066-9.355-11.655-9.865-11.234-10.354-10.798-10.832-10.341-11.288-9.873-11.729-9.385-12.158-8.886-12.567-8.367-12.965-7.837-13.341-7.287-13.701-6.726-14.051-6.145-14.379-5.548-14.691-4.941-14.993-4.313-15.273-3.675-15.537-3.016-15.785-2.341-16.022-1.657-16.238-0.951-16.438zM734.912 376.081l20.652-17.238 19.4-18.648 18.073-19.983 16.666-21.245 7.786-11.071 7.403-11.355 7.017-11.631 6.616-11.901 6.21-12.157 5.795-12.404 5.366-12.641 4.932-12.873 12.378 8.622 11.753 8.752 11.147 8.869 10.549 8.977 9.97 9.077 9.4 9.168 8.848 9.252 8.305 9.326 7.781 9.393 7.265 9.451 6.767 9.501 6.279 9.543 5.809 9.576 5.348 9.601 4.905 9.618 4.471 9.626 4.055 9.626 3.653 9.618 3.26 9.601 2.886 9.576 4.697 19.050 3.352 18.845 2.122 18.579 1 18.247-0.013 17.843-0.916 17.377-1.711 16.839-2.391 16.241-2.968 15.57-3.43 14.833-3.789 14.035-4.033 13.164-4.168 12.228-4.195 11.225-4.112 10.155-3.92 9.018-3.619 7.816-3.204 6.541-2.685 5.205-2.052 3.802-0.757 1.351-0.559 0.977-0.342 0.594-0.117 0.198 2.925-15.968 1.708-15.438 0.547-14.92-0.563-14.403-1.613-13.899-2.607-13.396-3.54-12.905-4.423-12.416-5.25-11.939-6.022-11.464-6.737-11.001-7.392-10.539-7.997-10.089-8.541-9.642-9.034-9.206-9.466-8.777-9.848-8.35-10.169-7.934-10.434-7.521-10.644-7.119-10.803-6.725-10.902-6.332-10.944-5.951-10.932-5.572-21.597-10.049-20.872-8.624-10.027-3.799-9.675-3.461-9.273-3.135-8.815-2.816zM168.15 202.936l4.417 12.873 4.987 12.641 5.529 12.404 6.053 12.157 6.55 11.901 7.028 11.631 7.478 11.355 7.911 11.071 8.315 10.775 8.696 10.468 18.454 19.983 19.708 18.648 20.779 17.238-9.087 2.816-9.51 3.135-20.084 7.26-21.134 8.624-21.748 10.049-10.972 5.572-10.964 5.951-10.902 6.332-10.784 6.725-10.611 7.119-10.387 7.521-10.109 7.934-9.778 8.35-9.387 8.777-8.948 9.206-8.449 9.642-7.902 10.089-7.296 10.539-6.636 11.001-5.927 11.464-5.159 11.939-4.337 12.416-3.461 12.905-2.532 13.396-1.553 13.899-0.511 14.403 0.581 14.92 1.726 15.438 2.925 15.968-0.117-0.198-0.342-0.594-0.558-0.977-0.756-1.351-2.051-3.802-2.684-5.205-3.202-6.541-3.617-7.816-3.917-9.018-4.109-10.155-4.192-11.225-4.165-12.228-4.030-13.164-3.786-14.035-3.427-14.833-2.965-15.57-2.389-16.241-1.708-16.839-0.914-17.377-0.011-17.843 1.001-18.247 2.123-18.579 3.353-18.845 4.697-19.050 2.885-9.576 3.26-9.601 3.653-9.618 4.054-9.626 4.47-9.626 4.904-9.618 5.346-9.601 5.807-9.576 6.277-9.543 6.766-9.501 7.263-9.451 7.778-9.393 8.302-9.326 8.845-9.252 9.397-9.168 9.967-9.077 10.546-8.977 11.143-8.869 11.749-8.752 12.374-8.622z" />
<glyph unicode="&#xe800;" glyph-name="radio" horiz-adv-x="883" d="M881.866 319.405q0-120.394-58.653-221.238t-160.526-160.526-221.238-59.682-222.267 59.682-159.497 160.526-59.682 221.238 59.682 221.238 159.497 160.526 222.267 59.682 221.238-59.682 160.526-160.526 58.653-221.238z" />
<glyph unicode="&#xe801;" glyph-name="radio-checked" horiz-adv-x="883" d="M737.804 412.016q0 16.464-11.319 26.754l-51.45 51.45q-11.319 11.319-25.725 11.319t-26.754-11.319l-233.586-233.586-129.655 129.655q-11.319 11.319-25.725 11.319t-26.754-11.319l-51.45-51.45q-10.29-10.29-10.29-26.754 0-15.435 10.29-25.725l207.861-207.861q10.29-10.29 25.725-10.29t25.725 10.29l311.791 311.791q11.319 10.29 11.319 25.725zM881.866 319.405q0-120.394-58.653-221.238t-160.526-160.526-221.238-59.682-222.267 59.682-159.497 160.526-59.682 221.238 59.682 221.238 159.497 160.526 222.267 59.682 221.238-59.682 160.526-160.526 58.653-221.238z" />
<glyph unicode="&#xe802;" glyph-name="cancel-circled" horiz-adv-x="883" d="M659.599 189.75q0 14.406-10.29 25.725l-103.929 103.929 103.929 103.929q10.29 11.319 10.29 25.725 0 15.435-10.29 26.754l-52.479 51.45q-10.29 11.319-25.725 11.319t-25.725-11.319l-103.929-103.929-103.929 103.929q-11.319 11.319-26.754 11.319t-25.725-11.319l-51.45-51.45q-11.319-11.319-11.319-26.754 0-14.406 11.319-25.725l103.929-103.929-103.929-103.929q-11.319-11.319-11.319-25.725 0-15.435 11.319-26.754l51.45-51.45q10.29-11.319 25.725-11.319t26.754 11.319l103.929 103.929 103.929-103.929q10.29-11.319 25.725-11.319t25.725 11.319l52.479 51.45q10.29 11.319 10.29 26.754zM881.866 319.405q0-120.394-58.653-221.238t-160.526-160.526-221.238-59.682-222.267 59.682-159.497 160.526-59.682 221.238 59.682 221.238 159.497 160.526 222.267 59.682 221.238-59.682 160.526-160.526 58.653-221.238z" />
<glyph unicode="&#xe803;" glyph-name="checkbox" horiz-adv-x="883" d="M881.866 595.181v-551.553q0-67.914-48.363-116.278t-117.307-49.392h-550.524q-68.943 0-117.307 49.392t-48.363 116.278v551.553q0 67.914 48.363 116.278t117.307 49.392h550.524q68.943 0 117.307-49.392t48.363-116.278z" />
<glyph unicode="&#xe804;" glyph-name="checkbox-checked" horiz-adv-x="883" d="M393.083 87.876l352.952 352.952q10.29 10.29 10.29 25.725t-10.29 25.725l-58.653 58.653q-11.319 10.29-25.725 10.29t-25.725-10.29l-268.573-268.573-121.423 121.423q-10.29 11.319-25.725 11.319t-25.725-11.319l-58.653-58.653q-10.29-11.319-10.29-25.725t10.29-25.725l205.803-205.803q11.319-11.319 25.725-11.319t25.725 11.319zM881.866 595.181v-551.553q0-67.914-48.363-116.278t-117.307-49.392h-550.524q-68.943 0-117.307 49.392t-48.363 116.278v551.553q0 67.914 48.363 116.278t117.307 49.392h550.524q68.943 0 117.307-49.392t48.363-116.278z" />
<glyph unicode="&#xe805;" glyph-name="checkbox-half" horiz-adv-x="883" d="M734.716 282.36v74.088q0 14.406-10.29 25.725t-25.725 10.29h-514.506q-15.435 0-26.754-10.29t-10.29-25.725v-74.088q0-14.406 10.29-25.725t26.754-10.29h514.506q14.406 0 25.725 10.29t10.29 25.725zM881.866 595.181v-551.553q0-67.914-48.363-116.278t-117.307-49.392h-550.524q-68.943 0-117.307 49.392t-48.363 116.278v551.553q0 67.914 48.363 116.278t117.307 49.392h550.524q68.943 0 117.307-49.392t48.363-116.278z" />
<glyph unicode="&#xe806;" glyph-name="heart" d="M955.956 491.25q0 47.334-12.348 82.32t-31.899 56.595-47.334 33.957-53.508 18.522-56.595 4.116-63.798-14.406-63.798-37.044-49.392-41.16-34.986-34.986q-10.29-13.377-27.783-13.377t-27.783 13.377q-14.406 15.435-34.986 34.986t-49.392 41.16-63.798 37.044-63.798 14.406-56.595-4.116-53.508-18.522-47.334-33.957-31.899-56.595-12.348-82.32q0-95.697 108.046-203.745l333.401-321.053 333.401 321.053q108.046 108.046 108.046 203.745zM1029.015 491.25q0-126.568-131.714-258.282l-357.068-344.72q-10.29-10.29-25.725-10.29t-25.725 10.29l-358.097 345.749q-5.145 5.145-15.435 15.435t-31.899 37.044-39.102 56.595-30.87 68.943-13.377 79.233q0 126.568 73.059 197.571t201.687 72.030q34.986 0 72.030-12.348t68.943-33.957 55.566-39.102 43.218-39.102q20.58 20.58 43.218 39.102t55.566 39.102 68.943 33.957 72.030 12.348q128.626 0 201.687-72.030t73.059-197.571z" />
<glyph unicode="&#xe807;" glyph-name="heart-full" d="M514.506-122.043q-14.406 0-25.725 10.29l-358.097 345.749q-5.145 5.145-15.435 15.435t-31.899 37.044-39.102 56.595-30.87 68.943-13.377 79.233q0 126.568 73.059 197.571t201.687 72.030q34.986 0 72.030-12.348t68.943-33.957 55.566-39.102 43.218-39.102q20.58 20.58 43.218 39.102t55.566 39.102 68.943 33.957 72.030 12.348q128.626 0 201.687-72.030t73.059-197.571q0-126.568-131.714-258.282l-357.068-344.72q-10.29-10.29-25.725-10.29z" />
<glyph unicode="&#xe808;" glyph-name="star" horiz-adv-x="955" d="M652.395 257.664l175.962 169.787-241.818 36.015-109.075 219.18-108.046-219.18-242.847-36.015 175.962-169.787-42.189-241.818 217.122 114.22 217.122-114.22zM955.956 462.438q0-12.348-15.435-27.783l-208.89-202.716 49.392-287.095q1.029-4.116 1.029-12.348 0-28.812-23.667-28.812-10.29 0-22.638 7.203l-258.282 135.83-257.253-135.83q-13.377-7.203-23.667-7.203-11.319 0-17.493 9.261t-6.174 19.551q0 4.116 1.029 12.348l49.392 287.095-208.89 202.716q-14.406 15.435-14.406 27.783 0 21.609 31.899 26.754l288.124 41.16 129.655 261.369q11.319 23.667 27.783 23.667t28.812-23.667l128.626-261.369 288.124-41.16q32.928-5.145 32.928-26.754z" />
<glyph unicode="&#xe809;" glyph-name="star-half" horiz-adv-x="955" d="M681.208 284.418l147.149 143.033-203.745 29.841-38.073 6.174-17.493 34.986-91.581 184.194v-552.582l33.957-17.493 183.165-96.726-34.986 203.745-7.203 38.073zM940.52 434.655l-207.861-202.716 48.363-287.095q3.087-19.551-3.087-29.841t-19.551-11.319q-9.261 0-22.638 7.203l-258.282 135.83-257.253-135.83q-13.377-7.203-23.667-7.203-12.348 0-19.551 11.319t-3.087 29.841l49.392 287.095-208.89 202.716q-18.522 18.522-13.377 33.957t30.87 20.58l288.124 41.16 129.655 261.369q11.319 23.667 27.783 23.667t28.812-23.667l128.626-261.369 288.124-41.16q25.725-4.116 30.87-20.58t-13.377-33.957z" />
<glyph unicode="&#xe80a;" glyph-name="star-full" horiz-adv-x="955" d="M955.956 462.438q0-12.348-15.435-27.783l-208.89-202.716 49.392-287.095q1.029-4.116 1.029-12.348 0-11.319-6.174-19.551t-17.493-9.261q-10.29 0-22.638 7.203l-258.282 135.83-257.253-135.83q-13.377-7.203-23.667-7.203-11.319 0-17.493 9.261t-6.174 19.551q0 4.116 1.029 12.348l49.392 287.095-208.89 202.716q-14.406 15.435-14.406 27.783 0 21.609 31.899 26.754l288.124 41.16 129.655 261.369q11.319 23.667 27.783 23.667t28.812-23.667l128.626-261.369 288.124-41.16q32.928-5.145 32.928-26.754z" />
<glyph unicode="&#xe80b;" glyph-name="up" d="M966.246 69.354l-94.668-94.668q-11.319-10.29-26.754-10.29t-25.725 10.29l-304.588 305.617-304.588-305.617q-11.319-10.29-25.725-10.29t-26.754 10.29l-94.668 94.668q-11.319 11.319-11.319 26.754t11.319 25.725l426.012 426.012q11.319 10.29 25.725 10.29t25.725-10.29l426.012-426.012q11.319-11.319 11.319-25.725t-11.319-26.754z" />
<glyph unicode="&#xe80c;" glyph-name="down" d="M966.246 369.826l-426.012-424.983q-10.29-11.319-25.725-11.319t-25.725 11.319l-426.012 424.983q-11.319 11.319-11.319 26.754t11.319 25.725l94.668 94.668q11.319 11.319 26.754 11.319t25.725-11.319l304.588-304.588 304.588 304.588q11.319 11.319 25.725 11.319t26.754-11.319l94.668-94.668q11.319-11.319 11.319-25.725t-11.319-26.754z" />
<glyph unicode="&#xe80d;" glyph-name="left" horiz-adv-x="736" d="M671.947 661.038l-304.588-304.588 304.588-305.617q11.319-10.29 11.319-25.725t-11.319-25.725l-94.668-95.697q-11.319-10.29-25.725-10.29t-25.725 10.29l-426.012 427.041q-11.319 10.29-11.319 25.725t11.319 25.725l426.012 426.012q10.29 10.29 25.725 10.29t25.725-10.29l94.668-95.697q11.319-10.29 11.319-25.725t-11.319-25.725z" />
<glyph unicode="&#xe80e;" glyph-name="right" horiz-adv-x="736" d="M635.931 330.724l-426.012-427.041q-11.319-10.29-25.725-10.29t-26.754 10.29l-94.668 95.697q-11.319 11.319-11.319 25.725t11.319 25.725l304.588 305.617-304.588 304.588q-11.319 11.319-11.319 25.725t11.319 25.725l94.668 95.697q11.319 10.29 26.754 10.29t25.725-10.29l426.012-426.012q10.29-11.319 10.29-25.725t-10.29-25.725z" />
<glyph unicode="&#xe80f;" glyph-name="sun" horiz-adv-x="1009" d="M557.727 747.474l-52.479-156.41-54.537 156.41q-7.203 22.638 3.087 43.218t31.899 28.812q30.87 10.29 57.624-11.319t14.406-60.711zM75.117 373.942l157.439-54.537-157.439-53.508q-21.609-8.232-43.218 3.087t-28.812 32.928q-10.29 30.87 12.348 57.624t59.682 14.406zM450.708-108.666l54.537 156.41 52.479-156.41q7.203-21.609-3.087-43.218t-31.899-28.812q-30.87-10.29-57.624 12.348t-14.406 59.682zM933.317 265.896l-157.439 53.508 157.439 54.537q21.609 7.203 43.218-3.087t28.812-32.928q10.29-30.87-12.348-58.653t-59.682-13.377zM238.731 660.009l73.059-149.207-149.207 74.088q-21.609 10.29-28.812 31.899t3.087 43.218q16.464 32.928 51.45 30.87t50.421-30.87zM162.584 54.948l149.207 73.059-73.059-149.207q-10.29-21.609-31.899-28.812t-44.247 3.087q-31.899 16.464-30.87 51.45t30.87 50.421zM769.703-21.199l-73.059 149.207 149.207-73.059q21.609-10.29 28.812-32.928t-3.087-43.218q-16.464-31.899-51.45-30.87t-50.421 30.87zM845.85 584.891l-149.207-74.088 73.059 149.207q10.29 22.638 31.899 29.841t44.247-4.116q31.899-16.464 30.87-51.45t-30.87-49.392zM505.245 77.586q-99.813 0-170.816 72.030t-71.001 169.787 71.001 170.816 170.816 71.001 169.787-71.001 69.972-170.816-69.972-169.787-169.787-72.030zM505.245 453.177q-55.566 0-95.697-39.102t-40.131-94.668 40.131-94.668 95.697-39.102 94.668 39.102 39.102 94.668-39.102 94.668-94.668 39.102z" />
<glyph unicode="&#xe810;" glyph-name="cloud" horiz-adv-x="1071" d="M803.661-56.186h-588.597q-88.494 0-152.294 62.769t-62.769 152.294q0 74.088 45.276 131.714t115.249 75.117v8.232q0 133.772 94.668 227.412t227.412 93.639q102.9 0 185.223-59.682t117.307-156.41q118.336 9.261 201.687-69.972t84.378-196.542q0-110.104-78.204-189.339t-189.339-79.233zM209.919 266.925q-41.16 0-72.030-31.899t-30.87-76.146 30.87-75.117 77.175-31.899h588.597q66.885 0 114.22 47.334t47.334 113.191-47.334 114.22-114.22 47.334q-18.522 0-43.218-8.232l-57.624-16.464-9.261 58.653q-14.406 77.175-73.059 128.626t-137.888 50.421q-88.494 0-152.294-62.769t-62.769-150.236q0-15.435 5.145-44.247l13.377-63.798z" />
<glyph unicode="&#xe811;" glyph-name="rain" horiz-adv-x="1071" d="M803.661 35.396q-21.609 0-38.073 16.464t-15.435 38.073 15.435 37.044 38.073 15.435q66.885 0 114.22 47.334t47.334 113.191-47.334 114.22-114.22 47.334q-22.638 0-43.218-7.203l-57.624-16.464-9.261 59.682q-14.406 77.175-73.059 127.597t-137.888 50.421q-88.494 0-152.294-62.769t-62.769-151.265q0-14.406 5.145-43.218l13.377-63.798h-76.146q-41.16 0-72.030-31.899t-30.87-75.117q0-45.276 30.87-76.146t77.175-31.899q21.609 0 37.044-15.435t15.435-37.044-15.435-38.073-37.044-16.464q-88.494 0-152.294 63.798t-62.769 151.265q0 75.117 45.276 131.714t115.249 75.117v7.203q0 131.714 94.668 226.383t227.412 94.668q103.929 0 186.252-58.653t116.278-156.41q116.278 9.261 201.687-69.972t84.378-197.571q0-110.104-78.204-188.31t-189.339-79.233zM455.853 35.396l53.508 161.555 54.537-161.555q7.203-21.609-4.116-43.218t-31.899-28.812q-29.841-10.29-56.595 13.377t-15.435 58.653zM616.38-71.621l53.508 161.555 53.508-161.555q7.203-21.609-3.087-42.189t-31.899-29.841q-29.841-10.29-56.595 13.377t-15.435 58.653zM294.298-71.621l54.537 161.555 52.479-161.555q8.232-21.609-2.058-42.189t-32.928-29.841q-28.812-10.29-56.595 13.377t-15.435 58.653z" />
<glyph unicode="&#xe812;" glyph-name="snow" horiz-adv-x="888" d="M841.734 150.645q22.638-5.145 36.015-23.667t7.203-41.16q-6.174-33.957-41.16-43.218t-56.595 15.435l-88.494 100.842 21.609-78.204q6.174-24.696-9.261-46.305t-43.218-22.638q-18.522 0-31.899 11.319t-19.551 28.812l-21.609 81.291q-33.957-26.754-65.856-39.102l58.653-58.653q15.435-15.435 15.435-37.044t-15.435-38.073q-16.464-16.464-37.044-16.464-21.609 0-38.073 16.464l-38.073 38.073h-12.348l34.986-107.017q7.203-21.609-3.087-43.218t-32.928-28.812q-29.841-10.29-56.595 12.348t-14.406 59.682l36.015 107.017h-14.406l-37.044-38.073q-15.435-15.435-38.073-15.435t-38.073 15.435-15.435 38.073 15.435 37.044l59.682 58.653q-32.928 12.348-65.856 39.102l-21.609-81.291q-5.145-17.493-19.551-28.812t-31.899-11.319q-28.812 0-43.218 22.638t-8.232 46.305l20.58 79.233-89.523-101.871q-15.435-16.464-39.102-17.493t-40.131 14.406q-18.522 15.435-19.551 38.073t14.406 41.16q12.348 13.377 30.87 16.464l130.684 27.783-78.204 21.609q-21.609 6.174-32.928 25.725t-5.145 40.131 23.667 31.899 41.16 5.145l81.291-20.58q-4.116 19.551-4.116 37.044t4.116 37.044l-81.291-20.58q-10.29-2.058-13.377-2.058-18.522 0-32.928 11.319t-18.522 28.812q-5.145 20.58 5.145 39.102t32.928 25.725l78.204 22.638-130.684 26.754q-23.667 5.145-36.015 23.667t-8.232 42.189q7.203 32.928 41.16 43.218t56.595-16.464l89.523-101.871-20.58 80.262q-7.203 21.609 5.145 41.16t31.899 23.667q21.609 7.203 41.16-5.145t24.696-31.899l21.609-81.291q32.928 27.783 65.856 39.102l-59.682 58.653q-15.435 15.435-15.435 38.073t15.435 37.044 38.073 15.435 38.073-15.435l57.624-57.624-42.189 126.568q-8.232 22.638 3.087 43.218t32.928 28.812q29.841 10.29 55.566-12.348t15.435-59.682l-43.218-126.568 58.653 57.624q15.435 15.435 38.073 15.435t37.044-15.435 15.435-37.044-15.435-38.073l-58.653-58.653q31.899-11.319 65.856-39.102l21.609 81.291q5.145 20.58 24.696 31.899t41.16 5.145 32.928-25.725 5.145-39.102l-21.609-79.233 88.494 100.842q15.435 16.464 39.102 17.493t41.16-13.377q17.493-15.435 18.522-39.102t-13.377-41.16q-13.377-12.348-30.87-16.464l-131.714-26.754 80.262-22.638q20.58-5.145 31.899-23.667t5.145-41.16q-5.145-18.522-19.551-29.841t-31.899-10.29q-4.116 0-14.406 2.058l-81.291 20.58q4.116-18.522 4.116-37.044t-4.116-37.044l81.291 20.58q21.609 6.174 41.16-5.145t24.696-31.899q6.174-22.638-5.145-41.16t-31.899-24.696l-80.262-21.609zM443.505 185.634q55.566 0 94.668 39.102t39.102 94.668-39.102 94.668-94.668 39.102-94.668-39.102-40.131-94.668 40.131-94.668 94.668-39.102z" />
<glyph unicode="&#xe813;" glyph-name="thunder" horiz-adv-x="1071" d="M803.661 78.615q-21.609 0-38.073 15.435t-15.435 38.073 15.435 38.073 38.073 15.435q66.885 0 114.22 46.305t47.334 114.22-47.334 113.191-114.22 47.334q-22.638 0-43.218-6.174l-57.624-16.464-9.261 58.653q-14.406 77.175-73.059 127.597t-137.888 51.45q-88.494 0-152.294-63.798t-62.769-151.265q0-14.406 5.145-42.189l14.406-66.885-77.175 2.058q-41.16 0-72.030-30.87t-30.87-76.146q0-44.247 30.87-76.146t77.175-31.899q21.609 0 37.044-15.435t15.435-37.044-15.435-38.073-37.044-15.435q-88.494 0-152.294 62.769t-62.769 151.265q0 75.117 45.276 132.743t115.249 75.117v6.174q0 132.743 94.668 227.412t227.412 93.639q103.929 0 186.252-58.653t116.278-155.381q116.278 8.232 201.687-71.001t84.378-196.542q0-111.133-78.204-189.339t-189.339-78.204zM570.075 293.679l-80.262-188.31 161.555-78.204-241.818-216.093 80.262 187.281-160.526 77.175z" />
<glyph unicode="&#xe814;" glyph-name="firefox" d="M518.622-181.726c-222.267 0-398.229 129.655-479.52 314.878-89.523 205.803-17.493 536.118 143.033 682.237l-6.174-160.526c8.232 9.261 69.972 12.348 80.262-1.029 32.928 63.798 139.946 112.162 226.383 113.191-32.928-26.754-109.075-127.597-101.871-179.049 41.16-13.377 105.988-13.377 139.946-15.435 10.29-6.174 8.232-41.16-12.348-69.972-27.783-38.073-99.813-50.421-99.813-50.421l8.232-109.075-79.233 39.102c-26.754-65.856 36.015-123.481 99.813-113.191 71.001 12.348 96.726 58.653 146.12 55.566 50.421-2.058 69.972-29.841 62.769-55.566-7.203-30.87-60.711-25.725-60.711-25.725-45.276-72.030-105.988-103.929-203.745-95.697 148.178-122.452 347.807-10.29 398.229 89.523 51.45 99.813 7.203 247.992-44.247 291.211 60.711-25.725 101.871-52.479 123.481-111.133 11.319 128.626-47.334 274.747-153.323 360.155 198.6-57.624 320.024-211.977 323.111-457.911s-217.122-501.129-510.39-501.129z" />
<glyph unicode="&#xe815;" glyph-name="chrome" d="M512.448 833.912c-151.265-1.029-299.443-68.943-398.229-191.397l158.468-243.876c40.131 114.22 154.352 187.281 274.747 174.932l426.012-22.638c-43.218 86.436-111.133 161.555-201.687 214.035-81.291 47.334-170.816 68.943-259.311 68.943zM84.378 601.356c-53.508-81.291-84.378-178.020-84.378-281.95 0-257.253 188.31-470.259 435.273-508.332l131.714 259.311c-119.365-22.638-239.76 40.131-289.153 150.236l-193.455 380.735zM995.058 504.627l-290.182-15.435c78.204-91.581 84.378-227.412 13.377-326.198l-232.557-357.068c96.726-6.174 195.513 15.435 286.066 67.914 222.267 128.626 312.82 398.229 223.296 630.786zM514.506 493.308c-95.697 0-173.903-78.204-173.903-173.903s78.204-173.903 173.903-173.903 173.903 78.204 173.903 173.903-78.204 173.903-173.903 173.903z" />
<glyph unicode="&#xe816;" glyph-name="opera" horiz-adv-x="876" d="M438.36-195.103c-584.481 0-584.481 1029.015 0 1029.015s583.452-1029.015 0-1029.015zM438.36-100.434c243.876 0 243.876 839.676 0 839.676s-244.905-839.676 0-839.676z" />
<glyph unicode="&#xe817;" glyph-name="ie" horiz-adv-x="972" d="M868.488 833.912c-83.349-1.029-186.252-47.334-289.153-109.075-245.934 36.015-512.448-105.988-523.767-397.2 61.74 95.697 230.499 264.457 377.648 309.733v-13.377c-184.194-92.61-587.568-629.757-370.445-795.429 92.61-71.001 318.995 38.073 353.981 78.204 29.841-5.145 60.711-8.232 91.581-8.232 206.832 0 381.764 126.568 436.302 300.472h-309.733c-13.377-57.624-57.624-94.668-124.51-94.668-104.958 0-129.655 69.972-129.655 155.381h577.278c29.841 209.919-117.307 395.142-314.878 451.737 179.049 118.336 373.532 165.671 307.675-107.017h20.58c36.015 112.162 21.609 196.542-39.102 219.18-18.522 7.203-38.073 10.29-59.682 10.29-1.029 0-3.087 0-4.116 0zM506.274 522.12c81.291 0 131.714-49.392 131.714-132.743h-259.311c0 79.233 47.334 132.743 127.597 132.743zM128.626 87.876c59.682-85.407 153.323-149.207 263.428-175.962-79.233-59.682-232.557-86.436-273.718-53.508-49.392 41.16-37.044 127.597 10.29 229.47z" />
<glyph unicode="&#xe818;" glyph-name="renren" horiz-adv-x="883" d="M650.337-67.505q-97.755-54.537-210.948-54.537-112.162 0-210.948 54.537 79.233 49.392 135.83 121.423t75.117 153.323q19.551-82.32 76.146-153.323t134.801-121.423zM366.329 752.619v-278.863q0-144.062-73.059-263.428t-189.339-175.962q-103.929 123.481-103.929 284.008 0 107.017 48.363 200.658t131.714 154.352 186.252 79.233zM881.866 318.376q0-160.526-103.929-284.008-117.307 56.595-189.339 175.962t-73.059 263.428v278.863q102.9-17.493 186.252-79.233t132.743-154.352 47.334-200.658z" />
<glyph unicode="&#xe819;" glyph-name="qq" d="M155.381 370.855q-5.145 11.319-5.145 29.841 0 11.319 6.174 28.812t14.406 25.725q-1.029 12.348 4.116 29.841t13.377 24.696q0 80.262 52.479 165.671t124.51 120.394q80.262 38.073 186.252 38.073 77.175 0 153.323-31.899 27.783-12.348 51.45-27.783t41.16-31.899 30.87-39.102 24.696-42.189 18.522-48.363 14.406-51.45 12.348-56.595l1.029-3.087q31.899-47.334 31.899-85.407 0-8.232-5.145-23.667t-5.145-21.609q0 0 0-2.058t2.058-3.087 1.029-2.058q44.247-64.827 69.972-122.452t24.696-120.394q0-24.696-11.319-56.595t-31.899-32.928q-5.145 0-11.319 4.116t-10.29 10.29-11.319 14.406-9.261 15.435-7.203 15.435-5.145 9.261q-1.029 1.029-2.058 1.029l-3.087-2.058q-33.957-88.494-76.146-128.626 12.348-11.319 36.015-21.609t39.102-23.667 20.58-38.073q-1.029-2.058-2.058-9.261t-4.116-10.29q-37.044-55.566-173.903-55.566-29.841 0-62.769 5.145t-56.595 11.319-59.682 17.493q-9.261 3.087-13.377 4.116-8.232 2.058-26.754 3.087t-22.638 0q-23.667-25.725-73.059-37.044t-96.726-11.319q-20.58 0-40.131 1.029t-53.508 5.145-57.624 11.319-43.218 23.667-18.522 36.015q0 23.667 6.174 33.957t23.667 28.812q6.174 1.029 22.638 7.203t28.812 6.174q2.058 0 8.232 2.058 1.029 1.029 1.029 2.058l-1.029 2.058q-27.783 6.174-61.74 59.682t-42.189 90.552l-3.087 1.029q-2.058 0-7.203-11.319-10.29-23.667-30.87-42.189t-44.247-21.609h-1.029q-2.058 0-3.087 2.058t-3.087 3.087q-13.377 30.87-13.377 57.624 0 158.468 145.091 267.544z" />
<glyph unicode="&#xe81a;" glyph-name="wechat" horiz-adv-x="1174" d="M333.401 569.455q0 23.667-14.406 38.073t-38.073 14.406q-24.696 0-43.218-15.435t-19.551-37.044q0-22.638 19.551-37.044t43.218-14.406 38.073 13.377 14.406 38.073zM759.413 278.244q0 15.435-14.406 28.812t-37.044 12.348q-16.464 0-28.812-13.377t-13.377-27.783q0-16.464 13.377-28.812t28.812-13.377q22.638 0 37.044 12.348t14.406 29.841zM624.612 569.455q0 23.667-14.406 38.073t-38.073 14.406q-24.696 0-43.218-15.435t-18.522-37.044q0-22.638 18.522-37.044t43.218-14.406q23.667 0 38.073 13.377t14.406 38.073zM988.884 278.244q0 15.435-15.435 28.812t-37.044 12.348q-15.435 0-27.783-13.377t-13.377-27.783q0-16.464 13.377-28.812t27.783-13.377q22.638 0 37.044 12.348t15.435 29.841zM835.56 505.656q-17.493 3.087-40.131 3.087-96.726 0-178.020-44.247t-128.626-120.394-46.305-164.642q0-45.276 13.377-87.465-20.58-2.058-39.102-2.058-15.435 0-28.812 1.029t-31.899 4.116-25.725 4.116-30.87 6.174-28.812 5.145l-145.091-72.030 41.16 124.51q-166.7 117.307-166.7 281.95 0 96.726 55.566 178.020t152.294 128.626 208.89 46.305q100.842 0 190.368-37.044t150.236-104.958 78.204-150.236zM1176.163 183.576q0-66.885-39.102-127.597t-107.017-111.133l31.899-103.929-114.22 61.74q-86.436-20.58-125.539-20.58-96.726 0-178.020 40.131t-128.626 110.104-47.334 151.265 47.334 152.294 128.626 109.075 178.020 41.16q92.61 0 173.903-41.16t130.684-110.104 49.392-151.265z" />
<glyph unicode="&#xe81b;" glyph-name="weibo" d="M387.938 97.137q11.319 18.522 6.174 39.102t-25.725 28.812q-19.551 8.232-42.189 0t-33.957-25.725q-13.377-19.551-8.232-39.102t24.696-29.841 43.218-1.029 36.015 27.783zM441.447 166.081q5.145 7.203 2.058 15.435t-10.29 10.29q-7.203 3.087-16.464 0t-12.348-10.29q-9.261-18.522 8.232-26.754 8.232-2.058 16.464 1.029t12.348 10.29zM541.263 104.34q-25.725-58.653-90.552-85.407t-128.626-7.203q-61.74 19.551-84.378 73.059t3.087 107.017q27.783 53.508 87.465 80.262t120.394 10.29q63.798-16.464 91.581-67.914t1.029-110.104zM720.31 196.953q-5.145 54.537-50.421 96.726t-120.394 62.769-157.439 12.348q-127.597-13.377-211.977-81.291t-76.146-152.294q5.145-54.537 51.45-96.726t119.365-62.769 157.439-12.348q128.626 13.377 211.977 81.291t76.146 152.294zM897.301 193.866q0-39.102-20.58-79.233t-62.769-79.233-96.726-66.885-129.655-48.363-155.381-17.493-158.468 19.551-137.888 52.479-98.784 87.465-37.044 114.22q0 65.856 40.131 140.975t113.191 148.178q96.726 96.726 196.542 134.801t140.975-3.087q37.044-37.044 11.319-120.394-2.058-8.232 0-11.319t5.145-4.116 8.232 0 8.232 2.058l3.087 1.029q80.262 33.957 142.004 33.957t87.465-34.986q25.725-36.015 0-101.871-1.029-8.232-3.087-11.319t3.087-7.203 7.203-5.145 9.261-3.087q32.928-10.29 59.682-26.754t45.276-47.334 19.551-66.885zM855.111 552.991q23.667-27.783 30.87-62.769t-3.087-67.914q-5.145-12.348-17.493-19.551t-25.725-2.058q-12.348 5.145-19.551 17.493t-2.058 25.725q11.319 36.015-13.377 62.769t-61.74 20.58q-13.377-3.087-25.725 4.116t-14.406 21.609q-3.087 14.406 5.145 25.725t20.58 14.406q34.986 7.203 68.943-3.087t57.624-38.073zM959.043 646.632q49.392-55.566 64.827-128.626t-8.232-137.888q-5.145-16.464-19.551-23.667t-29.841-2.058-22.638 19.551-3.087 29.841q16.464 47.334 6.174 98.784t-46.305 90.552q-36.015 40.131-85.407 54.537t-98.784 5.145q-16.464-3.087-29.841 6.174t-17.493 24.696 5.145 29.841 25.725 16.464q69.972 14.406 139.946-6.174t119.365-77.175z" />
<glyph unicode="&#xe81c;" glyph-name="github" horiz-adv-x="883" d="M881.866 319.405q0-144.062-84.378-259.311t-217.122-159.497q-15.435-3.087-22.638 4.116t-7.203 17.493v121.423q0 55.566-29.841 81.291 32.928 3.087 58.653 10.29t54.537 22.638 46.305 38.073 30.87 59.682 11.319 86.436q0 69.972-45.276 118.336 21.609 52.479-5.145 117.307-15.435 5.145-46.305-6.174t-52.479-25.725l-21.609-13.377q-53.508 15.435-110.104 15.435t-111.133-15.435q-8.232 6.174-23.667 15.435t-48.363 22.638-49.392 7.203q-24.696-64.827-4.116-117.307-45.276-48.363-45.276-118.336 0-48.363 12.348-85.407t29.841-60.711 46.305-38.073 53.508-22.638 58.653-10.29q-22.638-20.58-27.783-59.682-12.348-5.145-25.725-8.232t-32.928-3.087-37.044 12.348-31.899 36.015q-11.319 18.522-27.783 29.841t-28.812 14.406l-11.319 1.029q-12.348 0-16.464-2.058t-3.087-7.203 5.145-8.232 7.203-6.174l4.116-3.087q12.348-6.174 24.696-21.609t18.522-29.841l5.145-13.377q8.232-21.609 25.725-34.986t38.073-17.493 40.131-4.116 31.899 2.058l13.377 3.087q0-22.638 0-51.45t1.029-30.87q0-10.29-8.232-17.493t-22.638-4.116q-132.743 44.247-217.122 159.497t-84.378 259.311q0 120.394 59.682 221.238t159.497 160.526 222.267 59.682 221.238-59.682 160.526-160.526 58.653-221.238z" />
<glyph unicode="&#xe81d;" glyph-name="html5" horiz-adv-x="809" d="M649.308 491.25l9.261 100.842h-508.332l26.754-306.646h351.923l-12.348-131.714-113.191-29.841-113.191 29.841-7.203 80.262h-100.842l13.377-159.497 207.861-56.595h2.058l205.803 56.595 28.812 312.82h-369.416l-9.261 103.929h387.938zM0 760.851h808.806l-74.088-826.299-331.343-92.61-330.314 92.61z" />
<glyph unicode="&#xe81e;" glyph-name="css3" d="M157.439 760.851h864.372l-152.294-765.587-462.027-153.323-400.287 153.323 40.131 203.745h170.816l-16.464-84.378 241.818-91.581 279.892 91.581 39.102 195.513h-694.585l33.957 169.787h693.556l22.638 110.104h-693.556z" />
<glyph unicode="&#xe81f;" glyph-name="male" horiz-adv-x="1021" d="M0 174.314q0 153.323 108.046 261.369t261.369 109.075q109.075 0 201.687-58.653l204.774 204.774h-156.41v143.033h401.316v-402.345h-144.062v155.381l-201.687-203.745q64.827-93.639 64.827-208.89 0-152.294-109.075-261.369t-262.398-108.046-260.34 108.046-108.046 261.369zM149.207 175.343q0-90.552 63.798-156.41t155.381-64.827 157.439 64.827 64.827 156.41-64.827 156.41-157.439 63.798-155.381-63.798-63.798-156.41z" />
<glyph unicode="&#xe820;" glyph-name="female" horiz-adv-x="663" d="M0 502.569q0 136.859 96.726 233.586t232.557 97.755 234.615-97.755 97.755-233.586q0-119.365-77.175-209.919t-190.368-114.22v-105.988h140.975v-126.568h-140.975v-140.975h-126.568v140.975h-143.033v126.568h143.033v105.988q-115.249 22.638-191.397 114.22t-76.146 209.919zM130.684 502.569q0-82.32 58.653-140.975t139.946-58.653 140.975 58.653 58.653 140.975-58.653 140.975-140.975 57.624-139.946-57.624-58.653-140.975z" />
<glyph unicode="&#xe821;" glyph-name="plus" horiz-adv-x="809" d="M808.806 410.987v-110.104q0-22.638-16.464-39.102t-39.102-15.435h-238.731v-239.76q0-22.638-16.464-38.073t-39.102-16.464h-110.104q-22.638 0-39.102 16.464t-15.435 38.073v239.76h-238.731q-23.667 0-39.102 15.435t-16.464 39.102v110.104q0 23.667 16.464 39.102t39.102 16.464h238.731v238.731q0 22.638 15.435 39.102t39.102 16.464h110.104q23.667 0 39.102-16.464t16.464-39.102v-238.731h238.731q22.638 0 39.102-16.464t16.464-39.102z" />
<glyph unicode="&#xe822;" glyph-name="minus" horiz-adv-x="809" d="M808.806 410.987v-110.104q0-22.638-16.464-39.102t-39.102-15.435h-697.672q-23.667 0-39.102 15.435t-16.464 39.102v110.104q0 23.667 16.464 39.102t39.102 16.464h697.672q22.638 0 39.102-16.464t16.464-39.102z" />
<glyph unicode="&#xe823;" glyph-name="ok" d="M959.043 508.743q0-22.638-15.435-39.102l-493.926-493.926q-16.464-15.435-39.102-15.435t-39.102 15.435l-286.066 286.066q-15.435 16.464-15.435 39.102t15.435 39.102l78.204 78.204q16.464 16.464 39.102 16.464t39.102-16.464l168.758-169.787 376.619 377.648q16.464 16.464 39.102 16.464t39.102-16.464l78.204-78.204q15.435-16.464 15.435-39.102z" />
<glyph unicode="&#xe824;" glyph-name="cancel" horiz-adv-x="809" d="M745.007 74.499q0-22.638-15.435-39.102l-78.204-78.204q-16.464-15.435-39.102-15.435t-39.102 15.435l-168.758 169.787-168.758-169.787q-16.464-15.435-39.102-15.435t-39.102 15.435l-78.204 78.204q-16.464 16.464-16.464 39.102t16.464 39.102l168.758 168.758-168.758 168.758q-16.464 16.464-16.464 39.102t16.464 39.102l78.204 78.204q16.464 16.464 39.102 16.464t39.102-16.464l168.758-168.758 168.758 168.758q16.464 16.464 39.102 16.464t39.102-16.464l78.204-78.204q15.435-15.435 15.435-39.102t-15.435-39.102l-168.758-168.758 168.758-168.758q15.435-15.435 15.435-39.102z" />
<glyph unicode="&#xe825;" glyph-name="yen" horiz-adv-x="592" d="M346.778-47.954h-98.784q-8.232 0-13.377 5.145t-5.145 13.377v189.339h-165.671q-7.203 0-13.377 5.145t-5.145 13.377v58.653q0 7.203 5.145 13.377t13.377 5.145h165.671v49.392h-165.671q-7.203 0-13.377 5.145t-5.145 12.348v59.682q0 8.232 5.145 13.377t13.377 5.145h122.452l-184.194 332.372q-4.116 9.261 0 18.522 6.174 9.261 16.464 9.261h111.133q11.319 0 16.464-10.29l123.481-244.905q11.319-21.609 32.928-71.001 5.145 13.377 17.493 38.073t15.435 36.015l110.104 240.789q4.116 11.319 16.464 11.319h109.075q10.29 0 15.435-9.261 5.145-8.232 1.029-18.522l-180.078-332.372h123.481q7.203 0 13.377-5.145t5.145-13.377v-59.682q0-7.203-5.145-12.348t-13.377-5.145h-166.7v-49.392h166.7q7.203 0 13.377-5.145t5.145-13.377v-58.653q0-8.232-5.145-13.377t-13.377-5.145h-166.7v-189.339q0-8.232-5.145-13.377t-12.348-5.145z" />
<glyph unicode="&#xe826;" glyph-name="window" horiz-adv-x="1122" d="M1122.654 833.912v-654.453h-280.921v-374.561h-841.734v654.453h280.921v374.561h841.734zM841.734 273.099h187.281v373.532h-654.453v-187.281h467.172v-186.252zM93.639-101.463h654.453v374.561h-654.453v-374.561z" />
<glyph unicode="&#xe827;" glyph-name="play" horiz-adv-x="809" d="M794.4 301.911l-762.5-423.954q-13.377-7.203-22.638-2.058t-9.261 20.58v845.85q0 14.406 9.261 20.58t22.638-2.058l762.5-423.954q13.377-7.203 13.377-17.493t-13.377-17.493z" />
<glyph unicode="&#xe828;" glyph-name="skin" d="M1005.348 627.081l-161.555 128.626q-17.493 14.406-40.131 14.406h-586.539l-6.174-2.058q-4.116 0-7.203-2.058t-7.203-3.087-5.145-3.087l-6.174-4.116-161.555-128.626q-15.435-13.377-21.609-31.899t1.029-38.073l63.798-193.455q3.087-7.203 7.203-13.377t9.261-11.319 11.319-9.261 13.377-7.203q10.29-3.087 20.58-3.087 17.493 0 31.899 9.261v-395.142q0-25.725 19.551-45.276t45.276-19.551h578.307q26.754 0 45.276 19.551t19.551 45.276v395.142q14.406-9.261 31.899-9.261 11.319 0 21.609 3.087 29.841 11.319 40.131 41.16l63.798 193.455q6.174 18.522 1.029 38.073t-21.609 31.899zM634.902 705.285q-12.348-27.783-46.305-46.305t-74.088-17.493-74.088 17.493-46.305 46.305h240.789zM900.388 384.232l-96.726 63.798v-514.506h-578.307v514.506l-96.726-63.798-63.798 192.426 160.526 128.626h134.801q12.348-42.189 55.566-68.943t98.784-27.783q26.754 0 52.479 8.232t46.305 19.551 34.986 29.841 20.58 39.102h134.801l161.555-128.626z" />
<glyph unicode="&#xe829;" glyph-name="layout" d="M0-118.956l952.869 952.869 76.146-76.146-952.869-952.869zM0 302.94v241.818h240.789v-241.818h-240.789zM0 591.065v240.789h240.789v-240.789h-240.789zM282.979 302.94v241.818h241.818zM282.979 591.065v240.789h241.818v-240.789h-241.818zM526.857-193.045v134.801h502.158v-134.801h-502.158zM526.857-20.17v134.801h502.158v-134.801h-502.158zM558.756 152.703l149.207 134.801h321.053v-134.801h-470.259z" />
<glyph unicode="&#xe82a;" glyph-name="row4" d="M1029.015 833.912v-164.642h-1029.015v164.642h1029.015zM1029.015 545.788v-164.642h-1029.015v164.642h1029.015zM1029.015 257.664v-164.642h-1029.015v164.642h1029.015zM1029.015-30.46v-164.642h-1029.015v164.642h1029.015z" />
<glyph unicode="&#xe82b;" glyph-name="col4" d="M1029.015 833.912h-164.642v-1029.015h164.642v1029.015zM740.891 833.912h-164.642v-1029.015h164.642v1029.015zM452.766 833.912h-164.642v-1029.015h164.642v1029.015zM164.642 833.912h-164.642v-1029.015h164.642v1029.015z" />
<glyph unicode="&#xe82c;" glyph-name="cor4" d="M1029.015 833.912v-452.766h-452.766v452.766h452.766zM699.73 504.627h205.803v205.803h-205.803v-205.803zM452.766 833.912v-452.766h-452.766v452.766h452.766zM123.481 504.627h205.803v205.803h-205.803v-205.803zM1029.015 257.664v-452.766h-452.766v452.766h452.766zM699.73-71.621h205.803v205.803h-205.803v-205.803zM452.766 257.664v-452.766h-452.766v452.766h452.766zM123.481-71.621h205.803v205.803h-205.803v-205.803z" />
<glyph unicode="&#xe82d;" glyph-name="lib" horiz-adv-x="660" d="M535.089 82.731q51.45 0 87.465-36.015t36.015-87.465-36.015-87.465-87.465-36.015q-82.32 0-113.191 76.146h-168.758q-90.552 0-134.801 55.566t-44.247 121.423v477.462q-74.088 34.986-74.088 113.191 0 51.45 36.015 87.465t87.465 36.015 87.465-36.015 36.015-87.465q0-78.204-74.088-113.191v-117.307q0-80.262 80.262-80.262h168.758q30.87 74.088 113.191 74.088 51.45 0 87.465-36.015t36.015-87.465-36.015-87.465-87.465-36.015q-82.32 0-113.191 76.146h-168.758q-43.218 0-80.262 16.464v-199.629q0-80.262 80.262-80.262h168.758q30.87 74.088 113.191 74.088zM535.089 391.436q-28.812 0-50.421-20.58t-21.609-51.45q0-28.812 21.609-49.392t50.421-20.58 50.421 20.58 21.609 49.392q0 30.87-21.609 51.45t-50.421 20.58zM51.45 679.56q0-28.812 21.609-49.392t50.421-20.58 50.421 20.58 21.609 49.392q0 30.87-21.609 51.45t-50.421 20.58-50.421-20.58-21.609-51.45zM535.089-110.724q28.812 0 50.421 20.58t21.609 49.392q0 30.87-21.609 51.45t-50.421 20.58-50.421-20.58-21.609-51.45q0-28.812 21.609-49.392t50.421-20.58z" />
<glyph unicode="&#xe82e;" glyph-name="auto" horiz-adv-x="883" d="M867.459 227.823q0-3.087 0-4.116-37.044-154.352-154.352-250.050t-274.747-95.697q-83.349 0-161.555 31.899t-139.946 90.552l-74.088-74.088q-11.319-11.319-25.725-11.319t-25.725 11.319-11.319 25.725v257.253q0 14.406 11.319 25.725t25.725 11.319h257.253q14.406 0 25.725-11.319t10.29-25.725-10.29-25.725l-79.233-79.233q41.16-38.073 92.61-58.653t108.046-20.58q76.146 0 143.033 38.073t107.017 101.871q6.174 10.29 29.841 67.914 5.145 13.377 17.493 13.377h110.104q8.232 0 13.377-6.174t5.145-12.348zM881.866 686.763v-257.253q0-14.406-10.29-25.725t-26.754-11.319h-257.253q-14.406 0-25.725 11.319t-10.29 25.725 10.29 25.725l79.233 79.233q-84.378 79.233-199.629 79.233-77.175 0-144.062-38.073t-107.017-101.871q-6.174-10.29-29.841-67.914-5.145-13.377-17.493-13.377h-114.22q-7.203 0-13.377 6.174t-5.145 12.348v4.116q37.044 154.352 155.381 250.050t275.776 95.697q83.349 0 162.584-31.899t140.975-90.552l74.088 74.088q11.319 11.319 25.725 11.319t26.754-11.319 10.29-25.725z" />
<glyph unicode="&#xe82f;" glyph-name="save" horiz-adv-x="883" d="M220.209-47.954h441.447v220.209h-441.447v-220.209zM734.716-47.954h74.088v514.506q0 8.232-6.174 21.609t-11.319 20.58l-161.555 160.526q-5.145 6.174-19.551 12.348t-22.638 5.145v-238.731q0-22.638-15.435-39.102t-39.102-16.464h-331.343q-22.638 0-38.073 16.464t-16.464 39.102v238.731h-74.088v-734.716h74.088v238.731q0 22.638 16.464 39.102t38.073 16.464h478.491q22.638 0 39.102-16.464t15.435-39.102v-238.731zM514.506 485.076v183.165q0 8.232-5.145 13.377t-13.377 5.145h-110.104q-7.203 0-13.377-5.145t-5.145-13.377v-183.165q0-8.232 5.145-13.377t13.377-5.145h110.104q7.203 0 13.377 5.145t5.145 13.377zM881.866 466.554v-533.031q0-22.638-15.435-39.102t-39.102-16.464h-771.761q-23.667 0-39.102 16.464t-16.464 39.102v771.761q0 22.638 16.464 39.102t39.102 16.464h532.002q23.667 0 51.45-12.348t43.218-26.754l160.526-161.555q16.464-15.435 27.783-43.218t11.319-50.421z" />
<glyph unicode="&#xe830;" glyph-name="file-code" horiz-adv-x="883" d="M842.763 615.762q16.464-16.464 27.783-43.218t11.319-51.45v-660.628q0-23.667-15.435-39.102t-39.102-16.464h-771.761q-23.667 0-39.102 16.464t-16.464 39.102v917.881q0 23.667 16.464 39.102t39.102 16.464h514.506q22.638 0 50.421-11.319t43.218-27.783zM587.568 755.706v-216.093h216.093q-5.145 16.464-12.348 23.667l-180.078 180.078q-6.174 7.203-23.667 12.348zM808.806-122.043v588.597h-238.731q-23.667 0-39.102 15.435t-16.464 39.102v239.76h-441.447v-882.895h735.746zM275.776 392.465q4.116 7.203 12.348 7.203t13.377-3.087l28.812-21.609q7.203-5.145 7.203-12.348t-3.087-14.406l-104.958-138.917 104.958-139.946q4.116-6.174 3.087-13.377t-7.203-12.348l-28.812-21.609q-6.174-4.116-13.377-4.116t-12.348 7.203l-129.655 172.874q-8.232 11.319 0 21.609zM735.746 219.591q8.232-10.29 0-21.609l-129.655-172.874q-4.116-6.174-11.319-7.203t-14.406 4.116l-28.812 21.609q-6.174 5.145-7.203 12.348t3.087 13.377l104.958 139.946-104.958 138.917q-4.116 7.203-3.087 14.406t7.203 12.348l28.812 21.609q6.174 4.116 14.406 3.087t11.319-7.203zM379.706-44.867q-7.203 1.029-11.319 7.203t-3.087 14.406l79.233 477.462q1.029 7.203 7.203 11.319t14.406 3.087l36.015-5.145q7.203-2.058 11.319-8.232t3.087-13.377l-79.233-477.462q-1.029-7.203-7.203-11.319t-13.377-3.087z" />
<glyph unicode="&#xe831;" glyph-name="code" horiz-adv-x="1102" d="M353.981 30.251l-28.812-28.812q-5.145-5.145-12.348-5.145t-13.377 5.145l-267.544 267.544q-6.174 6.174-6.174 13.377t6.174 13.377l267.544 267.544q5.145 6.174 13.377 6.174t12.348-6.174l28.812-28.812q6.174-5.145 6.174-13.377t-6.174-12.348l-225.354-226.383 225.354-225.354q6.174-6.174 6.174-13.377t-6.174-13.377zM693.556 643.545l-214.035-741.92q-2.058-7.203-9.261-11.319t-13.377-1.029l-34.986 9.261q-8.232 3.087-11.319 9.261t-2.058 14.406l214.035 740.891q3.087 8.232 9.261 11.319t13.377 2.058l36.015-10.29q7.203-2.058 11.319-9.261t1.029-13.377zM1071.204 268.983l-267.544-267.544q-6.174-5.145-13.377-5.145t-13.377 5.145l-28.812 28.812q-5.145 6.174-5.145 13.377t5.145 13.377l225.354 225.354-225.354 226.383q-5.145 5.145-5.145 12.348t5.145 13.377l28.812 28.812q6.174 6.174 13.377 6.174t13.377-6.174l267.544-267.544q5.145-5.145 5.145-13.377t-5.145-13.377z" />
<glyph unicode="&#xe832;" glyph-name="search" horiz-adv-x="955" d="M661.657 356.449q0 105.988-76.146 181.107t-181.107 76.146-182.136-76.146-75.117-181.107 75.117-182.136 182.136-75.117 181.107 75.117 76.146 182.136zM955.956-122.043q0-29.841-22.638-51.45t-51.45-21.609q-30.87 0-51.45 21.609l-196.542 196.542q-102.9-71.001-229.47-71.001-82.32 0-157.439 31.899t-128.626 86.436-86.436 128.626-31.899 157.439 31.899 156.41 86.436 129.655 128.626 86.436 157.439 31.899 156.41-31.899 129.655-86.436 86.436-129.655 31.899-156.41q0-126.568-71.001-229.47l196.542-196.542q21.609-21.609 21.609-52.479z" />
<glyph unicode="&#xe833;" glyph-name="filter" horiz-adv-x="809" d="M805.719 664.125q9.261-23.667-8.232-40.131l-282.979-282.979v-426.012q0-23.667-22.638-33.957-7.203-3.087-14.406-3.087-15.435 0-25.725 11.319l-147.149 147.149q-10.29 10.29-10.29 25.725v278.863l-282.979 282.979q-18.522 16.464-8.232 40.131 9.261 22.638 33.957 22.638h734.716q23.667 0 33.957-22.638z" />
<glyph unicode="&#xe834;" glyph-name="edit" d="M510.39 153.732l65.856 66.885-87.465 87.465-65.856-66.885v-31.899h54.537v-55.566h32.928zM762.5 567.397q-9.261 9.261-18.522 0l-201.687-201.687q-9.261-9.261 0-18.522t18.522 0l201.687 201.687q9.261 9.261 0 18.522zM808.806 226.794v-109.075q0-68.943-48.363-117.307t-117.307-48.363h-477.462q-68.943 0-117.307 48.363t-48.363 117.307v477.462q0 67.914 48.363 116.278t117.307 49.392h477.462q36.015 0 66.885-14.406 9.261-4.116 10.29-13.377 2.058-10.29-5.145-16.464l-27.783-28.812q-8.232-8.232-18.522-4.116-13.377 3.087-25.725 3.087h-477.462q-38.073 0-64.827-26.754t-27.783-64.827v-477.462q0-38.073 27.783-64.827t64.827-27.783h477.462q38.073 0 64.827 27.783t26.754 64.827v72.030q0 7.203 5.145 12.348l37.044 37.044q8.232 8.232 20.58 4.116t11.319-16.464zM753.239 649.719l165.671-164.642-385.88-385.88h-165.671v164.642zM1008.435 574.601l-52.479-53.508-165.671 165.671 52.479 52.479q16.464 16.464 39.102 16.464t39.102-16.464l87.465-86.436q16.464-16.464 16.464-39.102t-16.464-39.102z" />
<glyph unicode="&#xe835;" glyph-name="folder" horiz-adv-x="1102" d="M1022.841 298.824q0 20.58-30.87 20.58h-624.612q-22.638 0-49.392-12.348t-40.131-29.841l-168.758-208.89q-11.319-13.377-11.319-22.638 0-20.58 30.87-20.58h624.612q22.638 0 49.392 13.377t41.16 29.841l168.758 208.89q10.29 12.348 10.29 21.609zM367.358 392.465h441.447v92.61q0 22.638-16.464 39.102t-39.102 15.435h-330.314q-23.667 0-39.102 16.464t-16.464 39.102v37.044q0 22.638-15.435 39.102t-39.102 15.435h-184.194q-22.638 0-39.102-15.435t-16.464-39.102v-489.81l147.149 180.078q25.725 30.87 66.885 50.421t80.262 19.551zM1095.9 298.824q0-34.986-25.725-67.914l-169.787-208.89q-24.696-30.87-66.885-50.421t-80.262-19.551h-624.612q-52.479 0-90.552 38.073t-38.073 90.552v551.553q0 52.479 38.073 90.552t90.552 38.073h184.194q52.479 0 90.552-38.073t38.073-90.552v-18.522h311.791q52.479 0 90.552-38.073t38.073-90.552v-92.61h110.104q30.87 0 57.624-13.377t38.073-41.16q8.232-17.493 8.232-39.102z" />
<glyph unicode="&#xe836;" glyph-name="tags" horiz-adv-x="1102" d="M257.253 576.659q0 30.87-21.609 52.479t-51.45 20.58-52.479-20.58-21.609-52.479 21.609-51.45 52.479-21.609 51.45 21.609 21.609 51.45zM869.517 246.345q0-30.87-20.58-52.479l-281.95-281.95q-22.638-21.609-52.479-21.609-30.87 0-51.45 21.609l-410.577 410.577q-21.609 21.609-37.044 58.653t-15.435 66.885v238.731q0 29.841 21.609 51.45t51.45 22.638h239.76q29.841 0 66.885-15.435t58.653-37.044l410.577-410.577q20.58-21.609 20.58-51.45zM1090.755 246.345q0-30.87-21.609-52.479l-281.95-281.95q-22.638-21.609-52.479-21.609-20.58 0-33.957 8.232t-29.841 25.725l269.602 269.602q21.609 21.609 21.609 52.479 0 29.841-21.609 51.45l-410.577 410.577q-21.609 21.609-58.653 37.044t-66.885 15.435h128.626q29.841 0 66.885-15.435t58.653-37.044l410.577-410.577q21.609-21.609 21.609-51.45z" />
<glyph unicode="&#xe837;" glyph-name="settle" horiz-adv-x="883" d="M587.568 319.405q0 60.711-42.189 103.929t-103.929 43.218-103.929-43.218-43.218-103.929 43.218-103.929 103.929-43.218 103.929 43.218 42.189 103.929zM881.866 382.174v-127.597q0-7.203-4.116-13.377t-11.319-7.203l-107.017-16.464q-10.29-30.87-21.609-52.479 19.551-27.783 60.711-79.233 6.174-6.174 6.174-13.377t-5.145-13.377q-15.435-21.609-56.595-62.769t-54.537-40.131q-7.203 0-14.406 5.145l-79.233 61.74q-25.725-13.377-52.479-21.609-9.261-78.204-16.464-107.017-4.116-16.464-20.58-16.464h-127.597q-8.232 0-14.406 5.145t-6.174 12.348l-16.464 105.988q-27.783 9.261-51.45 21.609l-81.291-61.74q-6.174-5.145-14.406-5.145t-14.406 6.174q-72.030 65.856-94.668 96.726-4.116 5.145-4.116 13.377 0 6.174 5.145 12.348 8.232 12.348 28.812 38.073t30.87 41.16q-15.435 28.812-23.667 56.595l-104.958 15.435q-7.203 1.029-11.319 7.203t-5.145 13.377v127.597q0 7.203 5.145 13.377t10.29 7.203l107.017 16.464q8.232 25.725 22.638 52.479-23.667 32.928-61.74 79.233-6.174 7.203-6.174 14.406 0 5.145 5.145 12.348 15.435 20.58 56.595 61.74t54.537 41.16q7.203 0 15.435-5.145l79.233-61.74q24.696 13.377 51.45 21.609 9.261 78.204 17.493 107.017 3.087 15.435 20.58 15.435h127.597q7.203 0 13.377-4.116t7.203-12.348l15.435-105.988q28.812-9.261 51.45-21.609l82.32 61.74q5.145 5.145 13.377 5.145 7.203 0 14.406-5.145 74.088-68.943 94.668-97.755 4.116-5.145 4.116-13.377 0-6.174-4.116-12.348-9.261-12.348-29.841-39.102t-30.87-40.131q14.406-28.812 23.667-56.595l104.958-15.435q7.203-1.029 12.348-7.203t4.116-13.377z" />
<glyph unicode="&#xe838;" glyph-name="warming" d="M587.568 44.658v109.075q0 8.232-5.145 13.377t-12.348 5.145h-111.133q-7.203 0-12.348-5.145t-5.145-13.377v-109.075q0-8.232 5.145-13.377t12.348-6.174h111.133q7.203 0 12.348 6.174t5.145 13.377zM586.539 258.693l10.29 264.457q0 6.174-5.145 10.29-7.203 6.174-14.406 6.174h-125.539q-7.203 0-14.406-6.174-5.145-4.116-5.145-12.348l9.261-262.398q0-5.145 6.174-9.261t13.377-3.087h105.988q8.232 0 13.377 3.087t6.174 9.261zM579.336 795.837l440.418-808.806q20.58-36.015-1.029-72.030-10.29-17.493-26.754-26.754t-36.015-10.29h-882.895q-18.522 0-36.015 10.29t-26.754 26.754q-21.609 36.015-1.029 72.030l441.447 808.806q9.261 17.493 26.754 27.783t37.044 10.29 37.044-10.29 27.783-27.783z" />
<glyph unicode="&#xe839;" glyph-name="home" horiz-adv-x="955" d="M808.806 263.838v-274.747q0-15.435-11.319-26.754t-25.725-10.29h-220.209v220.209h-147.149v-220.209h-220.209q-15.435 0-25.725 10.29t-11.319 26.754v274.747q0 1.029 0 2.058t0 2.058l330.314 271.66 330.314-271.66q1.029-1.029 1.029-4.116zM936.404 303.969l-34.986-42.189q-5.145-5.145-12.348-6.174h-2.058q-7.203 0-12.348 3.087l-397.2 331.343-397.2-331.343q-7.203-4.116-13.377-4.116-7.203 2.058-12.348 7.203l-36.015 42.189q-4.116 5.145-3.087 13.377t6.174 12.348l412.635 343.691q18.522 15.435 43.218 15.435t44.247-15.435l139.946-117.307v112.162q0 8.232 5.145 13.377t13.377 5.145h110.104q8.232 0 13.377-5.145t5.145-13.377v-233.586l125.539-104.958q5.145-5.145 6.174-12.348t-4.116-13.377z" />
<glyph unicode="&#xe83a;" glyph-name="user" horiz-adv-x="809" d="M808.806 27.164q0-68.943-42.189-109.075t-111.133-40.131h-502.158q-68.943 0-111.133 40.131t-42.189 109.075q0 30.87 2.058 59.682t8.232 62.769 15.435 61.74 24.696 56.595 34.986 46.305 49.392 30.87 63.798 11.319q5.145 0 24.696-12.348t42.189-27.783 61.74-27.783 77.175-12.348 76.146 12.348 62.769 27.783 42.189 27.783 24.696 12.348q34.986 0 63.798-11.319t49.392-30.87 34.986-46.305 24.696-56.595 15.435-61.74 8.232-62.769 2.058-59.682zM624.612 539.614q0-90.552-64.827-155.381t-155.381-64.827-156.41 64.827-63.798 155.381 63.798 156.41 156.41 64.827 155.381-64.827 64.827-156.41z" />
<glyph unicode="&#xe83b;" glyph-name="group" horiz-adv-x="1102" d="M340.604 319.405q-92.61-3.087-152.294-73.059h-77.175q-46.305 0-79.233 22.638t-31.899 67.914q0 202.716 71.001 202.716 4.116 0 25.725-11.319t55.566-24.696 67.914-12.348q39.102 0 77.175 13.377-3.087-21.609-3.087-38.073 0-80.262 46.305-147.149zM955.956-46.925q0-67.914-42.189-108.046t-111.133-40.131h-502.158q-69.972 0-111.133 40.131t-42.189 108.046q0 30.87 2.058 59.682t8.232 62.769 14.406 62.769 24.696 55.566 36.015 46.305 49.392 30.87 63.798 11.319q6.174 0 24.696-12.348t42.189-26.754 60.711-27.783 78.204-12.348 77.175 12.348 61.74 27.783 42.189 26.754 23.667 12.348q36.015 0 64.827-11.319t48.363-30.87 36.015-46.305 24.696-55.566 15.435-62.769 8.232-62.769 2.058-59.682zM367.358 686.763q0-60.711-43.218-103.929t-103.929-43.218-103.929 43.218-43.218 103.929 43.218 103.929 103.929 43.218 103.929-43.218 43.218-103.929zM771.761 466.554q0-91.581-64.827-156.41t-155.381-63.798-156.41 63.798-64.827 156.41 64.827 155.381 156.41 64.827 155.381-64.827 64.827-155.381zM1102.074 336.898q0-44.247-31.899-67.914t-79.233-22.638h-77.175q-58.653 69.972-151.265 73.059 46.305 66.885 46.305 147.149 0 16.464-3.087 38.073 38.073-13.377 76.146-13.377 33.957 0 68.943 12.348t55.566 24.696 24.696 11.319q71.001 0 71.001-202.716zM1029.015 686.763q0-60.711-43.218-103.929t-103.929-43.218-103.929 43.218-43.218 103.929 43.218 103.929 103.929 43.218 103.929-43.218 43.218-103.929z" />
<glyph unicode="&#xe83c;" glyph-name="copyright" horiz-adv-x="883" d="M660.628 217.533v-62.769q0-28.812-21.609-51.45t-53.508-34.986-67.914-18.522-66.885-6.174q-118.336 0-197.571 80.262t-78.204 198.6q0 116.278 78.204 194.484t194.484 78.204q19.551 0 43.218-3.087t53.508-10.29 52.479-19.551 40.131-31.899 15.435-46.305v-62.769q0-9.261-8.232-9.261h-67.914q-9.261 0-9.261 9.261v40.131q0 24.696-38.073 39.102t-78.204 13.377q-81.291 0-131.714-52.479t-50.421-135.83q0-87.465 52.479-144.062t133.772-56.595q39.102 0 79.233 14.406t40.131 38.073v40.131q0 4.116 3.087 6.174t5.145 3.087h68.943q3.087 0 6.174-3.087t3.087-6.174zM441.447 686.763q-75.117 0-143.033-28.812t-117.307-78.204-78.204-117.307-29.841-143.033 29.841-143.033 78.204-116.278 117.307-79.233 143.033-28.812 142.004 28.812 117.307 79.233 78.204 116.278 29.841 143.033-29.841 143.033-78.204 117.307-117.307 78.204-142.004 28.812zM881.866 319.405q0-120.394-58.653-221.238t-160.526-160.526-221.238-59.682-222.267 59.682-159.497 160.526-59.682 221.238 59.682 221.238 159.497 160.526 222.267 59.682 221.238-59.682 160.526-160.526 58.653-221.238z" />
<glyph unicode="&#xe83d;" glyph-name="talk" d="M404.403 613.704q-87.465 0-164.642-29.841t-121.423-81.291-45.276-110.104q0-46.305 30.87-90.552t85.407-75.117l55.566-32.928-19.551-47.334q19.551 11.319 34.986 21.609l25.725 18.522 30.87-6.174q44.247-8.232 87.465-8.232 87.465 0 163.613 29.841t121.423 81.291 45.276 109.075-45.276 110.104-121.423 81.291-163.613 29.841zM404.403 686.763q109.075 0 202.716-39.102t147.149-107.017 54.537-148.178-54.537-147.149-147.149-107.017-202.716-39.102q-49.392 0-100.842 9.261-72.030-50.421-159.497-74.088-21.609-5.145-49.392-9.261h-2.058q-6.174 0-12.348 5.145t-6.174 12.348q-1.029 1.029-1.029 3.087t1.029 4.116 1.029 3.087l1.029 3.087t2.058 3.087 2.058 3.087 3.087 3.087 2.058 2.058q3.087 3.087 13.377 14.406t15.435 16.464 12.348 17.493 14.406 21.609 11.319 25.725q-71.001 41.16-111.133 100.842t-41.16 128.626q0 80.262 54.537 148.178t147.149 107.017 202.716 39.102zM876.721 15.845q5.145-14.406 11.319-25.725t14.406-21.609 13.377-16.464 14.406-17.493 13.377-14.406q0 0 2.058-2.058t3.087-3.087 2.058-3.087 2.058-3.087l1.029-3.087t1.029-3.087 1.029-4.116-1.029-3.087q-2.058-8.232-7.203-13.377t-13.377-4.116q-27.783 4.116-49.392 9.261-87.465 23.667-159.497 74.088-51.45-9.261-100.842-9.261-155.381 0-270.631 76.146 32.928-3.087 50.421-3.087 92.61 0 176.991 25.725t152.294 74.088q71.001 53.508 110.104 122.452t38.073 145.091q0 44.247-13.377 87.465 74.088-40.131 117.307-101.871t43.218-131.714q0-68.943-41.16-129.655t-111.133-100.842z" />
<glyph unicode="&#xe83e;" glyph-name="calendar" horiz-adv-x="955" d="M73.059-122.043h808.806v588.597h-808.806v-588.597zM294.298 576.659v165.671q0 8.232-5.145 13.377t-13.377 5.145h-37.044q-8.232 0-13.377-5.145t-5.145-13.377v-165.671q0-8.232 5.145-13.377t13.377-5.145h37.044q8.232 0 13.377 5.145t5.145 13.377zM734.716 576.659v165.671q0 8.232-5.145 13.377t-13.377 5.145h-36.015q-8.232 0-13.377-5.145t-5.145-13.377v-165.671q0-8.232 5.145-13.377t13.377-5.145h36.015q8.232 0 13.377 5.145t5.145 13.377zM955.956 613.704v-735.746q0-29.841-22.638-51.45t-51.45-21.609h-808.806q-29.841 0-51.45 21.609t-21.609 51.45v735.746q0 29.841 21.609 51.45t51.45 21.609h74.088v55.566q0 37.044 26.754 64.827t64.827 26.754h37.044q38.073 0 64.827-26.754t26.754-64.827v-55.566h220.209v55.566q0 37.044 27.783 64.827t64.827 26.754h36.015q38.073 0 64.827-26.754t27.783-64.827v-55.566h73.059q29.841 0 51.45-21.609t22.638-51.45z" />
<glyph unicode="&#xe83f;" glyph-name="document" horiz-adv-x="883" d="M842.763 615.762q16.464-16.464 27.783-43.218t11.319-51.45v-660.628q0-23.667-15.435-39.102t-39.102-16.464h-771.761q-23.667 0-39.102 16.464t-16.464 39.102v917.881q0 23.667 16.464 39.102t39.102 16.464h514.506q22.638 0 50.421-11.319t43.218-27.783zM587.568 755.706v-216.093h216.093q-5.145 16.464-12.348 23.667l-180.078 180.078q-6.174 7.203-23.667 12.348zM808.806-122.043v588.597h-238.731q-23.667 0-39.102 15.435t-16.464 39.102v239.76h-441.447v-882.895h735.746zM220.209 374.971q0 7.203 5.145 12.348t13.377 5.145h404.403q8.232 0 13.377-5.145t5.145-12.348v-37.044q0-8.232-5.145-13.377t-13.377-5.145h-404.403q-8.232 0-13.377 5.145t-5.145 13.377v37.044zM643.134 246.345q8.232 0 13.377-5.145t5.145-13.377v-37.044q0-8.232-5.145-13.377t-13.377-5.145h-404.403q-8.232 0-13.377 5.145t-5.145 13.377v37.044q0 8.232 5.145 13.377t13.377 5.145h404.403zM643.134 99.195q8.232 0 13.377-5.145t5.145-13.377v-37.044q0-8.232-5.145-13.377t-13.377-5.145h-404.403q-8.232 0-13.377 5.145t-5.145 13.377v37.044q0 8.232 5.145 13.377t13.377 5.145h404.403z" />
<glyph unicode="&#xe840;" glyph-name="editor" horiz-adv-x="1102" d="M220.209 162.993v-54.537q0-9.261-9.261-9.261h-54.537q-9.261 0-9.261 9.261v54.537q0 9.261 9.261 9.261h54.537q9.261 0 9.261-9.261zM294.298 310.144v-54.537q0-9.261-9.261-9.261h-128.626q-9.261 0-9.261 9.261v54.537q0 9.261 9.261 9.261h128.626q9.261 0 9.261-9.261zM220.209 457.293v-55.566q0-9.261-9.261-9.261h-54.537q-9.261 0-9.261 9.261v55.566q0 9.261 9.261 9.261h54.537q9.261 0 9.261-9.261zM808.806 162.993v-54.537q0-9.261-9.261-9.261h-495.984q-9.261 0-9.261 9.261v54.537q0 9.261 9.261 9.261h495.984q9.261 0 9.261-9.261zM441.447 310.144v-54.537q0-9.261-9.261-9.261h-55.566q-9.261 0-9.261 9.261v54.537q0 9.261 9.261 9.261h55.566q9.261 0 9.261-9.261zM367.358 457.293v-55.566q0-9.261-9.261-9.261h-54.537q-9.261 0-9.261 9.261v55.566q0 9.261 9.261 9.261h54.537q9.261 0 9.261-9.261zM587.568 310.144v-54.537q0-9.261-8.232-9.261h-55.566q-9.261 0-9.261 9.261v54.537q0 9.261 9.261 9.261h55.566q8.232 0 8.232-9.261zM514.506 457.293v-55.566q0-9.261-9.261-9.261h-54.537q-9.261 0-9.261 9.261v55.566q0 9.261 9.261 9.261h54.537q9.261 0 9.261-9.261zM734.716 310.144v-54.537q0-9.261-9.261-9.261h-54.537q-9.261 0-9.261 9.261v54.537q0 9.261 9.261 9.261h54.537q9.261 0 9.261-9.261zM955.956 162.993v-54.537q0-9.261-9.261-9.261h-55.566q-9.261 0-9.261 9.261v54.537q0 9.261 9.261 9.261h55.566q9.261 0 9.261-9.261zM661.657 457.293v-55.566q0-9.261-9.261-9.261h-55.566q-9.261 0-9.261 9.261v55.566q0 9.261 9.261 9.261h55.566q9.261 0 9.261-9.261zM808.806 457.293v-55.566q0-9.261-9.261-9.261h-55.566q-9.261 0-9.261 9.261v55.566q0 9.261 9.261 9.261h55.566q9.261 0 9.261-9.261zM955.956 457.293v-201.687q0-9.261-9.261-9.261h-128.626q-9.261 0-9.261 9.261v54.537q0 9.261 9.261 9.261h63.798v137.888q0 9.261 9.261 9.261h55.566q9.261 0 9.261-9.261zM1029.015 25.106v514.506h-955.956v-514.506h955.956zM1102.074 539.614v-514.506q0-29.841-21.609-51.45t-51.45-21.609h-955.956q-29.841 0-51.45 21.609t-21.609 51.45v514.506q0 30.87 21.609 52.479t51.45 21.609h955.956q30.87 0 51.45-21.609t21.609-52.479z" />
<glyph unicode="&#xe841;" glyph-name="bookmark" horiz-adv-x="736" d="M661.657 686.763h-588.597v-713.107l294.298 281.95 51.45-48.363 242.847-233.586v713.107zM668.86 760.851q12.348 0 24.696-5.145 19.551-8.232 29.841-23.667t11.319-36.015v-739.862q0-19.551-11.319-36.015t-29.841-23.667q-10.29-4.116-24.696-4.116-27.783 0-48.363 18.522l-253.137 242.847-253.137-242.847q-20.58-19.551-47.334-19.551-13.377 0-25.725 5.145-18.522 7.203-29.841 23.667t-11.319 36.015v739.862q0 19.551 11.319 36.015t29.841 23.667q12.348 5.145 25.725 5.145h601.974z" />
<glyph unicode="&#xe842;" glyph-name="bookmark-full" horiz-adv-x="736" d="M668.86 760.851q12.348 0 24.696-5.145 19.551-8.232 29.841-23.667t11.319-36.015v-739.862q0-19.551-11.319-36.015t-29.841-23.667q-10.29-4.116-24.696-4.116-27.783 0-48.363 18.522l-253.137 242.847-253.137-242.847q-20.58-19.551-47.334-19.551-13.377 0-25.725 5.145-18.522 7.203-29.841 23.667t-11.319 36.015v739.862q0 19.551 11.319 36.015t29.841 23.667q12.348 5.145 25.725 5.145h601.974z" />
<glyph unicode="&#xe843;" glyph-name="rss" horiz-adv-x="809" d="M220.209 62.151q0-46.305-31.899-78.204t-78.204-31.899-78.204 31.899-31.899 78.204 31.899 78.204 78.204 31.899 78.204-31.899 31.899-78.204zM514.506-8.851q1.029-15.435-9.261-26.754-11.319-12.348-27.783-12.348h-77.175q-14.406 0-24.696 9.261t-11.319 23.667q-12.348 131.714-105.988 225.354t-225.354 105.988q-14.406 1.029-23.667 11.319t-9.261 24.696v77.175q0 16.464 12.348 26.754 9.261 10.29 24.696 10.29h3.087q91.581-7.203 174.932-46.305t149.207-103.929q64.827-64.827 103.929-149.207t46.305-175.962zM808.806-9.88q1.029-15.435-10.29-26.754-10.29-11.319-26.754-11.319h-82.32q-14.406 0-25.725 10.29t-11.319 23.667q-6.174 123.481-57.624 234.615t-132.743 193.455-193.455 132.743-233.586 58.653q-14.406 0-24.696 11.319t-10.29 24.696v82.32q0 15.435 11.319 26.754 10.29 10.29 25.725 10.29h1.029q151.265-8.232 288.124-68.943t244.905-168.758q107.017-107.017 168.758-244.905t68.943-288.124z" />
<glyph unicode="&#xe844;" glyph-name="mail" d="M955.956-29.431v440.418q-18.522-20.58-40.131-38.073-153.323-117.307-244.905-193.455-28.812-24.696-47.334-39.102t-49.392-27.783-58.653-13.377h-2.058q-26.754 0-58.653 13.377t-49.392 27.783-47.334 39.102q-90.552 76.146-244.905 193.455-21.609 17.493-40.131 38.073v-440.418q0-8.232 6.174-13.377t12.348-5.145h845.85q7.203 0 12.348 5.145t6.174 13.377zM955.956 573.572v14.406t-1.029 7.203-1.029 7.203-3.087 5.145-5.145 4.116-8.232 2.058h-845.85q-7.203 0-12.348-6.174t-6.174-12.348q0-96.726 84.378-163.613 111.133-87.465 230.499-182.136 4.116-2.058 20.58-16.464t25.725-21.609 25.725-18.522 28.812-15.435 24.696-5.145h2.058q11.319 0 24.696 5.145t28.812 15.435 25.725 18.522 25.725 21.609 20.58 16.464q119.365 94.668 230.499 182.136 30.87 24.696 57.624 66.885t26.754 75.117zM1029.015 595.181v-624.612q0-38.073-26.754-64.827t-64.827-27.783h-845.85q-37.044 0-64.827 27.783t-26.754 64.827v624.612q0 38.073 26.754 64.827t64.827 26.754h845.85q38.073 0 64.827-26.754t26.754-64.827z" />
<glyph unicode="&#xe845;" glyph-name="picture" horiz-adv-x="1102" d="M367.358 503.598q0-46.305-31.899-78.204t-78.204-32.928-78.204 32.928-31.899 78.204 31.899 77.175 78.204 32.928 78.204-32.928 31.899-77.175zM955.956 282.36v-257.253h-808.806v110.104l183.165 184.194 92.61-91.581 293.269 293.269zM1010.493 686.763h-918.91q-7.203 0-12.348-5.145t-6.174-13.377v-697.672q0-8.232 6.174-13.377t12.348-5.145h918.91q7.203 0 13.377 5.145t5.145 13.377v697.672q0 7.203-5.145 13.377t-13.377 5.145zM1102.074 668.241v-697.672q0-38.073-26.754-64.827t-64.827-27.783h-918.91q-37.044 0-64.827 27.783t-26.754 64.827v697.672q0 38.073 26.754 64.827t64.827 27.783h918.91q38.073 0 64.827-27.783t26.754-64.827z" />
<glyph unicode="&#xe846;" glyph-name="video" horiz-adv-x="1102" d="M220.209-84.998v74.088q0 14.406-10.29 25.725t-25.725 10.29h-74.088q-14.406 0-25.725-10.29t-11.319-25.725v-74.088q0-14.406 11.319-25.725t25.725-11.319h74.088q14.406 0 25.725 11.319t10.29 25.725zM220.209 135.21v74.088q0 14.406-10.29 25.725t-25.725 11.319h-74.088q-14.406 0-25.725-11.319t-11.319-25.725v-74.088q0-14.406 11.319-25.725t25.725-10.29h74.088q14.406 0 25.725 10.29t10.29 25.725zM220.209 356.449v73.059q0 15.435-10.29 25.725t-25.725 11.319h-74.088q-14.406 0-25.725-11.319t-11.319-25.725v-73.059q0-15.435 11.319-25.725t25.725-11.319h74.088q14.406 0 25.725 11.319t10.29 25.725zM808.806-84.998v294.298q0 14.406-11.319 25.725t-25.725 11.319h-441.447q-14.406 0-25.725-11.319t-10.29-25.725v-294.298q0-14.406 10.29-25.725t25.725-11.319h441.447q15.435 0 25.725 11.319t11.319 25.725zM220.209 576.659v73.059q0 15.435-10.29 26.754t-25.725 10.29h-74.088q-14.406 0-25.725-10.29t-11.319-26.754v-73.059q0-15.435 11.319-25.725t25.725-11.319h74.088q14.406 0 25.725 11.319t10.29 25.725zM1029.015-84.998v74.088q0 14.406-11.319 25.725t-25.725 10.29h-73.059q-15.435 0-25.725-10.29t-11.319-25.725v-74.088q0-14.406 11.319-25.725t25.725-11.319h73.059q15.435 0 25.725 11.319t11.319 25.725zM808.806 356.449v293.269q0 15.435-11.319 26.754t-25.725 10.29h-441.447q-14.406 0-25.725-10.29t-10.29-26.754v-293.269q0-15.435 10.29-25.725t25.725-11.319h441.447q15.435 0 25.725 11.319t11.319 25.725zM1029.015 135.21v74.088q0 14.406-11.319 25.725t-25.725 11.319h-73.059q-15.435 0-25.725-11.319t-11.319-25.725v-74.088q0-14.406 11.319-25.725t25.725-10.29h73.059q15.435 0 25.725 10.29t11.319 25.725zM1029.015 356.449v73.059q0 15.435-11.319 25.725t-25.725 11.319h-73.059q-15.435 0-25.725-11.319t-11.319-25.725v-73.059q0-15.435 11.319-25.725t25.725-11.319h73.059q15.435 0 25.725 11.319t11.319 25.725zM1029.015 576.659v73.059q0 15.435-11.319 26.754t-25.725 10.29h-73.059q-15.435 0-25.725-10.29t-11.319-26.754v-73.059q0-15.435 11.319-25.725t25.725-11.319h73.059q15.435 0 25.725 11.319t11.319 25.725zM1102.074 668.241v-771.761q0-38.073-26.754-64.827t-64.827-26.754h-918.91q-37.044 0-64.827 26.754t-26.754 64.827v771.761q0 38.073 26.754 64.827t64.827 27.783h918.91q38.073 0 64.827-27.783t26.754-64.827z" />
<glyph unicode="&#xe847;" glyph-name="tasks" d="M587.568 25.106h368.387v74.088h-368.387v-74.088zM367.358 319.405h588.597v73.059h-588.597v-73.059zM734.716 613.704h221.238v73.059h-221.238v-73.059zM1029.015 135.21v-146.12q0-15.435-11.319-25.725t-25.725-11.319h-954.927q-15.435 0-25.725 11.319t-11.319 25.725v146.12q0 15.435 11.319 26.754t25.725 10.29h954.927q15.435 0 25.725-10.29t11.319-26.754zM1029.015 429.509v-147.149q0-14.406-11.319-25.725t-25.725-10.29h-954.927q-15.435 0-25.725 10.29t-11.319 25.725v147.149q0 15.435 11.319 25.725t25.725 11.319h954.927q15.435 0 25.725-11.319t11.319-25.725zM1029.015 723.807v-147.149q0-15.435-11.319-25.725t-25.725-11.319h-954.927q-15.435 0-25.725 11.319t-11.319 25.725v147.149q0 14.406 11.319 25.725t25.725 11.319h954.927q15.435 0 25.725-11.319t11.319-25.725z" />
<glyph unicode="&#xe90e;" glyph-name="images" horiz-adv-x="1157" d="M1093.33 737.44h-64.315v64.315c0 35.372-28.94 64.315-64.315 64.315h-900.388c-35.372 0-64.315-28.94-64.315-64.315v-771.761c0-35.372 28.94-64.315 64.315-64.315h64.315v-64.315c0-35.372 28.94-64.315 64.315-64.315h900.388c35.372 0 64.315 28.94 64.315 64.315v771.761c0 35.372-28.94 64.315-64.315 64.315zM128.626 673.13v-643.134h-64.2c-0.040 0.034-0.082 0.076-0.114 0.116v771.53c0.034 0.040 0.076 0.082 0.114 0.114h900.156c0.040-0.034 0.082-0.076 0.116-0.116v-64.198h-771.761c-35.372 0-64.315-28.94-64.315-64.315v0zM1093.33-98.516c-0.034-0.040-0.076-0.082-0.116-0.116h-900.156c-0.040 0.034-0.082 0.076-0.114 0.116v771.53c0.034 0.040 0.076 0.082 0.114 0.114h900.156c0.040-0.034 0.082-0.076 0.116-0.116v-771.528zM964.7 512.345c0-53.28-43.19-96.47-96.47-96.47s-96.47 43.19-96.47 96.47 43.19 96.47 96.47 96.47 96.47-43.19 96.47-96.47zM1029.015-34.319h-771.761v128.626l225.097 385.88 257.253-321.567h64.315l225.097 192.94z" />
<glyph unicode="&#xf023;" glyph-name="lock" horiz-adv-x="660" d="M183.215 426.008h293.143v109.928c0 80.729-65.842 146.572-146.572 146.572s-146.572-65.842-146.572-146.572v-109.928zM659.573 371.044v-329.787c0-30.346-24.619-54.965-54.965-54.965h-549.644c-30.346 0-54.965 24.619-54.965 54.965v329.787c0 30.346 24.619 54.965 54.965 54.965h18.322v109.928c0 140.846 115.655 256.5 256.5 256.5s256.5-115.655 256.5-256.5v-109.928h18.322c30.346 0 54.965-24.619 54.965-54.965z" />
<glyph unicode="&#xf084;" glyph-name="key" horiz-adv-x="962" d="M475.429 585.143c0 60.571-49.143 109.714-109.714 109.714s-109.714-49.143-109.714-109.714c0-16.571 4-32.571 10.857-47.429-14.857 6.857-30.857 10.857-47.429 10.857-60.571 0-109.714-49.143-109.714-109.714s49.143-109.714 109.714-109.714 109.714 49.143 109.714 109.714c0 16.571-4 32.571-10.857 47.429 14.857-6.857 30.857-10.857 47.429-10.857 60.571 0 109.714 49.143 109.714 109.714zM961.714 182.857c0-13.143-52.571-65.714-65.714-65.714-14.857 0-61.143 53.714-73.143 65.714l-54.857-54.857 125.714-125.714c10.286-10.286 16-24.571 16-38.857 0-32-36.571-68.571-68.571-68.571-14.286 0-28.571 5.714-38.857 16l-383.429 383.429c-60-44.571-133.143-74.857-208.571-74.857-124.571 0-210.286 86.286-210.286 210.286 0 187.429 187.429 374.857 374.857 374.857 124 0 210.286-85.714 210.286-210.286 0-75.429-30.286-148.571-74.857-208.571l202.857-202.857 54.857 54.857c-12 12-65.714 58.286-65.714 73.143 0 13.143 52.571 65.714 65.714 65.714 4.571 0 9.714-2.286 13.143-5.714 21.143-21.143 180.571-171.429 180.571-188z" />
<glyph unicode="&#xf08d;" glyph-name="thumb-tack" horiz-adv-x="658" d="M274.286 384v256c0 10.286-8 18.286-18.286 18.286s-18.286-8-18.286-18.286v-256c0-10.286 8-18.286 18.286-18.286s18.286 8 18.286 18.286zM658.286 182.857c0-20-16.571-36.571-36.571-36.571h-245.143l-29.143-276c-1.143-9.143-8.571-16.571-17.714-16.571h-0.571c-9.143 0-16.571 6.286-18.286 15.429l-43.429 277.143h-230.857c-20 0-36.571 16.571-36.571 36.571 0 93.714 70.857 182.857 146.286 182.857v292.571c-40 0-73.143 33.143-73.143 73.143s33.143 73.143 73.143 73.143h365.714c40 0 73.143-33.143 73.143-73.143s-33.143-73.143-73.143-73.143v-292.571c75.429 0 146.286-89.143 146.286-182.857z" />
<glyph unicode="&#xf0c1;" glyph-name="chain" horiz-adv-x="955" d="M835.258 156.131c0 14.917-5.738 28.683-16.064 39.009l-119.322 119.322c-10.326 10.326-24.667 16.064-39.009 16.064-16.635 0-29.83-6.31-41.303-18.358 18.929-18.929 41.303-34.993 41.303-64.252 0-30.406-24.667-55.073-55.073-55.073-29.258 0-45.319 22.374-64.252 41.303-12.048-11.473-18.929-24.667-18.929-41.878 0-14.342 5.738-28.683 16.064-39.009l118.174-118.75c10.326-10.326 24.667-15.489 39.009-15.489s28.683 5.163 39.009 14.917l84.328 83.757c10.326 10.326 16.064 24.094 16.064 38.435zM431.971 560.566c0 14.342-5.738 28.683-16.064 39.009l-118.174 118.75c-10.326 10.326-24.667 16.064-39.009 16.064s-28.683-5.738-39.009-15.489l-84.328-83.757c-10.326-10.326-16.064-24.094-16.064-38.435 0-14.917 5.738-28.683 16.064-39.009l119.322-119.322c10.326-10.326 24.667-15.489 39.009-15.489 16.635 0 29.83 5.738 41.303 17.782-18.929 18.929-41.303 34.993-41.303 64.252 0 30.406 24.667 55.073 55.073 55.073 29.258 0 45.319-22.374 64.252-41.303 12.048 11.473 18.929 24.667 18.929 41.878zM945.401 156.131c0-43.599-17.782-86.050-48.762-116.455l-84.328-83.757c-30.977-30.977-72.855-47.613-116.455-47.613-44.172 0-86.050 17.211-117.027 48.762l-118.174 118.75c-30.977 30.977-47.613 72.855-47.613 116.455 0 45.319 18.358 88.344 50.482 119.897l-50.482 50.482c-31.553-32.124-74.002-50.482-119.322-50.482-43.599 0-86.050 17.211-117.027 48.188l-119.322 119.322c-31.553 31.553-48.188 72.855-48.188 117.027 0 43.599 17.782 86.050 48.762 116.455l84.328 83.757c30.977 30.977 72.855 47.613 116.455 47.613 44.172 0 86.050-17.211 117.027-48.762l118.174-118.75c30.977-30.977 47.613-72.855 47.613-116.455 0-45.319-18.358-88.344-50.482-119.897l50.482-50.482c31.553 32.124 74.002 50.482 119.322 50.482 43.599 0 86.050-17.211 117.027-48.188l119.322-119.322c31.553-31.553 48.188-72.855 48.188-117.027z" />
<glyph unicode="&#xf13e;" glyph-name="unlock-alt" horiz-adv-x="658" d="M603.429 438.857c30.286 0 54.857-24.571 54.857-54.857v-329.143c0-30.286-24.571-54.857-54.857-54.857h-548.571c-30.286 0-54.857 24.571-54.857 54.857v329.143c0 30.286 24.571 54.857 54.857 54.857h18.286v182.857c0 141.143 114.857 256 256 256s256-114.857 256-256c0-20-16.571-36.571-36.571-36.571h-36.571c-20 0-36.571 16.571-36.571 36.571 0 80.571-65.714 146.286-146.286 146.286s-146.286-65.714-146.286-146.286v-182.857h420.571z" />
<glyph unicode="&#xf14b;" glyph-name="pencil-square" horiz-adv-x="879" d="M231.083 237.96l86.942-86.942-29.743-29.743h-32.031v54.911h-54.911v32.031zM467.886 461.034c4.575-4.004 3.432-12.012-1.716-17.16l-166.449-166.449c-5.148-5.148-13.156-6.292-17.16-1.716-4.575 4.004-3.432 12.012 1.716 17.16l166.449 166.449c5.148 5.148 13.156 6.292 17.16 1.716zM311.161 66.364l311.161 311.161-164.732 164.732-311.161-311.161v-164.732h164.732zM658.929 414.132l52.622 52.622c21.164 21.164 21.164 56.626 0 77.79l-86.942 86.942c-21.164 21.164-56.626 21.164-77.79 0l-52.622-52.622zM878.572 633.775v-549.107c0-90.946-73.786-164.732-164.732-164.732h-549.107c-90.946 0-164.732 73.786-164.732 164.732v549.107c0 90.946 73.786 164.732 164.732 164.732h549.107c90.946 0 164.732-73.786 164.732-164.732z" />
<glyph unicode="&#xf179;" glyph-name="apple" horiz-adv-x="809" d="M799.545 136.239q-21.609-72.030-69.972-143.033-74.088-113.191-148.178-113.191-27.783 0-80.262 18.522-49.392 18.522-86.436 18.522-34.986 0-81.291-19.551t-76.146-19.551q-87.465 0-172.874 149.207-84.378 150.236-84.378 289.153 0 130.684 64.827 214.035t163.613 83.349q41.16 0 100.842-17.493t79.233-17.493q25.725 0 82.32 19.551 58.653 19.551 99.813 19.551 67.914 0 122.452-37.044 29.841-20.58 59.682-57.624-45.276-38.073-65.856-67.914-37.044-53.508-37.044-118.336 0-71.001 39.102-128.626t90.552-72.030zM584.481 810.244q0-34.986-17.493-78.204-16.464-43.218-53.508-79.233-30.87-30.87-61.74-41.16-20.58-7.203-59.682-10.29 2.058 85.407 45.276 147.149 42.189 61.74 143.033 85.407 1.029-2.058 2.058-6.174t1.029-6.174 0-6.174 1.029-5.145z" />
<glyph unicode="&#xf17a;" glyph-name="windows" horiz-adv-x="955" d="M392.054 256.635v-374.561l-392.054 54.537v320.024h392.054zM392.054 682.647v-377.648h-392.054v324.14zM955.956 256.635v-451.737l-521.709 72.030v379.706h521.709zM955.956 760.851v-455.853h-521.709v383.822z" />
<glyph unicode="&#xf17b;" glyph-name="android" horiz-adv-x="809" d="M282.979 557.107q9.261 0 16.464 6.174t6.174 15.435-6.174 16.464-16.464 6.174-15.435-6.174-6.174-16.464 6.174-15.435 15.435-6.174zM525.826 557.107q9.261 0 15.435 6.174t6.174 15.435-6.174 16.464-15.435 6.174-16.464-6.174-6.174-16.464 6.174-15.435 16.464-6.174zM59.682 451.119q23.667 0 41.16-17.493t16.464-41.16v-246.963q0-24.696-16.464-42.189t-41.16-17.493-42.189 17.493-17.493 42.189v246.963q0 23.667 17.493 41.16t42.189 17.493zM667.831 439.8v-381.764q0-26.754-18.522-45.276t-44.247-18.522h-43.218v-130.684q0-24.696-16.464-41.16t-42.189-17.493-42.189 17.493-17.493 41.16v130.684h-79.233v-130.684q0-24.696-16.464-41.16t-42.189-17.493q-24.696 0-41.16 17.493t-17.493 41.16l-1.029 130.684h-42.189q-26.754 0-44.247 18.522t-18.522 45.276v381.764h526.857zM535.089 672.357q60.711-30.87 97.755-87.465t37.044-124.51h-530.973q0 67.914 36.015 124.51t98.784 87.465l-40.131 75.117q-4.116 8.232 2.058 12.348 8.232 3.087 12.348-4.116l41.16-76.146q54.537 24.696 115.249 24.696t115.249-24.696l41.16 76.146q4.116 7.203 11.319 4.116 7.203-4.116 3.087-12.348zM808.806 392.465v-246.963q0-24.696-17.493-42.189t-42.189-17.493q-23.667 0-41.16 17.493t-17.493 42.189v246.963q0 24.696 17.493 41.16t41.16 17.493q24.696 0 42.189-17.493t17.493-41.16z" />
<glyph unicode="&#xf1b7;" glyph-name="steam" horiz-adv-x="883" d="M713.189 476.168c0 60.866-49.959 110.826-111.4 110.826-60.866 0-110.826-49.959-110.826-110.826 0-61.443 49.959-110.826 110.826-110.826 61.443 0 111.4 49.383 111.4 110.826zM362.911 138.524c0-63.166-50.531-113.698-113.698-113.698-43.642 0-81.54 24.691-100.49 60.866 18.948-7.464 37.323-14.932 56.275-22.967 45.939-18.376 98.766 4.020 117.718 50.531 18.376 45.939-4.020 98.766-50.531 117.141l-47.087 18.948c7.464 1.724 16.080 2.872 24.118 2.872 63.166 0 113.698-50.531 113.698-113.698zM882.012 608.815v-551.257c0-91.302-74.074-165.377-165.377-165.377h-551.257c-91.302 0-165.377 74.074-165.377 165.377v87.858l98.766-39.624c14.932-69.483 76.946-121.737 150.447-121.737 80.391 0 146.428 61.443 153.893 139.537l198.108 144.705c114.846 0 207.296 93.025 207.296 206.721 0 114.846-92.45 207.296-207.296 207.296-113.121 0-205.573-91.877-206.721-204.999l-129.201-184.901c-5.168 0.576-10.336 0.576-16.080 0.576-28.711 0-55.699-7.464-78.671-21.248l-170.545 68.334v268.738c0 91.302 74.074 165.377 165.377 165.377h551.257c91.302 0 165.377-74.074 165.377-165.377zM740.178 475.020c0-76.372-62.016-138.389-138.963-138.389-76.372 0-138.389 62.016-138.389 138.389 0 76.946 62.016 138.963 138.389 138.963 76.946 0 138.963-62.016 138.963-138.963z" />
<glyph unicode="&#xf1e1;" glyph-name="share-alt-square" horiz-adv-x="881" d="M733.576 174.858c0 67.627-55.019 122.646-122.071 122.646-32.093 0-61.323-12.607-83.1-33.239l-138.119 68.772c0.574 4.583 1.146 8.595 1.146 13.182s-0.574 8.595-1.146 13.182l138.119 68.772c21.777-20.631 51.007-33.239 83.1-33.239 67.052 0 122.071 55.019 122.071 122.646 0 67.052-55.019 122.071-122.071 122.071-67.627 0-122.646-55.019-122.646-122.071 0-4.583 0.574-8.595 1.146-13.182l-138.119-68.772c-21.777 20.060-51.007 32.667-83.1 32.667-67.052 0-122.071-54.445-122.071-122.071s55.019-122.071 122.071-122.071c32.093 0 61.323 12.607 83.1 32.667l138.119-68.772c-0.574-4.583-1.146-8.595-1.146-13.182 0-67.052 55.019-122.071 122.646-122.071 67.052 0 122.071 55.019 122.071 122.071zM880.291 621.307v-550.181c0-91.124-73.93-165.054-165.054-165.054h-550.181c-91.124 0-165.054 73.93-165.054 165.054v550.181c0 91.124 73.93 165.054 165.054 165.054h550.181c91.124 0 165.054-73.93 165.054-165.054z" />
<glyph unicode="&#xf267;" glyph-name="safari" d="M545.379 321.463q0-15.435-10.29-25.725t-23.667-11.319q-14.406 0-25.725 9.261t-10.29 23.667q0 15.435 9.261 25.725t23.667 11.319 25.725-9.261 11.319-23.667zM553.611 287.505l200.658 334.43q-5.145-5.145-38.073-36.015t-72.030-66.885-79.233-73.059-66.885-63.798-28.812-29.841l-200.658-332.372q4.116 4.116 39.102 34.986t72.030 66.885 78.204 73.059 66.885 63.798 28.812 28.812zM925.085 319.405q0-115.249-59.682-213.006-2.058 1.029-9.261 6.174t-15.435 9.261-9.261 5.145q-8.232 0-8.232-8.232 0-5.145 33.957-24.696-42.189-64.827-105.988-110.104t-138.917-62.769l-8.232 38.073q-1.029 6.174-9.261 6.174-3.087 0-4.116-3.087t-1.029-6.174l9.261-39.102q-42.189-8.232-84.378-8.232-114.22 0-214.035 60.711 1.029 1.029 8.232 11.319t12.348 19.551 5.145 10.29q0 8.232-7.203 8.232-4.116 0-10.29-8.232t-12.348-20.58-8.232-13.377q-64.827 43.218-110.104 108.046t-62.769 140.975l39.102 8.232q6.174 2.058 6.174 8.232 0 3.087-3.087 5.145t-6.174 1.029l-39.102-9.261q-8.232 42.189-8.232 80.262 0 118.336 62.769 218.151 1.029-1.029 10.29-7.203t17.493-11.319 10.29-4.116q7.203 0 7.203 6.174 0 4.116-7.203 9.261t-18.522 12.348l-11.319 7.203q44.247 63.798 108.046 108.046t139.946 61.74l9.261-38.073q1.029-6.174 8.232-6.174 3.087 0 5.145 3.087t1.029 6.174l-9.261 38.073q41.16 7.203 77.175 7.203 117.307 0 218.151-62.769-22.638-31.899-22.638-37.044 0-7.203 6.174-7.203 7.203 0 27.783 36.015 63.798-42.189 108.046-105.988t61.74-138.917l-31.899-7.203q-6.174-1.029-6.174-8.232 0-3.087 3.087-5.145t5.145-1.029l32.928 7.203q8.232-41.16 8.232-80.262zM973.449 319.405q0 93.639-36.015 179.049t-97.755 146.12-146.12 97.755-179.049 36.015-178.020-36.015-147.149-97.755-97.755-146.12-36.015-179.049 36.015-178.020 97.755-147.149 147.149-97.755 178.020-36.015 179.049 36.015 146.12 97.755 97.755 147.149 36.015 178.020zM1029.015 319.405q0-104.958-41.16-199.629t-109.075-164.642-164.642-109.075-199.629-41.16-199.629 41.16-164.642 109.075-109.075 164.642-41.16 199.629 41.16 199.629 109.075 164.642 164.642 109.075 199.629 41.16 199.629-41.16 164.642-109.075 109.075-164.642 41.16-199.629z" />
<glyph unicode="&#xf2bc;" glyph-name="address-card-o, vcard-o" horiz-adv-x="1170" d="M585.143 231.428c0-49.714-32.571-85.143-73.143-85.143h-292.571c-40.571 0-73.143 35.429-73.143 85.143 0 88.571 21.714 186.857 112 186.857 28-16 65.714-43.429 107.429-43.429s79.429 27.429 107.429 43.429c90.286 0 112-98.286 112-186.857zM495.429 528.571c0-72-58.286-129.714-129.714-129.714s-129.714 57.714-129.714 129.714c0 71.429 58.286 129.714 129.714 129.714s129.714-58.286 129.714-129.714zM1024 274.285v-36.571c0-10.286-8-18.286-18.286-18.286h-329.143c-10.286 0-18.286 8-18.286 18.286v36.571c0 10.286 8 18.286 18.286 18.286h329.143c10.286 0 18.286-8 18.286-18.286zM1024 418.285v-32c0-11.429-9.143-20.571-20.571-20.571h-324.571c-11.429 0-20.571 9.143-20.571 20.571v32c0 11.429 9.143 20.571 20.571 20.571h324.571c11.429 0 20.571-9.143 20.571-20.571zM1024 566.857v-36.571c0-10.286-8-18.286-18.286-18.286h-329.143c-10.286 0-18.286 8-18.286 18.286v36.571c0 10.286 8 18.286 18.286 18.286h329.143c10.286 0 18.286-8 18.286-18.286zM1097.143 18.285v694.857c0 9.714-8.571 18.286-18.286 18.286h-987.429c-9.714 0-18.286-8.571-18.286-18.286v-694.857c0-9.714 8.571-18.286 18.286-18.286h201.143v54.857c0 10.286 8 18.286 18.286 18.286h36.571c10.286 0 18.286-8 18.286-18.286v-54.857h438.857v54.857c0 10.286 8 18.286 18.286 18.286h36.571c10.286 0 18.286-8 18.286-18.286v-54.857h201.143c9.714 0 18.286 8.571 18.286 18.286zM1170.286 713.143v-694.857c0-50.286-41.143-91.429-91.429-91.429h-987.429c-50.286 0-91.429 41.143-91.429 91.429v694.857c0 50.286 41.143 91.429 91.429 91.429h987.429c50.286 0 91.429-41.143 91.429-91.429z" />
</font>
</defs>
</svg>
